<svg width="60" height="58" viewBox="0 0 60 58" fill="none" xmlns="http://www.w3.org/2000/svg">
<path d="M13.67 37.66C13.53 37.43 13.4 37.21 13.27 36.98C12.8 36.14 12.03 35.62 11.07 35.49C10.11 35.36 9.23001 35.66 8.55001 36.34L6.53006 38.36C5.15006 39.74 2.92 39.74 1.54 38.36C0.160005 36.98 0.160005 34.74 1.54 33.37L8.45004 26.46C9.49004 25.42 10.05 24.21 10.18 22.75C10.66 17.18 13.03 11.75 17.29 7.48999C22.09 2.68999 28.39 0.289978 34.69 0.289978C40.99 0.289978 47.28 2.68999 52.08 7.48999C56.88 12.29 59.2801 18.59 59.2801 24.88C59.2801 31.17 56.88 37.47 52.08 42.27C47.82 46.53 42.38 48.9 36.82 49.38C35.36 49.51 34.14 50.07 33.11 51.11L27.52 56.7C26.14 58.08 23.9101 58.08 22.5301 56.7C21.1501 55.32 21.1501 53.09 22.5301 51.71L23.22 51.02C23.9 50.34 24.2 49.46 24.07 48.5C23.94 47.54 23.42 46.78 22.58 46.3C22.35 46.17 22.1201 46.04 21.9001 45.9C20.7101 45.17 19.22 45.35 18.23 46.34L10.22 54.35C8.84 55.73 6.60001 55.73 5.23001 54.35C3.85001 52.97 3.85001 50.73 5.23001 49.36L13.24 41.35C14.23 40.36 14.41 38.87 13.68 37.68L13.67 37.66ZM17.1501 24.87C17.1501 29.36 18.86 33.85 22.29 37.27C25.71 40.69 30.2 42.41 34.69 42.41C39.18 42.41 43.6701 40.7 47.0901 37.27C50.5201 33.85 52.23 29.36 52.23 24.87C52.23 20.38 50.5201 15.89 47.0901 12.47C43.6701 9.04999 39.18 7.32999 34.69 7.32999C30.2 7.32999 25.71 9.03999 22.29 12.47C18.87 15.89 17.1501 20.38 17.1501 24.87Z" fill="#4BC7F8"/>
<path d="M34.69 20.02C33.61 20.02 32.63 19.58 31.92 18.87C31.21 18.16 30.78 17.19 30.78 16.1C30.78 15.02 31.22 14.04 31.93 13.33C32.64 12.62 33.62 12.18 34.7 12.18C36.41 12.18 38.05 12.52 39.55 13.14C41.1 13.78 42.5 14.72 43.67 15.89C44.84 17.06 45.78 18.46 46.42 20.01C47.04 21.51 47.38 23.15 47.38 24.86V24.94C47.28 26.06 46.89 27.07 46.19 27.8C45.53 28.49 44.62 28.9 43.45 28.89C42.53 28.89 41.72 28.59 41.08 28.09C40.41 27.57 39.93 26.83 39.7 25.98C39.58 25.54 39.56 25.12 39.53 24.7C39.51 24.4 39.49 24.1 39.43 23.82C39.33 23.36 39.17 22.93 38.95 22.53C38.73 22.13 38.45 21.76 38.12 21.43C37.67 20.98 37.14 20.62 36.55 20.38C35.98 20.14 35.35 20.01 34.69 20.01V20.02Z" fill="#122036"/>
</svg>
