<style>
    .ghost{ display: none; }

    #ingenico .st0{fill:#4B4F55;}
    #ingenico .st1{fill:#4DB3C3;}

    #multisafepay .st0{fill:#1AA5DE;}
    #multisafepay .st1{fill:#171113;}
    #multisafepay .st2{fill:#929497;}

    #mollie .cls-1{fill:#0095ff;}

    #visa .cls-1{fill:#0066b2;}
    #visa .cls-2{fill:#f9a533;}

    #paypal .cls-1{fill:#253b80;}
    #paypal .cls-2{fill:#179bd7;}
    #paypal .cls-3{fill:#222d65;}

    #maestro .cls-1{fill:#6c6bbd;}
    #maestro .cls-2{fill:#d32011;}
    #maestro .cls-3{fill:#0099df;}
    #maestro .cls-4{fill:#fff;}

    #bancontact .cls-1{fill:#005092;}
    #bancontact .cls-2{fill:#fd0;}

    #americanexpress .cls-1{fill:#2fabf7;}
    #americanexpress .cls-2{fill:#228fe0;}
    #americanexpress .cls-3{fill:#0571c1;}

    #mastercard .cls-1{fill:#fff;}
    #mastercard .cls-2{fill:#ff5f00;}
    #mastercard .cls-3{fill:#eb001b;}
    #mastercard .cls-4{fill:#f79e1b;}

    #ideal .cls-1{fill:#cd0067;}
    #ideal .cls-2{fill:#fff;}

    #transfer-en .cls-1, #transfer-nl .cls-1, #transfer-fr .cls-1{fill:#e7e8e3;}
    #transfer-en .cls-2, #transfer-nl .cls-2, #transfer-fr .cls-2{fill:#006e90;}
    #transfer-en .cls-3, #transfer-nl .cls-3, #transfer-fr .cls-3{fill:#66cde7;}

    #qrcode .cls-1{fill:#fff;}
    #qrcode .cls-2{fill:none;}

    #kbc-mobile .cls-1, #cbc-mobile .cls-1{fill:#009ee2;}
    #kbc-mobile .cls-2, #cbc-mobile .cls-2{fill:#fff;}

    #wallet .cls-1{fill:#fc0}
    #wallet .cls-2{fill:#69c}
    #wallet .cls-3{fill:#57b149}
    #wallet .cls-4{fill:#de1f26}

    #sofort .cls-1{fill:#f48120;}
    #sofort .cls-2{fill:#393c43;}

    #belfius .cls-1{fill:#ca0343;}
    #belfius .cls-2{fill:#fff;}

    #giropay .cls-1{fill:#242757;}
    #giropay .cls-2{fill:#fff;}
    #giropay .cls-3{fill:#e42316;}

    #ing-homepay .cls-1, #ing-homepay-alt .cls-1{fill:#f36007;}
    #ing-homepay .cls-2, #ing-homepay-alt .cls-2{fill:#fff;}
    #ing-homepay .cls-3, #ing-homepay-alt .cls-3{fill:#080146;}

    #klarna-now .cls-1, #klarna-sliceit .cls-1, #klarna-paylater .cls-1{fill:#fff;}
    #klarna-now .cls-3, #klarna-sliceit .cls-3, #klarna-paylater .cls-3{fill:#fa82a0;}

    #afterpay .cls-1{fill:#78A431;}
    #afterpay .cls-2{fill:#675041;}

</style>
<svg class="ghost">
    <defs>
        <symbol id="ingenico">
            <path class="st0" d="M1.3 38.5v-23.9h5.3v23.8c0 .1-5.3.1-5.3.1zM13.3 2.2h94.7v4.3h-94.7v-4.3zM48.2 48.3c-3.4 0-6.5-.7-8.4-1.3l.8-4.5c2 .5 5 .9 6.7.9 3.5 0 5.9-.6 5.9-4.8.1-.1 0-1.2 0-1.3-1.1.9-2.6 1.6-4.3 1.6-5.1 0-10.8-1.4-10.8-12.2 0-8.1 5.2-12.4 11.6-12.4 2.5 0 5.3.3 8.7.9v24.1c.1 6.6-5.5 9-10.2 9zm5-29c-.9-.1-1.9-.3-3.5-.3-4.5 0-6.3 3.3-6.3 7.7 0 5.7 2.3 7.6 5.8 7.6 1.6 0 2.9-.7 3.9-1.2l.1-13.8zM68.8 28.2c0 5.2 3 5.9 7 5.9 1.5 0 4.3-.2 6-.6l.8 4.5c-1.7.6-5.1.9-7.8.9-6.9 0-11.4-2.6-11.4-11.9 0-9.7 4.6-12.9 10.8-12.9 6.4 0 9 4.5 9 12v2.1h-14.4zm5-9.8c-2.3 0-4.6 1.7-4.9 5.7h8.9c0-3.7-1.8-5.7-4-5.7zM114.7 38.5v-23.9h5.3v23.8c.1.1-5.3.1-5.3.1zM141.8 19.8c-1.5-.6-2.8-1-5.1-1-3.4 0-6 2.1-6 7.7 0 5.4 1.3 7.8 7.2 7.8 1.8 0 3-.3 4.5-.6l.7 4.5c-1.7.4-3.2.8-5.6.8-8.9 0-12.3-3.6-12.3-12.5 0-7.6 4.5-12.3 11.5-12.3 3.2 0 5.2.7 6.6 1.5l-1.5 4.1zM156.8 39c-6.8 0-10.6-4.6-10.6-12.2 0-8 4.4-12.7 11-12.7 7.4 0 10.8 4.6 10.8 12.5 0 8.2-4.8 12.4-11.2 12.4zm.2-20.4c-4.3 0-5.5 3.8-5.5 8 0 4.5 1.3 7.8 5.6 7.8s5.4-3.5 5.4-7.8c0-4.1-1.1-8-5.5-8z"/><circle class="st0" cx="4" cy="4.3" r="3.1"/><circle class="st0" cx="117.4" cy="4.3" r="3.1"/><path class="st0" d="M26.1 14c-3.4 0-5.9 2-7.4 3.1l-.2.2c-.5-1.9-1.9-2.5-3.2-2.6h-2.1v23.8h5.4v-17.5c1.1-.6 3.5-2.1 5.7-2.1 3 0 3.6 1.6 3.6 5v14.5h5.3v-15.1c.2-4.9-.3-9.3-7.1-9.3zM100.8 14c-3.4 0-5.9 2-7.4 3.1l-.2.2c-.5-1.9-1.9-2.5-3.2-2.6h-2v23.8h5.4v-17.5c1.1-.6 3.5-2.1 5.7-2.1 3 0 3.6 1.6 3.6 5v14.5h5.3v-15.1c.1-4.9-.4-9.3-7.2-9.3z"/>
            <path class="st1" d="M119.1 58.6c-1.4 0-2.4-.4-3.2-1.2-.8-.8-1.1-1.9-1.1-3.3s.4-2.5 1.1-3.3c.7-.8 1.7-1.2 2.9-1.2 1.1 0 2.1.3 2.7 1 .7.7 1 1.7 1 2.9v1h-5.8c0 .8.3 1.5.7 1.9s1 .7 1.8.7c.5 0 1 0 1.4-.1.4-.1.9-.3 1.4-.5v1.5c-.5.2-.9.4-1.4.5s-.9.1-1.5.1zm-.3-7.6c-.6 0-1.1.2-1.4.6s-.6.9-.6 1.6h3.9c0-.7-.2-1.3-.5-1.6-.4-.4-.9-.6-1.4-.6zM132.4 50.5c0 1.2-.4 2.1-1.2 2.8-.8.6-1.9 1-3.4 1h-1.2v4.3h-1.9v-11.6h3.3c1.4 0 2.5.3 3.2.9.8.6 1.2 1.4 1.2 2.6zm-5.8 2.1h1c1 0 1.7-.2 2.1-.5.5-.3.7-.9.7-1.6 0-.7-.2-1.2-.6-1.5-.4-.3-1-.5-1.9-.5h-1.3v4.1zM139.9 58.5l-.4-1.2h-.1c-.4.5-.8.9-1.3 1.1-.4.2-1 .3-1.6.3-.9 0-1.5-.2-2-.7s-.7-1.1-.7-2c0-.9.3-1.6 1-2 .7-.5 1.7-.7 3-.7h1.5v-.5c0-.6-.1-1-.4-1.2-.3-.3-.7-.4-1.2-.4-.4 0-.9.1-1.3.2s-.8.3-1.2.5l-.6-1.3 1.5-.6c.6-.1 1.1-.2 1.6-.2 1.1 0 1.9.2 2.5.7.6.5.8 1.2.8 2.3v5.9h-1.1zm-2.7-1.3c.7 0 1.2-.2 1.6-.6.4-.4.6-.9.6-1.6v-.8h-1.1c-.9 0-1.5.2-1.9.4-.4.3-.6.7-.6 1.2 0 .4.1.7.3.9.3.4.6.5 1.1.5zM142.5 49.8h2l1.8 4.9c.3.7.4 1.4.5 2h.1c0-.3.1-.6.3-1 .1-.4.8-2.4 2-5.9h2l-3.7 9.8c-.7 1.8-1.8 2.7-3.4 2.7-.4 0-.8 0-1.2-.1v-1.5c.3.1.6.1 1 .1.9 0 1.5-.5 1.9-1.5l.3-.8-3.6-8.7zM159.8 58.5h-1.9v-5.4c0-.7-.1-1.2-.4-1.5-.3-.3-.6-.5-1.2-.5-.7 0-1.2.2-1.6.7-.3.5-.5 1.2-.5 2.3v4.3h-1.8v-8.7h1.4l.3 1.1h.1c.2-.4.6-.7 1-1 .5-.2 1-.3 1.5-.3 1.3 0 2.2.5 2.7 1.4h.1c.3-.4.6-.8 1.1-1 .5-.2 1-.4 1.6-.4 1 0 1.8.3 2.3.8.5.5.7 1.3.7 2.4v5.7h-1.8v-5.4c0-.7-.1-1.2-.4-1.5s-.6-.5-1.2-.5c-.7 0-1.2.2-1.6.7-.3.4-.5 1.1-.5 2.1v4.7zM171.6 58.6c-1.4 0-2.4-.4-3.2-1.2-.8-.8-1.1-1.9-1.1-3.3s.4-2.5 1.1-3.3c.7-.8 1.7-1.2 2.9-1.2 1.1 0 2.1.3 2.7 1 .7.7 1 1.7 1 2.9v1h-5.8c0 .8.3 1.5.7 1.9s1 .7 1.8.7c.5 0 1 0 1.4-.1.4-.1.9-.3 1.4-.5v1.5c-.5.2-.9.4-1.4.5s-.9.1-1.5.1zm-.3-7.6c-.6 0-1.1.2-1.4.6s-.6.9-.6 1.6h3.9c0-.7-.2-1.3-.5-1.6-.4-.4-.8-.6-1.4-.6zM184.8 58.5h-1.9v-5.3c0-.7-.1-1.2-.4-1.5-.3-.3-.7-.5-1.3-.5-.8 0-1.4.2-1.7.7s-.5 1.2-.5 2.3v4.3h-1.8v-8.7h1.4l.3 1.1h.1c.3-.4.6-.7 1.1-1 .5-.2 1-.3 1.6-.3 2.1 0 3.1 1.1 3.1 3.2v5.7zM190.6 57.2c.5 0 .9-.1 1.4-.2v1.4c-.2.1-.5.2-.8.2-.3.1-.7.1-1 .1-1.8 0-2.6-.9-2.6-2.8v-4.7h-1.2v-.8l1.3-.7.6-1.8h1.1v1.9h2.5v1.4h-2.5v4.7c0 .4.1.8.3 1s.5.3.9.3zM199.5 56c0 .8-.3 1.5-.9 2s-1.5.7-2.7.7c-1.2 0-2.1-.2-2.8-.5v-1.6c1 .5 2 .7 2.9.7 1.1 0 1.7-.3 1.7-1 0-.2-.1-.4-.2-.5-.1-.1-.3-.3-.6-.5s-.7-.3-1.2-.5c-1-.4-1.7-.8-2-1.2s-.5-.9-.5-1.5c0-.7.3-1.3.9-1.7.6-.4 1.4-.6 2.4-.6s2 .2 2.9.6l-.6 1.4c-.9-.4-1.7-.6-2.4-.6-1 0-1.5.3-1.5.8 0 .3.1.5.4.7.3.2.8.4 1.7.8.7.3 1.2.5 1.6.8s.6.5.7.8c.1.1.2.5.2.9z"/>
        </symbol>
        <symbol id="multisafepay">
            <path class="st0" d="M3.4,24.3l0.5-2.2C4,21.5,4,21.4,4.1,20.8l0,0c0.7,0,0.9,0,1.6,0l0,0c0,0.7,0,0.8,0,1.7l0,1.2
        		C6,25.1,6,25.5,6.1,26.2l0,0c-0.6,0-0.8,0-1.2,0l0,0c0-1,0-1.1,0-2.2l0-2.1l-0.6,2.5c-0.2,0.9-0.3,1.3-0.4,1.7l0,0
        		c-0.4,0-0.5,0-0.9,0l0,0c-0.1-0.5-0.2-1.1-0.4-1.6L1.8,22l0,1.8c0,1.6,0,1.8,0,2.4l0,0c-0.4,0-0.6,0-1,0l0,0
        		C0.7,25,0.7,24.8,0.8,24l0.1-1.7c0-0.7,0-1.1,0-1.5l0,0c0.7,0,0.9,0,1.7,0l0,0c0.1,0.4,0.1,0.4,0.3,1.3L3.4,24.3z"/>
        	<path class="st0" d="M8.7,25.8c-0.2,0.2-0.6,0.5-1.1,0.5c-0.8,0-0.9-0.8-0.9-0.9c0-0.2,0-0.5,0-0.9v-0.4c0-1.1,0-1.3,0-1.8l0,0
        		c0.5,0,0.6,0,1.1,0l0,0c0,0.3,0,1.6,0,1.9c0,0.2,0,0.8,0,1c0,0.1,0,0.4,0.4,0.4c0.2,0,0.3-0.1,0.4-0.2v-0.6c0-0.2,0-1.7,0-2.3l0,0
        		c0.5,0,0.7,0,1.1,0l0,0c0,0.5,0,0.8,0,1.5c0,0.2,0,1.2,0,1.6c0,0.4,0,0.7,0,0.9l0,0c-0.6,0-0.7,0-1.1,0l0,0L8.7,25.8z"/>
        	<path class="st0" d="M11.8,26.3c-0.5,0-0.7,0-1.2,0l0,0c0-0.5,0-1,0-2.1c0-0.7,0-1.4,0-2.1c0-0.8,0-1-0.1-1.4l0,0
        		c0.5-0.1,0.7-0.1,1.2-0.2l0,0c0,0.4,0,0.7,0,1.4c0,0.2,0,2,0,3C11.8,25.5,11.8,25.9,11.8,26.3L11.8,26.3z"/>
        	<path class="st0" d="M14.3,23c-0.3,0-0.4,0-0.5,0v1c0,0.2,0,0.5,0,0.7c0,0.4,0,0.8,0.4,0.8c0.1,0,0.2,0,0.2-0.1l0,0
        		c0,0.3,0,0.4,0,0.8l0,0.1c-0.2,0-0.4,0.1-0.6,0.1c-0.2,0-0.7,0-0.9-0.4c-0.2-0.3-0.2-0.6-0.2-1.2v-0.5c0-0.2,0-1.1,0-1.4
        		c-0.1,0-0.2,0-0.4,0l0,0c0-0.4,0-0.4,0-0.8l0,0c0.2,0,0.2,0,0.4,0c0-0.1,0-0.2,0-0.9l0,0c0.5-0.1,0.7-0.2,1.1-0.3l0,0
        		c0,0.3,0,0.4,0,1.3c0.3,0,0.3,0,0.6,0l0,0C14.4,22.6,14.4,22.7,14.3,23L14.3,23z"/>
        	<path class="st0" d="M16,26.3c-0.5,0-0.7,0-1.2,0l0,0c0-0.5,0-1,0-1.9c0-1.2,0-1.7-0.1-2.1l0,0c0.5-0.1,0.7-0.1,1.2-0.2l0,0
        		c0,0.1,0,0.2,0,0.3c0,0.5,0,0.9,0,1.4C16,24.6,16,25.4,16,26.3L16,26.3z M15.9,21.4c-0.5,0-0.6,0.1-1.1,0.2l0,0c0-0.4,0-0.5,0-0.9
        		l0,0c0.5,0,0.6-0.1,1.1-0.1l0,0C15.9,20.9,16,21,15.9,21.4L15.9,21.4z"/>
        	<path class="st1" d="M19.4,21.9c-0.2-0.2-0.4-0.4-0.9-0.4c-0.4,0-0.7,0.2-0.7,0.6c0,0.2,0.1,0.4,0.4,0.6c0.1,0.1,0.5,0.4,0.6,0.4
        		c0.5,0.3,0.9,0.7,0.9,1.5c0,0.5-0.2,0.9-0.4,1.2c-0.4,0.4-1,0.6-1.5,0.6c-0.3,0-0.8,0-1.2-0.2l0-0.1c0-0.2,0-0.3,0-0.5
        		c0-0.2,0-0.3,0-0.4l0.1,0c0.3,0.2,0.6,0.4,1,0.4c0.6,0,0.7-0.4,0.7-0.7c0-0.3-0.2-0.5-0.6-0.8l-0.3-0.2c-0.4-0.3-0.9-0.7-0.9-1.5
        		c0-0.6,0.2-0.9,0.4-1.2c0.4-0.4,0.9-0.4,1.3-0.4c0.4,0,0.8,0.1,1.2,0.2l0,0.1c0,0.2,0,0.3,0,0.5L19.4,21.9L19.4,21.9z"/>
        	<path class="st1" d="M22,26c-0.1,0.1-0.4,0.4-0.9,0.4c-0.6,0-1-0.4-1-1.3c0-1.2,1-1.4,2-1.6c0-0.3,0-0.6-0.6-0.6
        		c-0.5,0-0.8,0.2-1,0.3l0,0c0-0.4,0-0.4,0-0.8l0-0.1c0.4-0.2,1-0.2,1.3-0.2c0.3,0,0.9,0,1.2,0.5c0.2,0.3,0.2,0.7,0.2,1.3v0.6
        		c0,0.7,0,1.1,0.1,1.7l0,0c-0.5,0-0.6,0-1.1,0l0,0L22,26z M22,24.2c-0.3,0-0.8,0.1-0.8,0.8c0,0.3,0.2,0.5,0.4,0.5
        		c0.2,0,0.4-0.1,0.4-0.2L22,24.2z"/>
        	<path class="st1" d="M25.7,23c-0.2,0-0.4,0-0.5,0c0,1.8,0,2.6,0,3.2l0,0c-0.6,0-0.7,0-1.2,0l0,0c0-0.1,0-0.2,0-0.3c0-0.5,0-2.3,0-3
        		c-0.2,0-0.2,0-0.4,0l0,0c0-0.3,0-0.4,0-0.8l0,0c0.2,0,0.2,0,0.3,0c0-0.6,0-1.1,0.2-1.4c0.3-0.4,0.9-0.4,1.1-0.4c0.3,0,0.4,0,0.5,0
        		l0,0c0,0.3,0,0.4,0,0.8l0,0c0,0-0.1,0-0.2,0c-0.2,0-0.2,0.1-0.3,0.2c-0.1,0.1-0.1,0.3-0.1,0.8c0.2,0,0.3,0,0.5,0l0,0
        		C25.7,22.6,25.7,22.7,25.7,23L25.7,23z"/>
        	<path class="st1" d="M27.2,24.5c0,0.7,0.4,1,1,1c0.5,0,0.7-0.2,0.9-0.3l0,0c0,0.3,0,0.5,0,0.8l0,0.1c-0.2,0.1-0.7,0.2-1.1,0.2
        		c-1.3,0-1.9-0.9-1.9-2.2c0-0.3,0-0.6,0.1-0.9c0.2-0.9,0.9-1.3,1.6-1.3c0.2,0,0.4,0,0.7,0.1c0.7,0.3,0.9,1.1,0.9,1.8
        		c0,0.2,0,0.3,0,0.4l0,0L27.2,24.5z M28,23.7c0-0.1,0-0.2,0-0.4c0-0.2-0.2-0.5-0.4-0.5c-0.1,0-0.4,0-0.4,0.9L28,23.7z"/>
        	<path class="st1" d="M30.9,22.1c0,0.2,0,0.2,0,0.4c0.2-0.2,0.4-0.4,0.9-0.4c0.5,0,0.8,0.3,0.9,0.5C33,23,33,23.6,33,24
        		c0,0.6-0.1,1.8-1.2,2.2c-0.3,0.1-0.5,0.1-1,0.1c0,0.6,0,1.3,0,1.6l0,0c-0.2,0-0.3,0-0.4,0c-0.2,0-0.4,0-0.7,0l0,0
        		c0-0.6,0-1.2,0-1.9c0-1.2,0-2.5-0.1-3.7l0,0C30.2,22.2,30.4,22.1,30.9,22.1L30.9,22.1z M30.9,25.5c0,0,0.1,0,0.1,0h0.1
        		c0.7-0.1,0.7-1,0.7-1.4c0-0.2,0-0.6-0.1-0.8c0,0-0.1-0.3-0.4-0.3c-0.2,0-0.3,0.1-0.4,0.2C30.9,24,30.9,24.4,30.9,25.5"/>
        	<path class="st1" d="M35.3,26c-0.1,0.1-0.4,0.4-0.9,0.4c-0.6,0-1-0.4-1-1.3c0-1.2,1-1.4,2-1.6c0-0.3,0-0.6-0.6-0.6
        		c-0.5,0-0.8,0.2-1,0.3l0,0c0-0.4,0-0.4,0-0.8l0-0.1c0.4-0.2,1-0.2,1.3-0.2c0.3,0,0.9,0,1.2,0.5c0.2,0.3,0.2,0.7,0.2,1.3v0.6
        		c0,0.7,0,1.1,0.1,1.7l0,0c-0.5,0-0.6,0-1.1,0l0,0L35.3,26z M35.3,24.2c-0.3,0-0.8,0.1-0.8,0.8c0,0.3,0.2,0.5,0.4,0.5
        		c0.2,0,0.4-0.1,0.4-0.2L35.3,24.2L35.3,24.2z"/>
        	<path class="st1" d="M37.6,27.9c0.2-0.4,0.3-0.7,0.5-1.5c-0.4-1.2-1-3.2-1.3-4.2l0,0c0.6,0,0.7,0,1.2,0l0.1,0
        		c0.1,0.4,0.1,0.5,0.3,1.4l0.3,1.2l0.3-1.3c0.2-0.6,0.2-0.6,0.3-1.3l0,0c0.4,0,0.5,0,1,0l0,0c-0.2,0.6-0.2,0.8-0.7,2.3l-0.4,1.3
        		c-0.3,1.1-0.4,1.5-0.6,2.1l0,0C38.2,27.9,38.1,27.9,37.6,27.9L37.6,27.9z"/>
        	<path class="st2" d="M45.4,20c-0.3,0-0.6,0.2-0.6,0.6c0,0.3,0.2,0.6,0.6,0.6s0.6-0.2,0.6-0.6C45.9,20.3,45.7,20,45.4,20"/>
        	<path class="st2" d="M42.7,21.2c-0.2,0.2-0.2,0.6,0,0.8s0.6,0.2,0.8,0s0.2-0.6,0-0.8C43.2,20.9,42.9,20.9,42.7,21.2"/>
        	<path class="st2" d="M48.2,22c0.2-0.2,0.2-0.6,0-0.8s-0.6-0.2-0.8,0s-0.2,0.6,0,0.8C47.7,22.2,48,22.2,48.2,22"/>
        	<path class="st2" d="M42.1,23.4c-0.3,0-0.6,0.2-0.6,0.6c0,0.3,0.2,0.6,0.6,0.6c0.3,0,0.6-0.2,0.6-0.6
        		C42.6,23.6,42.4,23.4,42.1,23.4"/>
        	<path class="st2" d="M42.7,25.9c-0.2,0.2-0.2,0.6,0,0.8s0.6,0.2,0.8,0s0.2-0.6,0-0.8C43.2,25.7,42.9,25.7,42.7,25.9"/>
        	<path class="st2" d="M45.5,26.8c-0.3,0-0.6,0.2-0.6,0.6c0,0.3,0.2,0.6,0.6,0.6c0.3,0,0.6-0.2,0.6-0.6C46,27,45.8,26.8,45.5,26.8"/>
        	<path class="st2" d="M47.4,25.9c-0.2,0.2-0.2,0.6,0,0.8c0.2,0.2,0.6,0.2,0.8,0s0.2-0.6,0-0.8S47.7,25.7,47.4,25.9"/>
        	<path class="st2" d="M48.8,23.4c-0.3,0-0.6,0.2-0.6,0.6c0,0.3,0.2,0.6,0.6,0.6c0.3,0,0.6-0.2,0.6-0.6
        		C49.4,23.6,49.2,23.4,48.8,23.4"/>
        	<path class="st1" d="M0.6,29h0.3c0,0.1,0,0.2,0.1,0.2s0.2,0.1,0.3,0.1c0.1,0,0.2,0,0.3-0.1c0.1,0,0.1-0.1,0.1-0.2
        		c0-0.1,0-0.1-0.1-0.2c0,0-0.1-0.1-0.2-0.1l-0.3-0.1c-0.1,0-0.1,0-0.2-0.1c0,0-0.1,0-0.1-0.1c0,0-0.1-0.1-0.1-0.1c0,0,0-0.1,0-0.2
        		c0-0.1,0-0.2,0.1-0.3c0.1-0.1,0.1-0.1,0.2-0.2c0.1,0,0.2-0.1,0.3-0.1s0.2,0,0.3,0.1c0.1,0,0.2,0.1,0.2,0.2c0.1,0.1,0.1,0.2,0.1,0.3
        		H1.7c0-0.1,0-0.2-0.1-0.2c-0.1,0-0.2-0.1-0.3-0.1c-0.1,0-0.2,0-0.3,0.1c-0.1,0-0.1,0.1-0.1,0.2c0,0.1,0.1,0.2,0.2,0.2l0.3,0.1
        		c0.1,0,0.1,0,0.2,0c0,0,0.1,0,0.1,0.1c0,0,0.1,0.1,0.1,0.1c0,0,0,0.1,0.1,0.1c0,0,0,0.1,0,0.2c0,0.2-0.1,0.3-0.2,0.4
        		c-0.1,0.1-0.3,0.1-0.5,0.1c-0.1,0-0.2,0-0.2,0c-0.1,0-0.1,0-0.2-0.1c0,0-0.1-0.1-0.1-0.1c0,0-0.1-0.1-0.1-0.1
        		C0.6,29.1,0.6,29.1,0.6,29z"/>
        	<path class="st1" d="M2.3,29.5v-1.4h0.3v0.2h0c0,0,0.1-0.1,0.1-0.1c0.1,0,0.1-0.1,0.2-0.1c0.1,0,0.2,0,0.2,0.1
        		c0.1,0,0.1,0.1,0.1,0.2h0c0-0.1,0.1-0.1,0.2-0.2c0.1,0,0.2-0.1,0.3-0.1c0.1,0,0.2,0,0.3,0.1s0.1,0.2,0.1,0.3v0.9H3.9v-0.9
        		c0-0.1,0-0.2-0.1-0.2c0,0-0.1-0.1-0.2-0.1c-0.1,0-0.2,0-0.2,0.1c0,0.1-0.1,0.1-0.1,0.2v0.9H3.1v-0.9c0-0.1,0-0.2-0.1-0.2
        		c0,0-0.1-0.1-0.2-0.1s-0.2,0-0.2,0.1c0,0-0.1,0.1-0.1,0.2v0.9L2.3,29.5L2.3,29.5z"/>
        	<path class="st1" d="M5.3,29.3c0,0.1-0.1,0.1-0.2,0.2c-0.1,0-0.2,0.1-0.2,0.1c-0.1,0-0.2,0-0.3-0.1c-0.1-0.1-0.1-0.2-0.1-0.3
        		s0-0.2,0.1-0.3c0.1-0.1,0.2-0.1,0.4-0.1h0.4v-0.2c0-0.2-0.1-0.2-0.3-0.2c-0.2,0-0.2,0.1-0.3,0.2H4.5c0-0.1,0-0.2,0.1-0.3
        		c0.1-0.1,0.2-0.1,0.4-0.1s0.3,0,0.4,0.1c0.1,0.1,0.1,0.2,0.1,0.3v0.9H5.3L5.3,29.3L5.3,29.3z M5,29.3c0.1,0,0.2,0,0.2-0.1
        		c0.1,0,0.1-0.1,0.1-0.2v-0.1H5c-0.1,0-0.2,0-0.2,0c0,0-0.1,0.1-0.1,0.2c0,0.1,0,0.1,0.1,0.2C4.9,29.3,4.9,29.3,5,29.3z"/>
        	<path class="st1" d="M6,29.5v-1.4h0.3v0.2l0,0c0,0,0,0,0-0.1c0,0,0,0,0.1-0.1c0,0,0.1,0,0.1,0c0,0,0.1,0,0.1,0c0,0,0.1,0,0.1,0v0.2
        		c0,0-0.1,0-0.1,0c-0.2,0-0.3,0.1-0.3,0.3v0.8H6z"/>
        	<path class="st1" d="M7.1,28.1v-0.3h0.3v0.3h0.3v0.2H7.3v0.8c0,0.1,0,0.1,0,0.2s0.1,0,0.2,0c0,0,0,0,0.1,0v0.2c0,0-0.1,0-0.1,0
        		c-0.1,0-0.2,0-0.2,0c0,0-0.1,0-0.1-0.1c0,0,0-0.1-0.1-0.1c0,0,0-0.1,0-0.2v-0.8H6.9v-0.2L7.1,28.1L7.1,28.1z"/>
        	<path class="st1" d="M8.4,27.7h0.7c0.2,0,0.3,0,0.4,0.2c0.1,0.1,0.2,0.2,0.2,0.4c0,0.2,0,0.3-0.2,0.4c-0.1,0.1-0.2,0.2-0.4,0.2H8.7
        		v0.7H8.4V27.7z M8.7,27.9v0.7h0.2c0.1,0,0.1,0,0.2,0c0,0,0.1,0,0.1,0c0,0,0.1-0.1,0.1-0.1c0,0,0-0.1,0-0.2c0-0.1,0-0.2-0.1-0.2
        		c-0.1-0.1-0.1-0.1-0.2-0.1L8.7,27.9L8.7,27.9z"/>
        	<path class="st1" d="M10.7,29.3c0,0.1-0.1,0.1-0.2,0.2c-0.1,0-0.2,0.1-0.2,0.1c-0.1,0-0.2,0-0.3-0.1c-0.1-0.1-0.1-0.2-0.1-0.3
        		s0-0.2,0.1-0.3c0.1-0.1,0.2-0.1,0.4-0.1h0.4v-0.2c0-0.2-0.1-0.2-0.3-0.2c-0.2,0-0.2,0.1-0.3,0.2H9.9c0-0.1,0-0.2,0.1-0.3
        		c0.1-0.1,0.2-0.1,0.4-0.1s0.3,0,0.4,0.1c0.1,0.1,0.1,0.2,0.1,0.3v0.9h-0.2L10.7,29.3L10.7,29.3z M10.4,29.3c0.1,0,0.2,0,0.2-0.1
        		c0.1,0,0.1-0.1,0.1-0.2v-0.1h-0.3c-0.1,0-0.2,0-0.2,0c0,0-0.1,0.1-0.1,0.2c0,0.1,0,0.1,0.1,0.2C10.2,29.3,10.3,29.3,10.4,29.3z"/>
        	<path class="st1" d="M12.4,28.1C12.1,29,12,29.5,12,29.5l0,0.1c0,0,0,0.1,0,0.1s0,0.1-0.1,0.1c0,0-0.1,0.1-0.1,0.1s-0.1,0-0.1,0.1
        		c0,0-0.1,0-0.2,0c0,0-0.1,0-0.2,0v-0.2c0,0,0.1,0,0.1,0c0.1,0,0.1,0,0.2,0c0,0,0.1-0.1,0.1-0.2l0-0.1l-0.5-1.4h0.3l0.3,1.1h0
        		l0.4-1.1L12.4,28.1L12.4,28.1z"/>
        	<path class="st1" d="M12.7,29.5v-1.4H13v0.2h0c0,0,0.1-0.1,0.1-0.1c0.1,0,0.1-0.1,0.2-0.1c0.1,0,0.2,0,0.2,0.1
        		c0.1,0,0.1,0.1,0.1,0.2h0c0-0.1,0.1-0.1,0.2-0.2c0.1,0,0.2-0.1,0.3-0.1c0.1,0,0.2,0,0.3,0.1c0.1,0.1,0.1,0.2,0.1,0.3v0.9h-0.3v-0.9
        		c0-0.1,0-0.2-0.1-0.2c0,0-0.1-0.1-0.2-0.1c-0.1,0-0.2,0-0.2,0.1c0,0.1-0.1,0.1-0.1,0.2v0.9h-0.3v-0.9c0-0.1,0-0.2-0.1-0.2
        		c0,0-0.1-0.1-0.2-0.1c-0.1,0-0.2,0-0.2,0.1c0,0-0.1,0.1-0.1,0.2v0.9L12.7,29.5L12.7,29.5z"/>
        	<path class="st1" d="M15.5,29.5c-0.2,0-0.3-0.1-0.4-0.2c-0.1-0.1-0.2-0.3-0.2-0.5v-0.1c0-0.2,0-0.4,0.2-0.5
        		c0.1-0.1,0.2-0.2,0.4-0.2s0.3,0.1,0.4,0.2c0.1,0.1,0.2,0.3,0.2,0.5v0.1h-0.9v0c0,0.1,0,0.2,0.1,0.3c0.1,0.1,0.1,0.1,0.2,0.1
        		c0.1,0,0.2,0,0.2,0c0,0,0.1-0.1,0.1-0.1h0.3c0,0,0,0.1,0,0.1c0,0,0,0.1-0.1,0.1c0,0-0.1,0.1-0.2,0.1C15.7,29.5,15.6,29.5,15.5,29.5
        		z M15.2,28.7h0.7l0,0c0-0.1,0-0.2-0.1-0.3c-0.1-0.1-0.1-0.1-0.2-0.1c-0.1,0-0.2,0-0.2,0.1S15.2,28.6,15.2,28.7L15.2,28.7z"/>
        	<path class="st1" d="M16.4,29.5v-1.4h0.3v0.2l0,0c0-0.1,0.1-0.1,0.1-0.2c0.1,0,0.2-0.1,0.2-0.1c0.1,0,0.3,0,0.4,0.1
        		c0.1,0.1,0.1,0.2,0.1,0.4v0.9h-0.3v-0.8c0-0.2-0.1-0.3-0.3-0.3c-0.1,0-0.2,0-0.2,0.1c0,0.1-0.1,0.2-0.1,0.3v0.8L16.4,29.5
        		L16.4,29.5z"/>
        	<path class="st1" d="M18,28.1v-0.3h0.3v0.3h0.3v0.2h-0.3v0.8c0,0.1,0,0.1,0,0.2s0.1,0,0.2,0c0,0,0,0,0.1,0v0.2c0,0-0.1,0-0.1,0
        		c-0.1,0-0.2,0-0.2,0c0,0-0.1,0-0.1-0.1c0,0,0-0.1-0.1-0.1c0,0,0-0.1,0-0.2v-0.8h-0.2v-0.2L18,28.1L18,28.1z"/>
        	<path class="st1" d="M19.2,29h0.3c0,0.1,0,0.2,0.1,0.2s0.2,0.1,0.3,0.1c0.1,0,0.2,0,0.3-0.1c0.1,0,0.1-0.1,0.1-0.2
        		c0-0.1,0-0.1-0.1-0.2c0,0-0.1-0.1-0.2-0.1l-0.3-0.1c-0.1,0-0.1,0-0.2-0.1c0,0-0.1,0-0.1-0.1c0,0-0.1-0.1-0.1-0.1s0-0.1,0-0.2
        		c0-0.1,0-0.2,0.1-0.3s0.1-0.1,0.2-0.2c0.1,0,0.2-0.1,0.3-0.1s0.2,0,0.3,0.1c0.1,0,0.2,0.1,0.2,0.2c0.1,0.1,0.1,0.2,0.1,0.3h-0.3
        		c0-0.1,0-0.2-0.1-0.2c-0.1,0-0.2-0.1-0.3-0.1c-0.1,0-0.2,0-0.3,0.1c-0.1,0-0.1,0.1-0.1,0.2c0,0.1,0.1,0.2,0.2,0.2l0.3,0.1
        		c0.1,0,0.1,0,0.2,0s0.1,0,0.1,0.1c0,0,0.1,0.1,0.1,0.1c0,0,0,0.1,0.1,0.1c0,0,0,0.1,0,0.2c0,0.2-0.1,0.3-0.2,0.4
        		c-0.1,0.1-0.3,0.1-0.5,0.1c-0.1,0-0.2,0-0.2,0c-0.1,0-0.1,0-0.2-0.1c0,0-0.1-0.1-0.1-0.1s-0.1-0.1-0.1-0.1
        		C19.2,29.1,19.2,29.1,19.2,29z"/>
        	<path class="st1" d="M21.4,29.5c-0.2,0-0.3-0.1-0.4-0.2c-0.1-0.1-0.2-0.3-0.2-0.5v-0.1c0-0.2,0-0.4,0.2-0.5
        		c0.1-0.1,0.2-0.2,0.4-0.2c0.2,0,0.3,0.1,0.4,0.2s0.2,0.3,0.2,0.5v0.1h-0.9v0c0,0.1,0,0.2,0.1,0.3c0.1,0.1,0.1,0.1,0.2,0.1
        		c0.1,0,0.2,0,0.2,0c0,0,0.1-0.1,0.1-0.1H22c0,0,0,0.1,0,0.1c0,0,0,0.1-0.1,0.1c0,0-0.1,0.1-0.2,0.1C21.6,29.5,21.5,29.5,21.4,29.5z
        		 M21.1,28.7h0.7l0,0c0-0.1,0-0.2-0.1-0.3c-0.1-0.1-0.1-0.1-0.2-0.1s-0.2,0-0.2,0.1S21.1,28.6,21.1,28.7L21.1,28.7z"/>
        	<path class="st1" d="M22.3,29.5v-1.4h0.3v0.2l0,0c0,0,0,0,0-0.1c0,0,0,0,0.1-0.1c0,0,0.1,0,0.1,0c0,0,0.1,0,0.1,0c0,0,0.1,0,0.1,0
        		v0.2c0,0-0.1,0-0.1,0c-0.2,0-0.3,0.1-0.3,0.3v0.8H22.3z"/>
        	<path class="st1" d="M23.6,29.5l-0.5-1.4h0.3l0.3,1.1l0,0l0.4-1.1h0.3l-0.5,1.4H23.6z"/>
        	<path class="st1" d="M24.7,27.9c0,0,0-0.1,0-0.1s0-0.1,0-0.1s0.1,0,0.1,0s0.1,0,0.1,0s0,0.1,0,0.1s0,0.1,0,0.1s-0.1,0-0.1,0
        		C24.7,27.9,24.7,27.9,24.7,27.9z M24.6,29.5v-1.4h0.3v1.4H24.6z"/>
        	<path class="st1" d="M25.2,28.9v-0.2c0-0.2,0-0.3,0.2-0.4s0.2-0.2,0.4-0.2c0.2,0,0.3,0,0.4,0.1c0.1,0.1,0.1,0.2,0.2,0.3h-0.2
        		c0-0.1,0-0.1-0.1-0.2c0,0-0.1-0.1-0.2-0.1c-0.1,0-0.2,0-0.2,0.1c0,0.1-0.1,0.2-0.1,0.3v0.1c0,0.1,0,0.2,0.1,0.3
        		c0.1,0.1,0.1,0.1,0.2,0.1c0.1,0,0.2,0,0.2,0c0,0,0.1-0.1,0.1-0.1h0.2c0,0.1-0.1,0.2-0.2,0.3c-0.1,0.1-0.2,0.1-0.4,0.1
        		c-0.2,0-0.3-0.1-0.4-0.2C25.3,29.2,25.2,29.1,25.2,28.9z"/>
        	<path class="st1" d="M27.2,29.5c-0.2,0-0.3-0.1-0.4-0.2c-0.1-0.1-0.2-0.3-0.2-0.5v-0.1c0-0.2,0-0.4,0.2-0.5s0.2-0.2,0.4-0.2
        		c0.2,0,0.3,0.1,0.4,0.2c0.1,0.1,0.2,0.3,0.2,0.5v0.1h-0.9v0c0,0.1,0,0.2,0.1,0.3c0.1,0.1,0.1,0.1,0.2,0.1c0.1,0,0.2,0,0.2,0
        		c0,0,0.1-0.1,0.1-0.1h0.3c0,0,0,0.1,0,0.1c0,0,0,0.1-0.1,0.1c0,0-0.1,0.1-0.2,0.1C27.4,29.5,27.3,29.5,27.2,29.5z M26.9,28.7h0.7
        		l0,0c0-0.1,0-0.2-0.1-0.3c-0.1-0.1-0.1-0.1-0.2-0.1s-0.2,0-0.2,0.1C26.9,28.5,26.9,28.6,26.9,28.7L26.9,28.7z"/>
        	<path class="st1" d="M28,28.5c0-0.1,0-0.1,0-0.2c0,0,0.1-0.1,0.1-0.1c0,0,0.1-0.1,0.2-0.1c0.1,0,0.1,0,0.2,0c0.2,0,0.3,0,0.4,0.1
        		c0.1,0.1,0.1,0.2,0.1,0.3h-0.2c0-0.1,0-0.1-0.1-0.2c0,0-0.1-0.1-0.2-0.1s-0.1,0-0.2,0c0,0-0.1,0.1-0.1,0.2c0,0,0,0,0,0.1
        		c0,0,0,0,0,0c0,0,0,0,0.1,0c0,0,0.1,0,0.1,0c0,0,0,0,0.1,0c0,0,0,0,0,0l0,0c0,0,0,0,0,0c0.1,0,0.1,0,0.2,0c0,0,0.1,0,0.1,0
        		s0.1,0,0.1,0.1c0,0,0,0.1,0.1,0.1c0,0,0,0.1,0,0.1c0,0.1,0,0.2-0.2,0.3c-0.1,0.1-0.2,0.1-0.4,0.1c-0.2,0-0.3,0-0.4-0.1
        		c-0.1-0.1-0.1-0.2-0.1-0.3h0.2c0,0.1,0,0.1,0.1,0.2c0,0,0.1,0,0.2,0s0.2,0,0.2-0.1c0,0,0.1-0.1,0.1-0.2c0-0.1,0-0.1-0.1-0.2
        		c0,0-0.1,0-0.2-0.1c-0.1,0-0.1,0-0.2,0c0,0-0.1,0-0.1,0s-0.1,0-0.1-0.1C28.1,28.6,28.1,28.6,28,28.5C28,28.6,28,28.6,28,28.5z"/>
        </symbol>
        <symbol id="mollie">
            <path class="cls-1" d="M29.1397289,17.2784173 C26.9697185,17.2784173 25.2105422,15.5194245 25.2105422,13.3496403 C25.2105422,11.1798561 26.9697185,9.42086331 29.1397289,9.42086331 C31.3097393,9.42086331 33.0689155,11.1798561 33.0689155,13.3496403 C33.0689155,15.5194245 31.3097393,17.2784173 29.1397289,17.2784173 L29.1397289,17.2784173 Z M29.1397289,6.71366906 C25.4745985,6.71366906 22.5030657,9.68489209 22.5030657,13.3496403 C22.5030657,17.0143885 25.4745985,19.9856115 29.1397289,19.9856115 C32.8048592,19.9856115 35.7763921,17.0143885 35.7763921,13.3496403 C35.7763921,9.68489209 32.8048592,6.71366906 29.1397289,6.71366906 L29.1397289,6.71366906 Z"/>
            <path class="cls-1" d="M54.0344108,1.87052518 C54.0344108,2.90354676 53.1968415,3.74102878 52.1637122,3.74102878 C51.1305829,3.74102878 50.2930136,2.90354676 50.2930136,1.87052518 C50.2930136,0.837503597 51.1305829,2.15827338e-05 52.1637122,2.15827338e-05 C53.1968415,2.15827338e-05 54.0344108,0.837503597 54.0344108,1.87052518"/>
            <path class="cls-1" d="M20.2179353,12.5127266 L20.2179353,19.7020791 L17.4838373,19.7020791 L17.4838373,12.4164676 C17.4731168,10.7792734 16.1292357,9.4367554 14.488561,9.42236691 C12.8119114,9.40761871 11.4400417,10.8216475 11.4400417,12.4982662 L11.4400417,19.7020791 L8.70594369,19.7020791 L8.70594369,12.4358921 C8.69522315,10.7907122 7.35724192,9.44704317 5.71750261,9.43171942 C4.03703962,9.41596403 2.66214807,10.8326547 2.66214807,12.5130144 L2.66214807,19.7020791 L0,19.7020791 L0,12.4164676 C0,9.2567554 2.55997914,6.70064029 5.72074035,6.70064029 C7.47272158,6.70064029 9.04036705,7.49416547 10.0908363,8.73445324 C10.0922753,8.73589209 10.0893973,8.73589209 10.0908363,8.73445324 C11.1744025,7.45215108 12.8245746,6.64596403 14.6454838,6.69797842 C17.7623556,6.78711511 20.2179353,9.39495683 20.2179353,12.5127266"/>
            <polygon class="cls-1" points="38.1334724 19.7122302 40.8675704 19.7122302 40.8675704 0.327194245 38.1334724 0.327194245"></polygon>
            <polygon class="cls-1" points="44.4650678 19.7122302 47.1991658 19.7122302 47.1991658 0.327194245 44.4650678 0.327194245"></polygon>
            <polygon class="cls-1" points="50.7966632 19.7018705 53.5307612 19.7018705 53.5307612 7.04 50.7966632 7.04"></polygon>
            <path class="cls-1" d="M62.6059304,9.13030216 C64.4233861,9.13030216 65.942969,10.4051223 66.3199868,12.1087194 L58.8918741,12.1087194 C59.2688919,10.4051223 60.7884748,9.13030216 62.6059304,9.13030216 M62.6573027,6.69634532 C59.0593017,6.74296403 56.153675,9.65310791 56.1112965,13.2518129 C56.0679106,16.9270647 59.0683674,19.9653381 62.7442182,19.9677122 C65.1736802,19.969295 67.298506,18.665482 68.4561088,16.7196547 C68.4577636,16.7169209 68.4566844,16.7132518 68.4537344,16.7118129 L66.239115,15.6216691 C65.537603,16.7828201 64.2635133,17.5590791 62.8079659,17.5590791 C60.8394153,17.5590791 59.2026979,16.1389353 58.8659722,14.2669928 L68.9999784,14.2669928 L68.9999784,13.0353381 C68.9999784,9.54720863 66.1455081,6.65109353 62.6573027,6.69634532"/>
        </symbol>

        <symbol id="visa">
            <path class="cls-1" d="M21.74 32.7h-4.01l2.51-15.39h4l-2.5 15.39zM45.88 32.7h3.68l-3.21-15.39h-3.22a1.84 1.84 0 0 0-1.85 1.15l-6 14.25h4.18l.84-2.29h5.09zm-4.41-5.44l2.11-5.76 1.19 5.76zM35.62 21l.57-3.31a11.58 11.58 0 0 0-3.6-.67c-2 0-6.71.87-6.71 5.1 0 4 5.54 4 5.54 6.11s-5 1.72-6.61.4l-.6 3.45a11.22 11.22 0 0 0 4.52.87c2.73 0 6.86-1.42 6.86-5.27s-5.59-4.36-5.59-6.1 3.9-1.51 5.62-.58zM14.36 17.31l-3.82 10.59-.45-2.28a12 12 0 0 0-3.69-5.06 15.36 15.36 0 0 0-1.75-1.22l3.47 13.36h4.18l6.38-15.39z"/>
            <path class="cls-2" d="M4.56 19.29h.08zM10.09 25.62l-1.35-6.92a1.71 1.71 0 0 0-1.9-1.39h-6.32l-.07.26h.07l.23.06.34.1.48.16h.07c.36.13.78.29 1.24.5h.1l.72.35h.06l.71.4h.08a15.36 15.36 0 0 1 1.85 1.42 12 12 0 0 1 3.69 5.06z"/>
        </symbol>
        <symbol id="paypal">
            <path class="cls-1" d="M11.58 30.65h-2.74a.38.38 0 0 0-.38.32l-1.11 7.03a.23.23 0 0 0 .23.26h1.31a.38.38 0 0 0 .37-.26l.3-1.9a.38.38 0 0 1 .38-.32h.87a2.82 2.82 0 0 0 3.13-2.61 2.12 2.12 0 0 0-.35-1.77 2.55 2.55 0 0 0-2.01-.75zm.32 2.57c-.15 1-.9 1-1.63 1h-.42l.29-1.84a.23.23 0 0 1 .23-.19h.19c.5 0 1 0 1.21.28a.92.92 0 0 1 .13.75zM19.79 33.19h-1.31a.23.23 0 0 0-.23.19l-.06.37-.09-.13a1.87 1.87 0 0 0-1.55-.55 3 3 0 0 0-2.94 2.64 2.48 2.48 0 0 0 .49 2 2.06 2.06 0 0 0 1.66.67 2.52 2.52 0 0 0 1.82-.75l-.06.37a.23.23 0 0 0 .23.27h1.18a.38.38 0 0 0 .38-.32l.71-4.5a.23.23 0 0 0-.23-.26zm-1.79 2.56a1.47 1.47 0 0 1-1.53 1.25 1 1 0 0 1-1.09-1.28 1.47 1.47 0 0 1 1.47-1.27 1.11 1.11 0 0 1 .88.36 1.14 1.14 0 0 1 .27.94zM26.8 33.19h-1.33a.38.38 0 0 0-.32.17l-1.81 2.64-.77-2.58a.38.38 0 0 0-.37-.27h-1.3a.23.23 0 0 0-.22.3l1.46 4.27-1.37 1.98a.23.23 0 0 0 .19.36h1.32a.38.38 0 0 0 .31-.16l4.41-6.35a.23.23 0 0 0-.2-.36z"/><path class="cls-2" d="M31.17 30.65h-2.74a.38.38 0 0 0-.43.35l-1.11 7a.23.23 0 0 0 .23.26h1.41a.27.27 0 0 0 .26-.23l.32-2a.38.38 0 0 1 .38-.32h.87a2.82 2.82 0 0 0 3.13-2.61 2.11 2.11 0 0 0-.35-1.77 2.55 2.55 0 0 0-1.97-.68zm.32 2.57c-.15 1-.9 1-1.63 1h-.41l.29-1.84a.23.23 0 0 1 .23-.19h.19c.5 0 1 0 1.21.28a.92.92 0 0 1 .12.75zM39.38 33.19h-1.31a.23.23 0 0 0-.23.19l-.06.37-.09-.13a1.87 1.87 0 0 0-1.55-.55 3 3 0 0 0-2.94 2.64 2.48 2.48 0 0 0 .49 2 2.06 2.06 0 0 0 1.66.67 2.52 2.52 0 0 0 1.82-.75l-.06.37a.23.23 0 0 0 .23.27h1.18a.38.38 0 0 0 .38-.27l.71-4.5a.23.23 0 0 0-.23-.31zm-1.83 2.56a1.47 1.47 0 0 1-1.49 1.25 1 1 0 0 1-1.06-1.27 1.47 1.47 0 0 1 1.47-1.27 1.11 1.11 0 0 1 .88.36 1.13 1.13 0 0 1 .2.93zM40.93 30.84l-1.13 7.16a.23.23 0 0 0 .23.26h1.13a.38.38 0 0 0 .38-.32l1.11-7a.23.23 0 0 0-.23-.26h-1.26a.23.23 0 0 0-.23.16z"/><path class="cls-1" d="M21.7 27.45l.31-2h-4.01l2.3-14.68a.19.19 0 0 1 .06-.11.19.19 0 0 1 .12 0h5.62c1.86 0 3.15.39 3.82 1.15a2.63 2.63 0 0 1 .61 1.15 4.14 4.14 0 0 1 0 1.58v.45l.31.18a2.21 2.21 0 0 1 .64.49 2.26 2.26 0 0 1 .52 1.11 4.91 4.91 0 0 1-.07 1.68 5.93 5.93 0 0 1-.69 1.9 3.92 3.92 0 0 1-1.09 1.2 4.43 4.43 0 0 1-1.47.66 7.34 7.34 0 0 1-1.84.21h-.44a1.31 1.31 0 0 0-1.3 1.11v.18l-.55 3.5v.13a.11.11 0 0 1 0 .07h-.06z"/><path class="cls-2" d="M31.14 14.59q0 .16-.06.33c-.74 3.8-3.27 5.11-6.51 5.11h-1.64a.8.8 0 0 0-.79.68l-.84 5.35-.24 1.52a.42.42 0 0 0 .42.49h2.92a.7.7 0 0 0 .69-.59v-.15l.55-3.49v-.19a.7.7 0 0 1 .69-.59h.44c2.83 0 5-1.15 5.69-4.47a3.81 3.81 0 0 0-.59-3.36 2.79 2.79 0 0 0-.73-.64z"/><path class="cls-3" d="M30.37 14.28l-.37-.09-.37-.07a9.15 9.15 0 0 0-1.44-.12h-4.4a.7.7 0 0 0-.69.59l-.94 5.93v.17a.8.8 0 0 1 .79-.68h1.65c3.23 0 5.77-1.31 6.51-5.11 0-.11 0-.22.06-.33a4 4 0 0 0-.61-.26z"/><path class="cls-1" d="M23.1 14.61a.7.7 0 0 1 .69-.59h4.4a9.15 9.15 0 0 1 1.45.11l.37.07.35.09.17.05a4 4 0 0 1 .61.26 3.59 3.59 0 0 0-.76-3.23c-.84-.96-2.38-1.37-4.28-1.37h-5.62a.8.8 0 0 0-.79.68l-2.34 14.82a.48.48 0 0 0 .48.56h3.47l.87-5.52z"/>
        </symbol>
        <symbol id="maestro">
            <path d="M1.28 10h47.44v30h-47.44z"/>
            <path class="cls-1" d="M20.56 14.27h8.88v16h-8.88z"/>
            <path class="cls-2" d="M21.12 22.25a10.13 10.13 0 0 1 3.88-8 10.15 10.15 0 1 0 0 16 10.13 10.13 0 0 1-3.88-8z"/>
            <path class="cls-3" d="M40.46 28.54v-.33h.13v-.07h-.34v.07h.13v.33zm.65 0v-.39h-.11l-.12.28-.12-.28h-.1v.39h.07v-.3l.11.26h.08l.11-.26v.3zm.31-6.29a10.15 10.15 0 0 1-16.42 8 10.15 10.15 0 0 0 0-16 10.15 10.15 0 0 1 16.42 8z"/>
            <path class="cls-4" d="M32.64 34.74a1.28 1.28 0 0 1 .43.08l-.19.57a1 1 0 0 0-.38-.07c-.39 0-.59.25-.59.71v1.55h-.6v-2.77h.6v.34a.82.82 0 0 1 .73-.41zm-2.22.62h-1v1.24c0 .28.1.46.4.46a1.11 1.11 0 0 0 .53-.16l.17.51a1.41 1.41 0 0 1-.75.21c-.71 0-1-.38-1-1v-1.26h-.56v-.55h.56v-.81h.61v.84h1v.55zm-7.7.59a.71.71 0 0 1 .73-.67.69.69 0 0 1 .7.67zm2.06.24a1.33 1.33 0 0 0-1.31-1.45 1.45 1.45 0 0 0 0 2.9 1.68 1.68 0 0 0 1.13-.39l-.3-.45a1.31 1.31 0 0 1-.8.29.77.77 0 0 1-.83-.68h2.05v-.23zm2.64-.68a1.77 1.77 0 0 0-.86-.24c-.33 0-.53.12-.53.32s.21.24.47.27h.28c.6.09 1 .34 1 .83s-.46.9-1.26.9a2 2 0 0 1-1.2-.36l.28-.47a1.47 1.47 0 0 0 .92.29c.41 0 .63-.12.63-.34s-.16-.24-.49-.29h-.28c-.62-.09-1-.36-1-.82s.45-.88 1.15-.88a2.07 2.07 0 0 1 1.13.29l-.26.49zm7.42-.2a.91.91 0 0 0-.34.06.83.83 0 0 0-.28.18.85.85 0 0 0-.18.28 1 1 0 0 0 0 .72.85.85 0 0 0 .18.28.83.83 0 0 0 .28.18.95.95 0 0 0 .69 0 .83.83 0 0 0 .28-.18.84.84 0 0 0 .18-.28 1 1 0 0 0 0-.72.84.84 0 0 0-.18-.28.83.83 0 0 0-.28-.18.91.91 0 0 0-.34-.06zm0-.57a1.56 1.56 0 0 1 .6.11 1.45 1.45 0 0 1 .47.31 1.41 1.41 0 0 1 .31.46 1.54 1.54 0 0 1 0 1.16 1.41 1.41 0 0 1-.31.46 1.46 1.46 0 0 1-.47.31 1.65 1.65 0 0 1-1.19 0 1.44 1.44 0 0 1-.47-.31 1.43 1.43 0 0 1-.31-.46 1.54 1.54 0 0 1 0-1.16 1.41 1.41 0 0 1 .78-.77 1.56 1.56 0 0 1 .6-.11zm-15.64 1.45a.84.84 0 1 1 .84.88.83.83 0 0 1-.84-.88zm2.24 0v-1.38h-.6v.34a1 1 0 0 0-.87-.41 1.45 1.45 0 0 0 0 2.9 1 1 0 0 0 .87-.41v.34h.6zm-3.39 1.38v-1.73a1 1 0 0 0-1.05-1.1 1.07 1.07 0 0 0-1 .49 1 1 0 0 0-.91-.49.91.91 0 0 0-.81.41v-.34h-.6v2.76h.61v-1.57a.65.65 0 0 1 .71-.7c.4 0 .6.26.6.73v1.54h.61v-1.57a.65.65 0 0 1 .68-.73c.41 0 .61.26.61.73v1.54z"/>
        </symbol>
        <symbol id="bancontact">
            <path class="cls-1" d="M43.7 15.23h-15l-1.52 1.72-4.94 5.57-1.52 1.72h-14.78l1.5-1.74.71-.82 1.5-1.74h-6.81a2.3 2.3 0 0 0-2.27 2.32v4.9a2.3 2.3 0 0 0 2.26 2.32h26.09a5.76 5.76 0 0 0 3.78-1.72l3.95-4.49z"/><path class="cls-2" d="M46.71 10a2.3 2.3 0 0 1 2.29 2.32v4.9a2.3 2.3 0 0 1-2.26 2.32h-6.82l1.51-1.72.75-.85 1.51-1.72h-15l-8 9h-14.84l10.67-12.07.4-.46a5.78 5.78 0 0 1 3.78-1.72h26z"/><path class="cls-1" d="M49 39.74v-.74q0-.16-.19-.16h-.45q-.21 0-.26-.08a.84.84 0 0 1 0-.36v-2.64h.76a.18.18 0 0 0 .13-.06.18.18 0 0 0 .06-.13v-.75a.18.18 0 0 0-.06-.13.18.18 0 0 0-.13-.06h-.86v-1a.15.15 0 0 0 0-.12.17.17 0 0 0-.12 0l-1.12.19a.32.32 0 0 0-.13.06.15.15 0 0 0-.05.12v.76h-.74a.21.21 0 0 0-.19.19v.61a.16.16 0 0 0 .06.12.33.33 0 0 0 .13.07l.74.12v2.67a2.63 2.63 0 0 0 .1.8 1.1 1.1 0 0 0 .29.48 1 1 0 0 0 .48.24 3.3 3.3 0 0 0 .66.06h.36l.37-.05q.17 0 .18-.18m-4-.09v-.82a.14.14 0 0 0-.05-.12.19.19 0 0 0-.12 0h-1.12a.85.85 0 0 1-.3-.05.55.55 0 0 1-.24-.18.93.93 0 0 1-.16-.33 1.86 1.86 0 0 1-.06-.51v-.77a1.86 1.86 0 0 1 .06-.51.93.93 0 0 1 .16-.33.55.55 0 0 1 .24-.18.85.85 0 0 1 .3-.05h1.12a.19.19 0 0 0 .12 0 .14.14 0 0 0 .05-.12v-.82a.19.19 0 0 0 0-.14.37.37 0 0 0-.15-.07l-.5-.09a5 5 0 0 0-.72 0 2.09 2.09 0 0 0-1.56.6 2.38 2.38 0 0 0-.59 1.73v.77a2.38 2.38 0 0 0 .5 1.71 2.08 2.08 0 0 0 1.56.6 5 5 0 0 0 .72 0l.5-.09a.36.36 0 0 0 .15-.07.18.18 0 0 0 0-.14m-6-1a2.44 2.44 0 0 1-.36.14 1.31 1.31 0 0 1-.4.06.9.9 0 0 1-.44-.08q-.14-.08-.14-.38v-.08a1.07 1.07 0 0 1 0-.3.44.44 0 0 1 .13-.21.59.59 0 0 1 .25-.12 1.59 1.59 0 0 1 .4 0h.63zm1.47-2.23a2.19 2.19 0 0 0-.15-.86 1.5 1.5 0 0 0-.43-.58 1.77 1.77 0 0 0-.68-.33 3.52 3.52 0 0 0-.9-.11 6.18 6.18 0 0 0-.9.06q-.44.06-.7.13a.2.2 0 0 0-.18.2v.75a.16.16 0 0 0 0 .13.19.19 0 0 0 .12 0h1.53a.92.92 0 0 1 .51.12q.18.12.18.52v.33h-.5a3.1 3.1 0 0 0-1.73.37 1.34 1.34 0 0 0-.54 1.19v.08a1.88 1.88 0 0 0 .13.76 1.31 1.31 0 0 0 .36.49 1.33 1.33 0 0 0 .5.26 2.17 2.17 0 0 0 .59.08 2.07 2.07 0 0 0 .71-.11 2.36 2.36 0 0 0 .57-.3v.15a.19.19 0 0 0 .18.18h1a.19.19 0 0 0 .18-.18zm-4.92 3.3v-.77q0-.16-.19-.16h-.45q-.21 0-.26-.08a.84.84 0 0 1 0-.36v-2.64h.76a.18.18 0 0 0 .13-.06.18.18 0 0 0 .06-.13v-.75a.18.18 0 0 0-.06-.13.18.18 0 0 0-.13-.06h-.76v-1a.15.15 0 0 0 0-.12.17.17 0 0 0-.12 0l-1.12.19a.32.32 0 0 0-.13.06.15.15 0 0 0-.05.12v.76h-.74a.21.21 0 0 0-.19.19v.61a.16.16 0 0 0 .06.12.33.33 0 0 0 .13.07l.74.12v2.67a2.63 2.63 0 0 0 .1.8 1.1 1.1 0 0 0 .29.48 1 1 0 0 0 .48.24 3.3 3.3 0 0 0 .66.06h.31l.37-.05q.18 0 .18-.18m-4 0v-3.12a4.6 4.6 0 0 0-.07-.82 1.82 1.82 0 0 0-.25-.66 1.28 1.28 0 0 0-.5-.45 1.76 1.76 0 0 0-.82-.17 2.63 2.63 0 0 0-.78.11 2.6 2.6 0 0 0-.72.38v-.22a.18.18 0 0 0-.06-.13.18.18 0 0 0-.13-.06h-1a.19.19 0 0 0-.18.18v4.91a.21.21 0 0 0 .19.19h1.12a.17.17 0 0 0 .13-.06.19.19 0 0 0 .06-.13v-3.62a4.15 4.15 0 0 1 .45-.21 1.13 1.13 0 0 1 .42-.08 1.19 1.19 0 0 1 .35 0 .39.39 0 0 1 .21.14.62.62 0 0 1 .1.27 2.52 2.52 0 0 1 0 .41v3.06a.19.19 0 0 0 .06.13.17.17 0 0 0 .13.06h1.12a.21.21 0 0 0 .19-.19m-7-2.12q0 1.13-.82 1.13a.72.72 0 0 1-.61-.29 1.42 1.42 0 0 1-.21-.85v-.56a1.4 1.4 0 0 1 .21-.84.72.72 0 0 1 .61-.28q.82 0 .82 1.13zm1.43-.57a3 3 0 0 0-.15-1 2.06 2.06 0 0 0-.44-.75 2 2 0 0 0-.72-.48 3 3 0 0 0-2 0 2 2 0 0 0-1.14 1.23 3 3 0 0 0-.15 1v.65a3 3 0 0 0 .15 1 2 2 0 0 0 1.17 1.23 3 3 0 0 0 2 0 2 2 0 0 0 .72-.48 2.06 2.06 0 0 0 .44-.75 3 3 0 0 0 .15-1zm-5.12 2.69v-.82a.14.14 0 0 0-.05-.12.19.19 0 0 0-.12 0h-1.12a.85.85 0 0 1-.3-.05.55.55 0 0 1-.24-.18.93.93 0 0 1-.16-.33 1.87 1.87 0 0 1-.06-.51v-.77a1.87 1.87 0 0 1 .06-.51.93.93 0 0 1 .16-.33.55.55 0 0 1 .24-.18.85.85 0 0 1 .3-.05h1.12a.19.19 0 0 0 .12 0 .14.14 0 0 0 .05-.12v-.82a.19.19 0 0 0 0-.14.37.37 0 0 0-.15-.07l-.5-.09a5 5 0 0 0-.72 0 2.09 2.09 0 0 0-1.56.6 2.38 2.38 0 0 0-.59 1.73v.77a2.38 2.38 0 0 0 .59 1.73 2.08 2.08 0 0 0 1.56.6 5 5 0 0 0 .72 0l.5-.09a.37.37 0 0 0 .15-.07.19.19 0 0 0 0-.14m-4.54.07v-3.15a4.58 4.58 0 0 0-.07-.82 1.82 1.82 0 0 0-.25-.66 1.28 1.28 0 0 0-.5-.45 1.76 1.76 0 0 0-.82-.17 2.32 2.32 0 0 0-1.5.48v-.22a.18.18 0 0 0-.06-.13.18.18 0 0 0-.13-.06h-1.01a.19.19 0 0 0-.18.18v4.91a.21.21 0 0 0 .19.19h1.12a.17.17 0 0 0 .13-.06.19.19 0 0 0 .06-.13v-3.61a4.15 4.15 0 0 1 .45-.21 1.13 1.13 0 0 1 .41-.08 1.19 1.19 0 0 1 .35 0 .39.39 0 0 1 .21.14.62.62 0 0 1 .1.27 2.52 2.52 0 0 1 0 .41v3.06a.19.19 0 0 0 .06.13.17.17 0 0 0 .13.06h1.12a.21.21 0 0 0 .19-.19m-7.08-1.02a2.44 2.44 0 0 1-.36.14 1.31 1.31 0 0 1-.4.06.9.9 0 0 1-.44-.08q-.14-.08-.14-.38v-.08a1.07 1.07 0 0 1 .08-.33.44.44 0 0 1 .13-.21.59.59 0 0 1 .25-.12 1.59 1.59 0 0 1 .4 0h.53zm1.47-2.23a2.19 2.19 0 0 0-.15-.86 1.5 1.5 0 0 0-.43-.58 1.77 1.77 0 0 0-.68-.33 3.52 3.52 0 0 0-.9-.11 6.18 6.18 0 0 0-.9.06q-.44.06-.7.13a.2.2 0 0 0-.18.2v.75a.16.16 0 0 0 0 .13.18.18 0 0 0 .12 0h1.62a.92.92 0 0 1 .51.12q.18.12.18.52v.33h-.5a3.1 3.1 0 0 0-1.72.35 1.34 1.34 0 0 0-.54 1.19v.08a1.88 1.88 0 0 0 .13.76 1.31 1.31 0 0 0 .36.49 1.33 1.33 0 0 0 .5.26 2.17 2.17 0 0 0 .55.07 2.07 2.07 0 0 0 .71-.11 2.36 2.36 0 0 0 .57-.3v.15a.19.19 0 0 0 .18.18h1a.19.19 0 0 0 .18-.18zm-6.59 1.46a.72.72 0 0 1-.27.6 1.66 1.66 0 0 1-1 .21h-.74v-1.71h1a1 1 0 0 1 .77.24.85.85 0 0 1 .21.58zm0-2.75a.85.85 0 0 1 0 .28.55.55 0 0 1-.15.23.79.79 0 0 1-.29.16 1.47 1.47 0 0 1-.46.06h-1v-1.6h.7a2 2 0 0 1 1 .18.62.62 0 0 1 .28.56zm1.53 2.65a1.47 1.47 0 0 0-.82-1.36 1.32 1.32 0 0 0 .57-.54 1.62 1.62 0 0 0 .2-.81v-.17a1.83 1.83 0 0 0-.2-.92 1.59 1.59 0 0 0-.6-.59 2.83 2.83 0 0 0-.92-.32 6.71 6.71 0 0 0-1.19-.09h-1.65a.66.66 0 0 0-.38.17.65.65 0 0 0-.11.43v5.61a.63.63 0 0 0 .12.43.69.69 0 0 0 .39.17h1.69a6.6 6.6 0 0 0 1.13-.09 2.66 2.66 0 0 0 .92-.33 1.74 1.74 0 0 0 .62-.64 2 2 0 0 0 .23-1z"/>
        </symbol>
        <symbol id="americanexpress">
            <path class="cls-1" d="M4.56 20.62h1.74l-.87-2.21zm0 0"/><path class="cls-2" d="M26.09 18.73a1.54 1.54 0 0 0-.63-.08h-1.57v1.26h1.58a1.54 1.54 0 0 0 .63-.08.61.61 0 0 0 .24-.55.44.44 0 0 0-.24-.55zm0 0"/><path class="cls-3" d="M43 16.36v.95l-.47-.95h-3.74v.95l-.47-.95h-5a4.8 4.8 0 0 0-2.21.47v-.47h-3.6v.47a2.27 2.27 0 0 0-1.5-.47h-12.69l-.87 2-.87-2h-4v.95l-.47-.95h-3.42l-1.57 3.71-1.82 4.1h4l.47-1.26h1.13l.47 1.26h4.57v-.95l.39.95h2.29l.39-.95v.95h10.99v-2.05h.16c.16 0 .16 0 .16.24v1.74h5.68v-.47a4.72 4.72 0 0 0 2.13.47h2.37l.5-1.27h1.1l.47 1.26h4.58v-1.18l.71 1.18h3.71v-7.73zm-26.69 6.64h-1.31v-4.35l-1.92 4.35h-1.18l-1.9-4.35v4.35h-2.68l-.55-1.18h-2.68l-.47 1.26h-1.5l2.37-5.6h2l2.21 5.28v-5.29h2.13l1.74 3.79 1.58-3.79h2.21zm5.36-4.34h-3.07v1h3v1.1h-3v1.1h3.08v1.18h-4.42v-5.6h4.42zm5.92 2.29a2 2 0 0 1 .24 1v1.1h-1.34v-.71a1.88 1.88 0 0 0-.24-1.1c-.25-.24-.47-.24-.94-.24h-1.42v2.05h-1.34v-5.6h3a3 3 0 0 1 1.58.24 1.34 1.34 0 0 1 .62 1.31 1.57 1.57 0 0 1-.95 1.5 1.5 1.5 0 0 1 .79.47zm2.41 2.05h-1.38v-5.6h1.38zm15.5 0h-1.89l-2.52-4.18v4.18h-2.69l-.47-1.18h-2.76l-.47 1.26h-1.5a2.75 2.75 0 0 1-1.89-.63 2.77 2.77 0 0 1-.71-2.13 3.23 3.23 0 0 1 .71-2.21 2.49 2.49 0 0 1 2-.63h1.26v1.18h-1.3a1.45 1.45 0 0 0-1 .32 1.85 1.85 0 0 0-.39 1.26 1.72 1.72 0 0 0 .39 1.34 1.26 1.26 0 0 0 .95.32h.55l1.81-4.34h2l2.21 5.28v-5.29h2l2.21 3.86v-3.86h1.34v5.45zm0 0"/><path class="cls-2" d="M35.64 20.62h1.81l-.87-2.21zm0 0M22.23 32v-4.5l-2.05 2.21zm0 0"/><path class="cls-1" d="M13.79 28v1h2.92v1.1h-2.92v1.18h3.21l1.5-1.66-1.4-1.62zm0 0"/><path class="cls-2" d="M25.23 28h-1.66v1.42h1.74c.47 0 .79-.24.79-.71a.8.8 0 0 0-.87-.71zm0 0"/><path class="cls-3" d="M49.6 29.38v-3.55h-3.31a2.59 2.59 0 0 0-1.66.47v-.47h-3.63a2.5 2.5 0 0 0-1.58.47v-.47h-6.42v.47a3.05 3.05 0 0 0-1.74-.47h-4.26v.47a3 3 0 0 0-1.81-.47h-4.7l-1.1 1.17-1-1.18h-7.1v7.73h6.94l1.1-1.18 1 1.18h4.27v-1.81h.55a4.79 4.79 0 0 0 1.85-.23v2.13h3.55v-2.05h.16c.24 0 .24 0 .24.24v1.81h10.68a3.09 3.09 0 0 0 1.81-.47v.47h3.39a3.54 3.54 0 0 0 1.89-.39 2.69 2.69 0 0 0 1.28-2.37 3 3 0 0 0-.39-1.5zm-24.45 1.26h-1.58v1.89h-2.57l-1.58-1.81-1.66 1.81h-5.15v-5.6h5.28l1.58 1.81 1.66-1.81h4.18c1 0 2.21.32 2.21 1.81s-1.18 1.89-2.37 1.89zm7.85-.32a1.79 1.79 0 0 1 .24 1v1.1h-1.31v-.71a1.76 1.76 0 0 0-.24-1.1c-.16-.24-.47-.24-.95-.24h-1.41v2.05h-1.33v-5.6h3a3.18 3.18 0 0 1 1.58.24 1.4 1.4 0 0 1 .71 1.26 1.57 1.57 0 0 1-.95 1.5 1.35 1.35 0 0 1 .71.47zm5.48-2.32h-3.08v1h3v1.1h-3v1.1h3.08v1.18h-4.42v-5.6h4.42zm3.31 4.42h-2.52v-1.15h2.52a.67.67 0 0 0 .55-.16.57.57 0 0 0 0-.79.67.67 0 0 0-.47-.16c-1.26-.08-2.76 0-2.76-1.74 0-.79.47-1.66 1.89-1.66h2.6v1.34h-2.44a1.17 1.17 0 0 0-.55.08c-.16.08-.16.24-.16.39s.16.32.32.39a1 1 0 0 0 .47.08h.71a2 2 0 0 1 1.5.47 1.63 1.63 0 0 1 .39 1.18c0 1.18-.71 1.74-2.05 1.74zm6.78-.55a2.3 2.3 0 0 1-1.66.55h-2.52v-1.15h2.52a.66.66 0 0 0 .55-.16.57.57 0 0 0 0-.79.67.67 0 0 0-.47-.16c-1.26-.08-2.76 0-2.76-1.74 0-.79.47-1.66 1.89-1.66h2.6v1.34h-2.35a1.17 1.17 0 0 0-.55.08c-.16.08-.16.24-.16.39s.08.32.32.39a1 1 0 0 0 .47.08h.71a2 2 0 0 1 1.5.47.08.08 0 0 1 .08.08 1.81 1.81 0 0 1 .32 1.1 1.61 1.61 0 0 1-.47 1.18zm0 0"/><path class="cls-2" d="M31.62 28.19a1.53 1.53 0 0 0-.63-.08h-1.58v1.26h1.59a1.53 1.53 0 0 0 .63-.08.61.61 0 0 0 .24-.55.44.44 0 0 0-.24-.55zm0 0M26.09 18.73a1.54 1.54 0 0 0-.63-.08h-1.57v1.26h1.58a1.54 1.54 0 0 0 .63-.08.61.61 0 0 0 .24-.55.44.44 0 0 0-.24-.55zm0 0M35.64 20.62h1.81l-.87-2.21zm0 0M22.23 32v-4.5l-2.05 2.21zm0 0M25.23 28h-1.66v1.42h1.74c.47 0 .79-.24.79-.71a.8.8 0 0 0-.87-.71zm0 0M31.62 28.19a1.53 1.53 0 0 0-.63-.08h-1.58v1.26h1.59a1.53 1.53 0 0 0 .63-.08.61.61 0 0 0 .24-.55.44.44 0 0 0-.24-.55zm0 0"/><path class="cls-1" d="M24.68 32.3l-1.1-1.18v1.34h-2.58l-1.58-1.81-1.74 1.81h-5.23v-5.53h5.29l1.66 1.81.79-.95-2-2h-6.92v7.73h6.94l1.18-1.18 1 1.18h4.26zm0 0M16.47 24.09l-1-1.1h-.47v-.47l-1.18-1.18-.82 1.66h-1.1l-1.9-4.35v4.35h-2.68l-.55-1.18h-2.68l-.55 1.18h-1.42l2.37-5.52h2l2.21 5.28v-5.29h1.15l-1.1-1.1h-1.19v.95l-.39-.95h-3.48l-1.57 3.7-1.81 4h4.09l.47-1.18h1.13l.55 1.18h4.42v-.95l.39.95h2.29l.39-.95v.95zm0 0M12.84 20.46l-1.26-1.26.95 2.05zm0 0"/><path class="cls-2" d="M48.73 33.16a2.89 2.89 0 0 0 1.27-2.16l-1.1-1.1a2.33 2.33 0 0 1 .16.79 1.61 1.61 0 0 1-.47 1.18 2.3 2.3 0 0 1-1.66.55h-2.54v-1.15h2.52a.66.66 0 0 0 .55-.16.57.57 0 0 0 0-.79.67.67 0 0 0-.47-.16c-1.26-.08-2.76 0-2.76-1.74 0-.79.47-1.5 1.66-1.66l-.89-.85c-.16.08-.24.16-.32.16v-.47h-3.6a2.5 2.5 0 0 0-1.58.47v-.47h-6.5v.47a3.05 3.05 0 0 0-1.74-.47h-4.26v.47a3 3 0 0 0-1.81-.47h-4.7l-1.1 1.18-1-1.18h-.89l2.36 2.4 1.14-1.3h4.18c1 0 2.21.32 2.21 1.81s-1.1 1.89-2.29 1.89h-1.53v1.18l1.18 1.18v-1.17h.39a4.8 4.8 0 0 0 1.86-.24v2.13h3.55v-2.05h.16c.24 0 .24 0 .24.24v1.81h10.68a3.09 3.09 0 0 0 1.82-.48v.47h3.39a3.13 3.13 0 0 0 1.89-.32zm-15.73-2.84a1.79 1.79 0 0 1 .24 1v1.1h-1.31v-.71a1.76 1.76 0 0 0-.24-1.1c-.16-.24-.47-.24-.95-.24h-1.41v2.05h-1.33v-5.6h3a3.18 3.18 0 0 1 1.58.24 1.4 1.4 0 0 1 .71 1.26 1.57 1.57 0 0 1-.95 1.5 1.35 1.35 0 0 1 .71.47zm5.48-2.32h-3.08v1h3v1.1h-3v1.1h3.08v1.18h-4.42v-5.6h4.42zm3.31 4.42h-2.52v-1.15h2.52a.67.67 0 0 0 .55-.16.57.57 0 0 0 0-.79.67.67 0 0 0-.47-.16c-1.26-.08-2.76 0-2.76-1.74 0-.79.47-1.66 1.89-1.66h2.6v1.34h-2.44a1.17 1.17 0 0 0-.55.08c-.16.08-.16.24-.16.39s.16.32.32.39a1 1 0 0 0 .47.08h.71a2 2 0 0 1 1.5.47 1.63 1.63 0 0 1 .39 1.18c0 1.18-.71 1.74-2.05 1.74zm0 0M45.58 28.59c0 .24.08.32.32.39a1 1 0 0 0 .47.08h.71a2.29 2.29 0 0 1 1.1.24l-1.18-1.18h-.71a1.17 1.17 0 0 0-.55.08.6.6 0 0 0-.16.39zm0 0M42.82 23.86l.16.24h.08zm0 0M38.48 19.52l1.34 3.23v-1.89zm0 0M25 22.12h.16c.16 0 .16 0 .16.24v1.74h5.68v-.47a4.72 4.72 0 0 0 2.13.47h2.37l.5-1.27h1.1l.47 1.26h4.58v-.79l-1.15-1.1v.87h-2.68l-.39-1.26h-2.76l-.47 1.26h-1.5a2.75 2.75 0 0 1-1.89-.63 2.77 2.77 0 0 1-.71-2.13 3.23 3.23 0 0 1 .71-2.21 2.49 2.49 0 0 1 2-.63h1.26v1.18h-1.3a1.45 1.45 0 0 0-1 .32 1.85 1.85 0 0 0-.39 1.26 1.72 1.72 0 0 0 .39 1.34 1.26 1.26 0 0 0 .95.32h.55l1.81-4.34h.79l-1.1-1.1h-2.08a4.8 4.8 0 0 0-2.21.47v-.47h-3.47v.47a2.28 2.28 0 0 0-1.5-.47h-12.69l-.87 2-.87-2h-3.47l1.1 1.1h1.58l1.34 2.92.47.47 1.4-3.47h2.21v5.6h-1.32v-4.34l-1.34 3.16 2.29 2.29h9.07zm3.63-4.65h1.37v5.6h-1.38zm-6.94 1.18h-3.09v1h3v1.1h-3v1.1h3.08v1.18h-4.42v-5.6h4.42zm2.2 4.35h-1.34v-5.6h3a3 3 0 0 1 1.58.24 1.34 1.34 0 0 1 .63 1.26 1.57 1.57 0 0 1-.95 1.5 1 1 0 0 1 .63.47 2 2 0 0 1 .24 1v1.13h-1.35v-.71a1.88 1.88 0 0 0-.24-1.1c-.09-.19-.31-.19-.78-.19h-1.42zm0 0"/>
        </symbol>
        <symbol id="mastercard">
            <path d="M1.32 10.05h47.37v29.95h-47.37z"/>
            <path class="cls-1" d="M14.54 37.5v-1.69a1 1 0 0 0-.9-1.06h-.14a1 1 0 0 0-.95.48 1 1 0 0 0-.89-.48.92.92 0 0 0-.81.39v-.33h-.55v2.69h.55v-1.5a.65.65 0 0 1 .57-.71h.11c.39 0 .61.25.61.71v1.5h.55v-1.5a.65.65 0 0 1 .58-.71h.1c.4 0 .61.25.61.71v1.5zm8.77-2.69h-1v-.81h-.55v.82h-.56v.49h.56v1.27c0 .62.22 1 .91 1a1.38 1.38 0 0 0 .73-.21l-.17-.48a1.08 1.08 0 0 1-.52.15c-.28 0-.41-.18-.41-.45v-1.3h1zm5-.07a.84.84 0 0 0-.73.39v-.33h-.58v2.7h.54v-1.5c0-.44.21-.73.6-.73a1 1 0 0 1 .37.07l.18-.51a1.25 1.25 0 0 0-.42-.07zm-7.56.26a2 2 0 0 0-1.1-.28c-.68 0-1.1.32-1.1.84s.3.7.91.79h.28c.32 0 .5.16.5.31s-.24.34-.64.34a1.41 1.41 0 0 1-.89-.28l-.28.42a2 2 0 0 0 1.17.35c.78 0 1.21-.36 1.21-.87s-.33-.71-.91-.79h-.28c-.25 0-.48-.11-.48-.28s.21-.33.53-.33a1.74 1.74 0 0 1 .84.23zm8.16 1.13a1.34 1.34 0 0 0 1.27 1.41h.13a1.41 1.41 0 0 0 1-.32l-.31-.41a1.18 1.18 0 0 1-.7.24.92.92 0 0 1 0-1.83 1.18 1.18 0 0 1 .7.24l.28-.42a1.41 1.41 0 0 0-1-.32 1.34 1.34 0 0 0-1.37 1.28v.13zm-3.79-1.41a1.3 1.3 0 0 0-1.33 1.41 1.33 1.33 0 0 0 1.21 1.43h.13a1.64 1.64 0 0 0 1.1-.38l-.28-.4a1.28 1.28 0 0 1-.78.28.79.79 0 0 1-.81-.69h2v-.23a1.27 1.27 0 0 0-1.27-1.41zm0 .5a.69.69 0 0 1 .71.66h-1.44a.72.72 0 0 1 .74-.68zm-7.29.91v-1.32h-.54v.33a1.07 1.07 0 0 0-.87-.39 1.41 1.41 0 0 0 0 2.83 1.07 1.07 0 0 0 .87-.39v.33h.54zm-2.18 0a.84.84 0 0 1 .77-.91h.07a.92.92 0 0 1 0 1.83.84.84 0 0 1-.85-.84v-.07zm20.79-1.41a.84.84 0 0 0-.73.39v-.33h-.53v2.72h.54v-1.5c0-.44.21-.73.6-.73a1 1 0 0 1 .37.07l.18-.51a1.25 1.25 0 0 0-.42-.07zm4.34 2.37h.11l.09.06a.28.28 0 0 1 .06.08.26.26 0 0 1 0 .21.28.28 0 0 1-.06.08l-.09.06h-.11a.28.28 0 0 1-.25-.16.26.26 0 0 1 0-.21.28.28 0 0 1 .06-.08l.09-.06h.11zm0 .48h.14a.21.21 0 0 0 0-.28h-.29000000000000004a.21.21 0 0 0 0 .28h.15000000000000002zm0-.33h.07a.07.07 0 0 1 0 .06.07.07 0 0 1 0 .05h-.06l.08.09h-.06l-.08-.09v.09h-.05v-.25zm-.06 0v.07h.1zm-6.37-1.15v-1.28h-.54v.33a1.07 1.07 0 0 0-.87-.39 1.41 1.41 0 0 0 0 2.83 1.07 1.07 0 0 0 .87-.39v.33h.54zm-2.18 0a.84.84 0 0 1 .77-.91h.06a.92.92 0 0 1 0 1.83.84.84 0 0 1-.85-.84v-.07zm7.62 0v-2.37h-.54v1.41a1.07 1.07 0 0 0-.87-.39 1.41 1.41 0 0 0 0 2.83 1.07 1.07 0 0 0 .87-.39v.33h.54zm-2.18 0a.84.84 0 0 1 .77-.91h.07a.92.92 0 0 1 0 1.82.84.84 0 0 1-.85-.84v-.07z"/>

            <path class="cls-2" d="M20.57 14.31h8.86v15.93h-8.86z"/>
            <path id="_Path_2" class="cls-3" d="M21.13 22.27a10.11 10.11 0 0 1 3.87-8 10.13 10.13 0 1 0 0 15.93 10.11 10.11 0 0 1-3.87-7.93z"/><path class="cls-4" d="M40.43 28.55v-.33h.13v-.07h-.33v.07h.13v.33zm.65 0v-.39h-.08l-.12.28-.12-.28h-.1v.39h.07v-.3l.11.26h.08l.11-.26v.3zM41.39 22.27a10.13 10.13 0 0 1-16.39 8 10.13 10.13 0 0 0 0-15.93 10.13 10.13 0 0 1 16.39 8z"/>
        </symbol>
        <symbol id="ideal">
            <rect x="11.78" y="26.86" width="5.45" height="9.04"/>
            <circle cx="14.56" cy="22.34" r="3.08"/>
            <path d="M27.55,10.18H8V39.82H27.55c4.27-.06,7.65-1.12,10.05-3.16C40.52,34.17,42,30.25,42,25a18.08,18.08,0,0,0-1.16-6.69,12.19,12.19,0,0,0-3.23-4.66,15.24,15.24,0,0,0-10.07-3.46Zm-.37,2c3.79,0,6.94,1,9.13,3C38.78,17.31,40,20.64,40,25c0,8.65-4.2,12.85-12.85,12.85H10V12.15Z"/>
            <path class="cls-1" d="M26.64,35.92H19.73V14.55h6.63c5.76,0,11.9,2.27,11.9,10.71,0,8.92-6.13,10.66-11.9,10.66Z"/>
            <path class="cls-2" d="M22.29,20.54a1.87,1.87,0,0,0-.84-.51,3.8,3.8,0,0,0-1-.1h-2v5.42h2.09a3.29,3.29,0,0,0,1-.12,2,2,0,0,0,.79-.44,2.42,2.42,0,0,0,.59-1A3.54,3.54,0,0,0,23,22.68a4,4,0,0,0-.18-1.26A2.4,2.4,0,0,0,22.29,20.54Zm-2.57.54H20a4.42,4.42,0,0,1,.82,0,.86.86,0,0,1,.42.21,1,1,0,0,1,.26.44,2.94,2.94,0,0,1,.1.87,3.22,3.22,0,0,1-.1.9,1,1,0,0,1-.23.43.83.83,0,0,1-.36.18,2.74,2.74,0,0,1-.6,0h-.64Z"/>
            <path class="cls-2" d="M25.2,23.09h2.58V21.93H25.2v-.86H28V19.92H23.88v5.42h4.19V24.19H25.2Z"/>
            <path class="cls-2" d="M30.48,19.92l-2.11,5.42h1.41l.43-1.17h1.86l.45,1.17h1.43l-2.17-5.42ZM31.62,23h-1l.5-1.36Z"/>
            <path class="cls-2" d="M35.78,24.19V20H34.46v5.38h3.9V24.19Z"/>
        </symbol>
        <symbol id="transfer-en">
            <path class="cls-1" d="M46.72 37.41a2.57 2.57 0 0 1-2.57 2.59h-38.3a2.57 2.57 0 0 1-2.57-2.57v-24.84a2.57 2.57 0 0 1 2.57-2.59h38.3a2.57 2.57 0 0 1 2.57 2.57v24.84z"/><path class="cls-2" d="M18 19.74h2.66c1 0 2.06.24 2.06 1.43a1.28 1.28 0 0 1-.72 1.15 1.35 1.35 0 0 1 1 1.35c0 1.36-1 1.77-2.22 1.77h-2.78zm1.47 2.26h1.15a.55.55 0 0 0 .61-.54c0-.41-.3-.55-.61-.55h-1.15zm0 2.26h1.19c.47 0 .8-.17.8-.64s-.35-.67-.8-.67h-1.19zM25.29 19.74h1.51l2.13 5.69h-1.55l-.35-1h-2.03l-.36 1h-1.48zm.1 3.57h1.29l-.63-2zM29.34 19.74h1.52l2 3.51v-3.51h1.4v5.69h-1.53l-2-3.55v3.55h-1.4zM35.26 19.74h1.48v2.18l1.87-2.18h1.84l-2.09 2.26 2.37 3.45h-1.85l-1.53-2.45-.61.64v1.75h-1.48v-5.65z"/><path class="cls-3" d="M20.55 27.53h-.89v2.31h-.77v-2.31h-.89v-.67h2.55zM20.89 26.86h1.52c.52 0 1 .24 1 .84a.76.76 0 0 1-.47.75c.32.08.41.43.43.71 0 .12 0 .56.12.67h-.77a1.44 1.44 0 0 1-.09-.47c0-.3-.07-.61-.43-.61h-.59v1.08h-.77zm.77 1.29h.65a.32.32 0 0 0 .36-.35c0-.22-.17-.32-.39-.32h-.62zM24.71 26.86h.79l1.11 3h-.81l-.18-.53h-1l-.19.53h-.8zm0 1.87h.67l-.33-1zM26.82 26.86h.8l1 1.83v-1.83h.73v3h-.8l-1-1.85v1.85h-.73zM30.52 28.84c0 .35.23.46.56.46s.47-.08.47-.3-.42-.31-.85-.43-.87-.31-.87-.86.65-.9 1.21-.9 1.19.29 1.19 1h-.77c0-.27-.24-.36-.48-.36s-.37.06-.37.25.43.27.86.39.86.32.86.86c0 .75-.64 1-1.3 1s-1.29-.3-1.29-1.06h.77zM32.7 26.86h2.19v.62h-1.42v.61h1.22v.6h-1.22v1.15h-.77zM35.24 26.86h2.37v.62h-1.61v.52h1.46v.6h-1.46v.57h1.64v.67h-2.4v-3zM38.09 26.86h1.52c.52 0 1 .24 1 .84a.76.76 0 0 1-.47.75c.32.08.41.43.43.71 0 .12 0 .56.12.67h-.69a1.44 1.44 0 0 1-.09-.47c0-.3-.07-.61-.43-.61h-.59v1.08h-.77v-3zm.77 1.29h.65a.32.32 0 0 0 .36-.35c0-.22-.17-.32-.39-.32h-.62z"/><path class="cls-2" d="M9.27 26.72v-.41a4.41 4.41 0 0 1 0-.53 2.71 2.71 0 0 1 .12-.62 3.31 3.31 0 0 1 .24-.68l.16-.35.21-.34a4.16 4.16 0 0 1 .5-.65 7.24 7.24 0 0 1 .6-.57c.22-.16.43-.33.65-.46a6.57 6.57 0 0 1 .65-.36c.21-.12.42-.19.61-.28s.56-.21.78-.27a4.25 4.25 0 0 1-.23-.7 3.78 3.78 0 0 1-.12-.81 3.85 3.85 0 0 1 .76.32 5.1 5.1 0 0 1 .64.41 6.24 6.24 0 0 1 1 1 .82.82 0 0 1 .08.95v.06a6.31 6.31 0 0 1-1 1.3 5.11 5.11 0 0 1-.67.55l-.39.24a3.13 3.13 0 0 1-.44.21 3.22 3.22 0 0 1 0-.49c0-.15 0-.3.06-.45a4.67 4.67 0 0 1 .22-.84v-.08h-.3c-.17 0-.36.06-.55.11a5.36 5.36 0 0 0-.59.18c-.21.06-.4.17-.62.26a5.27 5.27 0 0 0-.59.36 3.25 3.25 0 0 0-.53.44l-.24.24-.2.27a3 3 0 0 0-.34.55 2.48 2.48 0 0 0-.23.54 3.76 3.76 0 0 0-.16.48l-.07.39-.06.35v-.35z"/><path class="cls-3" d="M15.46 26.13a5.48 5.48 0 0 1-.58.37c-.21.09-.4.21-.61.28a5.52 5.52 0 0 1-.59.2l-.54.13h-.3v-.08a5 5 0 0 0 .2-.84v-.46a3.27 3.27 0 0 0 0-.49 3.36 3.36 0 0 0-.44.22l-.38.25a5.16 5.16 0 0 0-.65.57 6.32 6.32 0 0 0-1 1.33v.06a.82.82 0 0 0 .11.95 6.12 6.12 0 0 0 1.07 1 5 5 0 0 0 .65.39 3.65 3.65 0 0 0 .76.29 3.93 3.93 0 0 0-.14-.81 4.86 4.86 0 0 0-.24-.69c.21-.07.47-.17.76-.29s.4-.17.61-.3a6 6 0 0 0 .64-.39c.22-.13.42-.32.64-.48a6.27 6.27 0 0 0 .58-.59 4.15 4.15 0 0 0 .48-.66l.2-.34.15-.35a3.3 3.3 0 0 0 .21-.69 2.53 2.53 0 0 0 .1-.63 3.66 3.66 0 0 0 0-.53v-.76l-.05.34-.06.39a3.72 3.72 0 0 1-.04.48 2.66 2.66 0 0 1-.22.55 3 3 0 0 1-.32.56l-.19.27a3.07 3.07 0 0 1-.24.25 3.17 3.17 0 0 1-.52.46z"/>
        </symbol>
        <symbol id="transfer-nl">
            <path class="cls-1" d="M49.76 37.41a2.77 2.77 0 0 1-2.92 2.59h-43.68a2.77 2.77 0 0 1-2.92-2.59v-24.82a2.77 2.77 0 0 1 2.92-2.59h43.68a2.77 2.77 0 0 1 2.93 2.57v24.84z"/>
            <path class="cls-2" d="M18 19.74h2.66c1 0 2.06.24 2.06 1.43a1.28 1.28 0 0 1-.72 1.15 1.35 1.35 0 0 1 1 1.35c0 1.36-1 1.77-2.22 1.77h-2.78zm1.47 2.26h1.15a.55.55 0 0 0 .61-.54c0-.41-.3-.55-.61-.55h-1.15zm0 2.26h1.19c.47 0 .8-.17.8-.64s-.35-.67-.8-.67h-1.19zM25.29 19.74h1.51l2.13 5.69h-1.55l-.35-1h-2.03l-.36 1h-1.48zm.1 3.57h1.29l-.63-2zM29.34 19.74h1.52l2 3.51v-3.51h1.4v5.69h-1.53l-2-3.55v3.55h-1.4zM35.26 19.74h1.48v2.18l1.87-2.18h1.84l-2.09 2.26 2.37 3.45h-1.85l-1.53-2.45-.61.64v1.75h-1.48v-5.65zM9.27 26.72v-.41a4.41 4.41 0 0 1 0-.53 2.71 2.71 0 0 1 .12-.62 3.31 3.31 0 0 1 .24-.68l.16-.35.21-.34a4.16 4.16 0 0 1 .5-.65 7.24 7.24 0 0 1 .6-.57c.22-.16.43-.33.65-.46a6.57 6.57 0 0 1 .65-.36c.21-.12.42-.19.61-.28s.56-.21.78-.27a4.25 4.25 0 0 1-.23-.7 3.78 3.78 0 0 1-.12-.81 3.85 3.85 0 0 1 .76.32 5.1 5.1 0 0 1 .64.41 6.24 6.24 0 0 1 1 1 .82.82 0 0 1 .08.95v.06a6.31 6.31 0 0 1-1 1.3 5.11 5.11 0 0 1-.67.55l-.39.24a3.13 3.13 0 0 1-.44.21 3.22 3.22 0 0 1 0-.49c0-.15 0-.3.06-.45a4.67 4.67 0 0 1 .22-.84v-.08h-.3c-.17 0-.36.06-.55.11a5.36 5.36 0 0 0-.59.18c-.21.06-.4.17-.62.26a5.27 5.27 0 0 0-.59.36 3.25 3.25 0 0 0-.53.44l-.24.24-.2.27a3 3 0 0 0-.34.55 2.48 2.48 0 0 0-.23.54 3.76 3.76 0 0 0-.16.48l-.07.39-.06.35v-.35z"/>
            <path class="cls-3" d="M15.46 26.13a5.48 5.48 0 0 1-.58.37c-.21.09-.4.21-.61.28a5.52 5.52 0 0 1-.59.2l-.54.13h-.3v-.08a5 5 0 0 0 .2-.84v-.46a3.27 3.27 0 0 0 0-.49 3.36 3.36 0 0 0-.44.22l-.38.25a5.16 5.16 0 0 0-.65.57 6.32 6.32 0 0 0-1 1.33v.06a.82.82 0 0 0 .11.95 6.12 6.12 0 0 0 1.07 1 5 5 0 0 0 .65.39 3.65 3.65 0 0 0 .76.29 3.93 3.93 0 0 0-.14-.81 4.86 4.86 0 0 0-.24-.69c.21-.07.47-.17.76-.29s.4-.17.61-.3a6 6 0 0 0 .64-.39c.22-.13.42-.32.64-.48a6.27 6.27 0 0 0 .58-.59 4.15 4.15 0 0 0 .48-.66l.2-.34.15-.35a3.3 3.3 0 0 0 .21-.69 2.53 2.53 0 0 0 .1-.63 3.66 3.66 0 0 0 0-.53v-.76l-.05.34-.06.39a3.72 3.72 0 0 1-.04.48 2.66 2.66 0 0 1-.22.55 3 3 0 0 1-.32.56l-.19.27a3.07 3.07 0 0 1-.24.25 3.17 3.17 0 0 1-.52.46zM19.68 28.48v.66a.8.8 0 0 1-.12.35.67.67 0 0 1-.27.25 1 1 0 0 1-.79 0 .66.66 0 0 1-.28-.24.78.78 0 0 1-.12-.35v-1.81a.81.81 0 0 1 .12-.35.67.67 0 0 1 .27-.25.89.89 0 0 1 .4-.08.91.91 0 0 1 .39.08.66.66 0 0 1 .28.24.8.8 0 0 1 .12.35v.67zm-.7-1a1.11 1.11 0 0 0 0-.28.08.08 0 0 0-.09-.06.09.09 0 0 0-.08 0 .8.8 0 0 0 0 .29v1.44a1.64 1.64 0 0 0 0 .33.08.08 0 0 0 .09.06.09.09 0 0 0 .09-.07 1.8 1.8 0 0 0 0-.34zM21.6 26.68l-.36 3.08h-1.06l-.4-3.08h.74q.13 1.27.18 2.15.05-.89.12-1.58v-.57zM21.72 26.68h1.17v.62h-.47v.58h.44v.58h-.44v.68h.51v.62h-1.21zM23.13 26.68h.49a3.3 3.3 0 0 1 .67 0 .47.47 0 0 1 .29.22 1.14 1.14 0 0 1 .11.57 1 1 0 0 1-.08.48.39.39 0 0 1-.31.15.51.51 0 0 1 .28.16.49.49 0 0 1 .09.18 3.25 3.25 0 0 1 0 .46v.81h-.67v-1a.8.8 0 0 0 0-.31s-.08-.06-.18-.06v1.39h-.7zm.7.53v.68a.28.28 0 0 0 .17 0v-.41000000000000003a.28.28 0 0 0 0-.19.24.24 0 0 0-.17-.08zM26.44 27.61h-.65v-.23a.51.51 0 0 0 0-.2.09.09 0 0 0-.08 0 .1.1 0 0 0-.1.06.39.39 0 0 0 0 .18.57.57 0 0 0 0 .23.56.56 0 0 0 .2.19 2.05 2.05 0 0 1 .59.52 1.33 1.33 0 0 1 .12.66 1.3 1.3 0 0 1-.07.49.56.56 0 0 1-.26.26.92.92 0 0 1-.45.11.9.9 0 0 1-.48-.12.57.57 0 0 1-.26-.31 1.8 1.8 0 0 1-.06-.53v-.2h.65v.28a.55.55 0 0 0 0 .22.1.1 0 0 0 .1 0 .11.11 0 0 0 .1-.06.39.39 0 0 0 0-.19.65.65 0 0 0-.06-.36 2.07 2.07 0 0 0-.33-.28 3.27 3.27 0 0 1-.34-.29.68.68 0 0 1-.14-.25 1.23 1.23 0 0 1-.06-.4 1.25 1.25 0 0 1 .14-.39.56.56 0 0 1 .25-.26.9.9 0 0 1 .42-.09 1 1 0 0 1 .46.1.52.52 0 0 1 .25.25 1.54 1.54 0 0 1 .06.52zM28.35 28h-.7v-.54a1.11 1.11 0 0 0 0-.29.1.1 0 0 0-.1-.06.1.1 0 0 0-.11.07 1.28 1.28 0 0 0 0 .3v1.43a1.2 1.2 0 0 0 0 .29.1.1 0 0 0 .11.07.1.1 0 0 0 .1-.07 1.29 1.29 0 0 0 0-.32v-.39h.7v.12a2.71 2.71 0 0 1-.06.68.67.67 0 0 1-.26.35.81.81 0 0 1-.5.15.92.92 0 0 1-.51-.13.61.61 0 0 1-.26-.35 2.59 2.59 0 0 1-.07-.68v-.9a4.45 4.45 0 0 1 0-.5.75.75 0 0 1 .12-.32.69.69 0 0 1 .27-.24 1 1 0 0 1 .91 0 .63.63 0 0 1 .26.34 2.29 2.29 0 0 1 .06.63zM30.2 26.68v3.08h-.7v-1.3h-.2v1.29h-.7v-3.07h.7v1.1h.21v-1.1zM30.48 26.68h.52a3.3 3.3 0 0 1 .67 0 .47.47 0 0 1 .29.22 1.14 1.14 0 0 1 .11.57 1 1 0 0 1-.07.53.39.39 0 0 1-.31.15.51.51 0 0 1 .28.16.49.49 0 0 1 .09.18 3.25 3.25 0 0 1 0 .46v.81h-.66v-1a.8.8 0 0 0 0-.31s-.08-.06-.18-.06v1.39h-.7zm.7.53v.68a.28.28 0 0 0 .17 0v-.41000000000000003a.28.28 0 0 0 0-.19.24.24 0 0 0-.17-.08zM33 26.68v3.08h-.7v-3.08zM34.15 26.68v2.65a.49.49 0 0 1-.08.24.35.35 0 0 1-.18.15 1.11 1.11 0 0 1-.35 0h-.35v-.54h.09a.16.16 0 0 0 .12 0 .17.17 0 0 0 0-.1v-2.4000000000000004zM36.08 26.68l-.36 3.08h-1.06l-.4-3.08h.74q.13 1.27.18 2.15.05-.89.12-1.58v-.57zM36.9 26.68v3.08h-.7v-3.08zM38.74 26.68v3.08h-.61l-.36-1.4v1.4h-.58v-3.08h.58l.39 1.39v-1.39zM40.62 27.81h-.7v-.28a1.54 1.54 0 0 0 0-.33.1.1 0 0 0-.18 0 1.11 1.11 0 0 0 0 .29v1.51a1.05 1.05 0 0 0 0 .27.09.09 0 0 0 .09.07.1.1 0 0 0 .1-.07 1 1 0 0 0 0-.29v-.37h-.13v-.51h.82v1.65h-.44l-.07-.22a.52.52 0 0 1-.18.21.45.45 0 0 1-.26.07.6.6 0 0 1-.33-.1.67.67 0 0 1-.23-.24.82.82 0 0 1-.1-.3 4 4 0 0 1 0-.48v-.91a3.43 3.43 0 0 1 0-.64.65.65 0 0 1 .24-.37.76.76 0 0 1 .51-.17.85.85 0 0 1 .51.14.66.66 0 0 1 .26.34 2.06 2.06 0 0 1 .06.58z"/>
        </symbol>
        <symbol id="transfer-fr">
            <path class="cls-1" d="M49.76 37.41a2.77 2.77 0 0 1-2.92 2.59h-43.68a2.77 2.77 0 0 1-2.92-2.59v-24.82a2.77 2.77 0 0 1 2.92-2.59h43.68a2.77 2.77 0 0 1 2.93 2.57v24.84z"/>
            <path class="cls-2" d="M9.27 26.72v-.41a4.41 4.41 0 0 1 0-.53 2.71 2.71 0 0 1 .12-.62 3.31 3.31 0 0 1 .24-.68l.16-.35.21-.34a4.16 4.16 0 0 1 .5-.65 7.24 7.24 0 0 1 .6-.57c.22-.16.43-.33.65-.46a6.57 6.57 0 0 1 .65-.36c.21-.12.42-.19.61-.28s.56-.21.78-.27a4.25 4.25 0 0 1-.23-.7 3.78 3.78 0 0 1-.12-.81 3.85 3.85 0 0 1 .76.32 5.1 5.1 0 0 1 .64.41 6.24 6.24 0 0 1 1 1 .82.82 0 0 1 .08.95v.06a6.31 6.31 0 0 1-1 1.3 5.11 5.11 0 0 1-.67.55l-.39.24a3.13 3.13 0 0 1-.44.21 3.22 3.22 0 0 1 0-.49c0-.15 0-.3.06-.45a4.67 4.67 0 0 1 .22-.84v-.08h-.3c-.17 0-.36.06-.55.11a5.36 5.36 0 0 0-.59.18c-.21.06-.4.17-.62.26a5.27 5.27 0 0 0-.59.36 3.25 3.25 0 0 0-.53.44l-.24.24-.2.27a3 3 0 0 0-.34.55 2.48 2.48 0 0 0-.23.54 3.76 3.76 0 0 0-.16.48l-.07.39-.06.35v-.35z"/>
            <path class="cls-3" d="M15.46 26.13a5.48 5.48 0 0 1-.58.37c-.21.09-.4.21-.61.28a5.52 5.52 0 0 1-.59.2l-.54.13h-.3v-.08a5 5 0 0 0 .2-.84v-.46a3.27 3.27 0 0 0 0-.49 3.36 3.36 0 0 0-.44.22l-.38.25a5.16 5.16 0 0 0-.65.57 6.32 6.32 0 0 0-1 1.33v.06a.82.82 0 0 0 .11.95 6.12 6.12 0 0 0 1.07 1 5 5 0 0 0 .65.39 3.65 3.65 0 0 0 .76.29 3.93 3.93 0 0 0-.14-.81 4.86 4.86 0 0 0-.24-.69c.21-.07.47-.17.76-.29s.4-.17.61-.3a6 6 0 0 0 .64-.39c.22-.13.42-.32.64-.48a6.27 6.27 0 0 0 .58-.59 4.15 4.15 0 0 0 .48-.66l.2-.34.15-.35a3.3 3.3 0 0 0 .21-.69 2.53 2.53 0 0 0 .1-.63 3.66 3.66 0 0 0 0-.53v-.76l-.05.34-.06.39a3.72 3.72 0 0 1-.04.48 2.66 2.66 0 0 1-.22.55 3 3 0 0 1-.32.56l-.19.27a3.07 3.07 0 0 1-.24.25 3.17 3.17 0 0 1-.52.46zM20.33 19.83l-.46 3.64h-1.37l-.5-3.64h.95q.17 1.5.24 2.54.07-1.05.15-1.87l.06-.68zM22.15 19.83v3.64h-.9v-3.64zM23.29 19.83h.64a4.68 4.68 0 0 1 .86.05.59.59 0 0 1 .37.26 1.25 1.25 0 0 1 .14.68 1.1 1.1 0 0 1-.1.57.51.51 0 0 1-.4.17.68.68 0 0 1 .36.19.56.56 0 0 1 .11.21 3.6 3.6 0 0 1 0 .54v1h-.84v-1.24a.87.87 0 0 0 0-.36s-.11-.07-.23-.07v1.64h-.9zm.9.62v.81a.38.38 0 0 0 .21 0s.06-.12.06-.28v-.2a.32.32 0 0 0-.06-.23.33.33 0 0 0-.21-.1zM26.42 19.83h1.5v.73h-.6v.69h.56v.69h-.56v.8h.68v.73h-1.58zM31.79 19.83v3.64h-.79v-2.47l-.31 2.46h-.56l-.33-2.4v2.4h-.8v-3.63h1.17c0 .22.07.48.11.77l.13.92.21-1.7zM32.92 19.83h1.5v.73h-.6v.69h.56v.69h-.56v.8h.66v.73h-1.56zM37.53 19.83v3.64h-.79l-.47-1.65v1.65h-.75v-3.64h.75l.5 1.64v-1.64zM40.47 19.83v.73h-.53v2.91h-.94v-2.91h-.53v-.73z"/>
            <path class="cls-2" d="M18.18 24.6h1.2a2.77 2.77 0 0 1 .86.1.88.88 0 0 1 .47.41 2.07 2.07 0 0 1 .18 1 1.2 1.2 0 0 1-.13.65.85.85 0 0 1-.5.28.87.87 0 0 1 .56.36 1.54 1.54 0 0 1 .15.77v.49a2.2 2.2 0 0 1-.11.79.61.61 0 0 1-.34.35 3.06 3.06 0 0 1-1 .09h-1.34zm1.2.91v1.18h.12q.18 0 .23-.1a1.86 1.86 0 0 0 0-.57 1.05 1.05 0 0 0 0-.35.21.21 0 0 0-.1-.13.8.8 0 0 0-.25-.04zm0 2v1.49a.46.46 0 0 0 .32-.09.72.72 0 0 0 .07-.4v-.51a.79.79 0 0 0-.06-.41.51.51 0 0 0-.33-.09zM23.48 24.6l.69 5.29h-1.23l-.06-1h-.43l-.07 1h-1.25l.61-5.29zm-.64 3.4q-.09-.9-.18-2.22-.18 1.52-.23 2.22zM27.05 24.6v5.29h-1.05l-.62-2.4v2.4h-1v-5.29h1l.62 2.4v-2.4zM30.34 26.9h-1.2v-.9a1.88 1.88 0 0 0 0-.5.16.16 0 0 0-.17-.1.17.17 0 0 0-.19.12 2.06 2.06 0 0 0 0 .52v2.46a1.92 1.92 0 0 0 0 .5.17.17 0 0 0 .18.12.17.17 0 0 0 .17-.12 2.18 2.18 0 0 0 0-.55v-.67h1.2v.22a4.64 4.64 0 0 1-.1 1.17 1.17 1.17 0 0 1-.45.6 1.39 1.39 0 0 1-.85.26 1.59 1.59 0 0 1-.87-.22 1 1 0 0 1-.45-.61 4.52 4.52 0 0 1-.11-1.2v-1.54a8 8 0 0 1 0-.86 1.3 1.3 0 0 1 .2-.55 1.18 1.18 0 0 1 .47-.42 1.51 1.51 0 0 1 .69-.15 1.53 1.53 0 0 1 .88.24 1.09 1.09 0 0 1 .45.59 4 4 0 0 1 .11 1.09zM32.84 24.6l.69 5.29h-1.23l-.06-1h-.43l-.07 1h-1.24l.61-5.29zm-.63 3.4q-.09-.9-.18-2.22-.18 1.52-.23 2.22zM34.93 24.6v5.29h-1.2v-5.29zM35.42 24.6h.85a5.7 5.7 0 0 1 1.15.08.8.8 0 0 1 .49.38 1.94 1.94 0 0 1 .19 1 1.72 1.72 0 0 1-.13.83.67.67 0 0 1-.53.25.88.88 0 0 1 .48.27.87.87 0 0 1 .15.31 5.7 5.7 0 0 1 0 .78v1.39h-1.07v-1.76a1.37 1.37 0 0 0-.06-.53c0-.07-.14-.1-.31-.1v2.38h-1.2zm1.2.91v1.18a.47.47 0 0 0 .28-.06q.08-.06.08-.41v-.29a.48.48 0 0 0-.08-.33.4.4 0 0 0-.28-.1zM38.56 24.6h2v1.06h-.8v1h.75v1h-.75v1.16h.88v1.06h-2.08z"/>
        </symbol>
        <symbol id="qrcode">
            <path class="cls-1" d="M7.5 7.5h35.01v35.01h-35.01z"/><path d="M21.29 9.62h1.08v1.08h-1.08zM22.35 9.62h1.08v1.08h-1.08zM23.41 9.62h1.08v1.08h-1.08zM24.47 9.62h1.08v1.08h-1.08zM26.59 9.62h1.08v1.08h-1.08zM27.65 9.62h1.08v1.08h-1.08zM28.71 9.62h1.08v1.08h-1.08zM29.77 9.62h1.08v1.08h-1.08zM20.23 10.68h1.08v1.08h-1.08zM22.35 10.68h1.08v1.08h-1.08zM23.41 10.68h1.08v1.08h-1.08zM24.47 10.68h1.08v1.08h-1.08zM25.53 10.68h1.08v1.08h-1.08zM27.65 10.68h1.08v1.08h-1.08zM28.71 10.68h1.08v1.08h-1.08zM30.83 10.68h1.08v1.08h-1.08zM19.17 11.74h1.08v1.08h-1.08zM21.29 11.74h1.08v1.08h-1.08zM22.35 11.74h1.08v1.08h-1.08zM23.41 11.74h1.08v1.08h-1.08zM27.65 11.74h1.08v1.08h-1.08zM28.71 11.74h1.08v1.08h-1.08zM19.17 12.8h1.08v1.08h-1.08zM20.23 12.8h1.08v1.08h-1.08zM22.35 12.8h1.08v1.08h-1.08zM23.41 12.8h1.08v1.08h-1.08zM24.47 12.8h1.08v1.08h-1.08zM25.53 12.8h1.08v1.08h-1.08zM28.71 12.8h1.08v1.08h-1.08zM29.77 12.8h1.08v1.08h-1.08zM23.41 13.86h1.08v1.08h-1.08zM24.47 13.86h1.08v1.08h-1.08zM25.53 13.86h1.08v1.08h-1.08zM26.59 13.86h1.08v1.08h-1.08zM27.65 13.86h1.08v1.08h-1.08zM28.71 13.86h1.08v1.08h-1.08zM18.11 14.92h1.08v1.08h-1.08zM19.17 14.92h1.08v1.08h-1.08zM20.23 14.92h1.08v1.08h-1.08zM22.35 14.92h1.08v1.08h-1.08zM23.41 14.92h1.08v1.08h-1.08zM24.47 14.92h1.08v1.08h-1.08zM25.53 14.92h1.08v1.08h-1.08zM28.71 14.92h1.08v1.08h-1.08zM29.77 14.92h1.08v1.08h-1.08zM30.83 14.92h1.08v1.08h-1.08zM18.11 15.98h1.08v1.08h-1.08zM20.23 15.98h1.08v1.08h-1.08zM22.35 15.98h1.08v1.08h-1.08zM24.47 15.98h1.08v1.08h-1.08zM26.59 15.98h1.08v1.08h-1.08zM28.71 15.98h1.08v1.08h-1.08zM30.83 15.98h1.08v1.08h-1.08zM19.17 17.04h1.08v1.08h-1.08zM20.23 17.04h1.08v1.08h-1.08zM22.35 17.04h1.08v1.08h-1.08zM24.47 17.04h1.08v1.08h-1.08zM26.59 17.04h1.08v1.08h-1.08zM27.65 17.04h1.08v1.08h-1.08zM30.83 17.04h1.08v1.08h-1.08zM9.62 18.11h1.08v1.08h-1.08zM12.8 18.11h1.08v1.08h-1.08zM14.92 18.11h1.08v1.08h-1.08zM15.98 18.11h1.08v1.08h-1.08zM18.11 18.11h1.08v1.08h-1.08zM19.17 18.11h1.08v1.08h-1.08zM21.29 18.11h1.08v1.08h-1.08zM22.35 18.11h1.08v1.08h-1.08zM26.59 18.11h1.08v1.08h-1.08zM30.83 18.11h1.08v1.08h-1.08zM31.89 18.11h1.08v1.08h-1.08zM34.02 18.11h1.08v1.08h-1.08zM9.62 19.17h1.08v1.08h-1.08zM14.92 19.17h1.08v1.08h-1.08zM19.17 19.17h1.08v1.08h-1.08zM20.23 19.17h1.08v1.08h-1.08zM22.35 19.17h1.08v1.08h-1.08zM24.47 19.17h1.08v1.08h-1.08zM26.59 19.17h1.08v1.08h-1.08zM27.65 19.17h1.08v1.08h-1.08zM30.83 19.17h1.08v1.08h-1.08zM31.89 19.17h1.08v1.08h-1.08zM32.96 19.17h1.08v1.08h-1.08zM36.14 19.17h1.08v1.08h-1.08zM39.32 19.17h1.08v1.08h-1.08zM10.68 20.23h1.08v1.08h-1.08zM11.74 20.23h1.08v1.08h-1.08zM15.98 20.23h1.08v1.08h-1.08zM17.04 20.23h1.08v1.08h-1.08zM18.11 20.23h1.08v1.08h-1.08zM20.23 20.23h1.08v1.08h-1.08zM21.29 20.23h1.08v1.08h-1.08zM22.35 20.23h1.08v1.08h-1.08zM29.77 20.23h1.08v1.08h-1.08zM32.96 20.23h1.08v1.08h-1.08zM36.14 20.23h1.08v1.08h-1.08zM37.2 20.23h1.08v1.08h-1.08zM38.26 20.23h1.08v1.08h-1.08zM9.62 21.29h1.08v1.08h-1.08zM18.11 21.29h1.08v1.08h-1.08zM24.47 21.29h1.08v1.08h-1.08zM26.59 21.29h1.08v1.08h-1.08zM28.71 21.29h1.08v1.08h-1.08zM29.77 21.29h1.08v1.08h-1.08zM32.96 21.29h1.08v1.08h-1.08zM34.02 21.29h1.08v1.08h-1.08zM35.08 21.29h1.08v1.08h-1.08zM37.2 21.29h1.08v1.08h-1.08zM38.26 21.29h1.08v1.08h-1.08zM9.62 22.35h1.08v1.08h-1.08zM15.98 22.35h1.08v1.08h-1.08zM17.04 22.35h1.08v1.08h-1.08zM19.17 22.35h1.08v1.08h-1.08zM20.23 22.35h1.08v1.08h-1.08zM22.35 22.35h1.08v1.08h-1.08zM25.53 22.35h1.08v1.08h-1.08zM26.59 22.35h1.08v1.08h-1.08zM27.65 22.35h1.08v1.08h-1.08zM30.83 22.35h1.08v1.08h-1.08zM31.89 22.35h1.08v1.08h-1.08zM32.96 22.35h1.08v1.08h-1.08zM36.14 22.35h1.08v1.08h-1.08zM38.26 22.35h1.08v1.08h-1.08zM39.32 22.35h1.08v1.08h-1.08zM10.68 23.41h1.08v1.08h-1.08zM12.8 23.41h1.08v1.08h-1.08zM13.86 23.41h1.08v1.08h-1.08zM14.92 23.41h1.08v1.08h-1.08zM18.11 23.41h1.08v1.08h-1.08zM19.17 23.41h1.08v1.08h-1.08zM26.59 23.41h1.08v1.08h-1.08zM27.65 23.41h1.08v1.08h-1.08zM28.71 23.41h1.08v1.08h-1.08zM29.77 23.41h1.08v1.08h-1.08zM30.83 23.41h1.08v1.08h-1.08zM31.89 23.41h1.08v1.08h-1.08zM10.68 24.47h1.08v1.08h-1.08zM12.8 24.47h1.08v1.08h-1.08zM14.92 24.47h1.08v1.08h-1.08zM15.98 24.47h1.08v1.08h-1.08zM17.04 24.47h1.08v1.08h-1.08zM18.11 24.47h1.08v1.08h-1.08zM21.29 24.47h1.08v1.08h-1.08zM22.35 24.47h1.08v1.08h-1.08zM28.71 24.47h1.08v1.08h-1.08zM34.02 24.47h1.08v1.08h-1.08zM36.14 24.47h1.08v1.08h-1.08zM37.2 24.47h1.08v1.08h-1.08zM38.26 24.47h1.08v1.08h-1.08zM39.32 24.47h1.08v1.08h-1.08zM10.68 25.53h1.08v1.08h-1.08zM13.86 25.53h1.08v1.08h-1.08zM14.92 25.53h1.08v1.08h-1.08zM18.11 25.53h1.08v1.08h-1.08zM20.23 25.53h1.08v1.08h-1.08zM21.29 25.53h1.08v1.08h-1.08zM22.35 25.53h1.08v1.08h-1.08zM23.41 25.53h1.08v1.08h-1.08zM24.47 25.53h1.08v1.08h-1.08zM25.53 25.53h1.08v1.08h-1.08zM26.59 25.53h1.08v1.08h-1.08zM27.65 25.53h1.08v1.08h-1.08zM29.77 25.53h1.08v1.08h-1.08zM34.02 25.53h1.08v1.08h-1.08zM35.08 25.53h1.08v1.08h-1.08zM36.14 25.53h1.08v1.08h-1.08zM38.26 25.53h1.08v1.08h-1.08zM9.62 26.59h1.08v1.08h-1.08zM11.74 26.59h1.08v1.08h-1.08zM14.92 26.59h1.08v1.08h-1.08zM15.98 26.59h1.08v1.08h-1.08zM17.04 26.59h1.08v1.08h-1.08zM19.17 26.59h1.08v1.08h-1.08zM20.23 26.59h1.08v1.08h-1.08zM23.41 26.59h1.08v1.08h-1.08zM24.47 26.59h1.08v1.08h-1.08zM27.65 26.59h1.08v1.08h-1.08zM30.83 26.59h1.08v1.08h-1.08zM31.89 26.59h1.08v1.08h-1.08zM38.26 26.59h1.08v1.08h-1.08zM10.68 27.65h1.08v1.08h-1.08zM11.74 27.65h1.08v1.08h-1.08zM12.8 27.65h1.08v1.08h-1.08zM13.86 27.65h1.08v1.08h-1.08zM19.17 27.65h1.08v1.08h-1.08zM20.23 27.65h1.08v1.08h-1.08zM26.59 27.65h1.08v1.08h-1.08zM27.65 27.65h1.08v1.08h-1.08zM31.89 27.65h1.08v1.08h-1.08zM32.96 27.65h1.08v1.08h-1.08zM34.02 27.65h1.08v1.08h-1.08zM36.14 27.65h1.08v1.08h-1.08zM39.32 27.65h1.08v1.08h-1.08zM9.62 28.71h1.08v1.08h-1.08zM13.86 28.71h1.08v1.08h-1.08zM14.92 28.71h1.08v1.08h-1.08zM15.98 28.71h1.08v1.08h-1.08zM19.17 28.71h1.08v1.08h-1.08zM21.29 28.71h1.08v1.08h-1.08zM23.41 28.71h1.08v1.08h-1.08zM26.59 28.71h1.08v1.08h-1.08zM31.89 28.71h1.08v1.08h-1.08zM34.02 28.71h1.08v1.08h-1.08zM35.08 28.71h1.08v1.08h-1.08zM38.26 28.71h1.08v1.08h-1.08zM39.32 28.71h1.08v1.08h-1.08zM11.74 29.77h1.08v1.08h-1.08zM12.8 29.77h1.08v1.08h-1.08zM14.92 29.77h1.08v1.08h-1.08zM17.04 29.77h1.08v1.08h-1.08zM18.11 29.77h1.08v1.08h-1.08zM19.17 29.77h1.08v1.08h-1.08zM20.23 29.77h1.08v1.08h-1.08zM23.41 29.77h1.08v1.08h-1.08zM25.53 29.77h1.08v1.08h-1.08zM27.65 29.77h1.08v1.08h-1.08zM29.77 29.77h1.08v1.08h-1.08zM31.89 29.77h1.08v1.08h-1.08zM34.02 29.77h1.08v1.08h-1.08zM35.08 29.77h1.08v1.08h-1.08zM38.26 29.77h1.08v1.08h-1.08zM39.32 29.77h1.08v1.08h-1.08zM9.62 30.83h1.08v1.08h-1.08zM11.74 30.83h1.08v1.08h-1.08zM12.8 30.83h1.08v1.08h-1.08zM13.86 30.83h1.08v1.08h-1.08zM15.98 30.83h1.08v1.08h-1.08zM17.04 30.83h1.08v1.08h-1.08zM21.29 30.83h1.08v1.08h-1.08zM24.47 30.83h1.08v1.08h-1.08zM30.83 30.83h1.08v1.08h-1.08zM31.89 30.83h1.08v1.08h-1.08zM32.96 30.83h1.08v1.08h-1.08zM34.02 30.83h1.08v1.08h-1.08zM35.08 30.83h1.08v1.08h-1.08zM37.2 30.83h1.08v1.08h-1.08zM18.11 31.89h1.08v1.08h-1.08zM19.17 31.89h1.08v1.08h-1.08zM21.29 31.89h1.08v1.08h-1.08zM22.35 31.89h1.08v1.08h-1.08zM23.41 31.89h1.08v1.08h-1.08zM26.59 31.89h1.08v1.08h-1.08zM30.83 31.89h1.08v1.08h-1.08zM35.08 31.89h1.08v1.08h-1.08zM37.2 31.89h1.08v1.08h-1.08zM38.26 31.89h1.08v1.08h-1.08zM39.32 31.89h1.08v1.08h-1.08zM23.41 32.96h1.08v1.08h-1.08zM24.47 32.96h1.08v1.08h-1.08zM26.59 32.96h1.08v1.08h-1.08zM28.71 32.96h1.08v1.08h-1.08zM30.83 32.96h1.08v1.08h-1.08zM32.96 32.96h1.08v1.08h-1.08zM35.08 32.96h1.08v1.08h-1.08zM38.26 32.96h1.08v1.08h-1.08zM18.11 34.02h1.08v1.08h-1.08zM19.17 34.02h1.08v1.08h-1.08zM20.23 34.02h1.08v1.08h-1.08zM22.35 34.02h1.08v1.08h-1.08zM23.41 34.02h1.08v1.08h-1.08zM28.71 34.02h1.08v1.08h-1.08zM30.83 34.02h1.08v1.08h-1.08zM35.08 34.02h1.08v1.08h-1.08zM36.14 34.02h1.08v1.08h-1.08zM37.2 34.02h1.08v1.08h-1.08zM38.26 34.02h1.08v1.08h-1.08zM19.17 35.08h1.08v1.08h-1.08zM20.23 35.08h1.08v1.08h-1.08zM21.29 35.08h1.08v1.08h-1.08zM24.47 35.08h1.08v1.08h-1.08zM27.65 35.08h1.08v1.08h-1.08zM30.83 35.08h1.08v1.08h-1.08zM31.89 35.08h1.08v1.08h-1.08zM32.96 35.08h1.08v1.08h-1.08zM34.02 35.08h1.08v1.08h-1.08zM35.08 35.08h1.08v1.08h-1.08zM38.26 35.08h1.08v1.08h-1.08zM39.32 35.08h1.08v1.08h-1.08zM18.11 36.14h1.08v1.08h-1.08zM20.23 36.14h1.08v1.08h-1.08zM21.29 36.14h1.08v1.08h-1.08zM23.41 36.14h1.08v1.08h-1.08zM24.47 36.14h1.08v1.08h-1.08zM27.65 36.14h1.08v1.08h-1.08zM29.77 36.14h1.08v1.08h-1.08zM32.96 36.14h1.08v1.08h-1.08zM34.02 36.14h1.08v1.08h-1.08zM35.08 36.14h1.08v1.08h-1.08zM36.14 36.14h1.08v1.08h-1.08zM37.2 36.14h1.08v1.08h-1.08zM38.26 36.14h1.08v1.08h-1.08zM19.17 37.2h1.08v1.08h-1.08zM22.35 37.2h1.08v1.08h-1.08zM23.41 37.2h1.08v1.08h-1.08zM24.47 37.2h1.08v1.08h-1.08zM26.59 37.2h1.08v1.08h-1.08zM27.65 37.2h1.08v1.08h-1.08zM30.83 37.2h1.08v1.08h-1.08zM35.08 37.2h1.08v1.08h-1.08zM36.14 37.2h1.08v1.08h-1.08zM37.2 37.2h1.08v1.08h-1.08zM39.32 37.2h1.08v1.08h-1.08zM19.17 38.26h1.08v1.08h-1.08zM20.23 38.26h1.08v1.08h-1.08zM26.59 38.26h1.08v1.08h-1.08zM27.65 38.26h1.08v1.08h-1.08zM28.71 38.26h1.08v1.08h-1.08zM29.77 38.26h1.08v1.08h-1.08zM30.83 38.26h1.08v1.08h-1.08zM38.26 38.26h1.08v1.08h-1.08zM18.11 39.32h1.08v1.08h-1.08zM20.23 39.32h1.08v1.08h-1.08zM21.29 39.32h1.08v1.08h-1.08zM22.35 39.32h1.08v1.08h-1.08zM27.65 39.32h1.08v1.08h-1.08zM30.83 39.32h1.08v1.08h-1.08zM34.02 39.32h1.08v1.08h-1.08zM36.14 39.32h1.08v1.08h-1.08zM38.26 39.32h1.08v1.08h-1.08z"/><path class="cls-2" d="M10.73 10.73h5.2v5.2h-5.2z"/><path d="M15.93 9.62h-6.31v7.38h7.38v-7.38zm0 6.31h-5.2v-5.2h5.2z"/><path class="cls-2" d="M34.07 10.73h5.2v5.2h-5.2z"/><path d="M39.27 9.62h-6.27v7.38h7.43v-7.38zm0 6.31h-5.2v-5.2h5.2z"/><path class="cls-2" d="M10.73 34.07h5.2v5.2h-5.2z"/><path d="M15.93 33h-6.31v7.43h7.38v-7.43zm0 6.31h-5.2v-5.2h5.2zM11.74 11.74h3.18v3.18h-3.18zM35.08 11.74h3.18v3.18h-3.18zM11.74 35.08h3.18v3.18h-3.18z"/>
        </symbol>
        <symbol id="kbc-mobile">
            <rect class="cls-1" x="8.63" y="8.63" width="32.75" height="32.75" rx="7.52" ry="7.52"/><path class="cls-2" d="M20.14 35.9v1.25h-1.6v-3.32h1.59v1.49l.94-1.49h1.93l-1.4 1.71 1.32 1.6h-1.83l-.94-1.25zM32 37a4.78 4.78 0 0 1-1.31.18c-1.58 0-2.73-.45-2.73-1.75s1.12-1.69 2.65-1.69a4.91 4.91 0 0 1 1.39.18v1.14a1.94 1.94 0 0 0-1.08-.31c-.58 0-1.17.29-1.17.71s.58.71 1.17.71a2 2 0 0 0 1.08-.3zM23.26 33.83h3.22c.84 0 1.11.33 1.11.83s-.51.81-1 .84c.53 0 1.05.1 1.05.77 0 .44-.27.86-1.19.86h-3.19zm1.59 2.64h.83c.31 0 .42-.13.42-.32s-.11-.33-.41-.33h-.83zm0-1.24h.79c.31 0 .43-.12.43-.31s-.12-.33-.4-.33h-.82zM33.83 15h-17.21a1 1 0 0 0-1 1v12.61a1.3 1.3 0 0 0 1.3 1.3h16.62a1.3 1.3 0 0 0 1.3-1.3v-12.61a1 1 0 0 0-1.01-1zm.56 9.16a.07.07 0 0 1-.07.07h-4.58a.07.07 0 0 1-.07-.07v-3.48h4.72zm-17.77-8.72h17.21a.56.56 0 0 1 .56.56v.9h-18.32v-.9a.56.56 0 0 1 .55-.56zm16.92 14h-16.63a.85.85 0 0 1-.85-.85v-11.24h18.33v2.88h-4.73a.44.44 0 0 0-.44.44v3.48a.52.52 0 0 0 .52.52h4.65v3.95a.85.85 0 0 1-.85.83z"/><circle class="cls-2" cx="31.21" cy="22.45" r=".78"/>
        </symbol>
        <symbol id="cbc-mobile">
            <rect class="cls-1" x="8.63" y="8.63" width="32.75" height="32.75" rx="7.52" ry="7.52"/><path class="cls-2" d="M32 37a4.78 4.78 0 0 1-1.31.18c-1.58 0-2.73-.45-2.73-1.75s1.12-1.69 2.65-1.69a4.91 4.91 0 0 1 1.39.18v1.14a1.94 1.94 0 0 0-1.08-.31c-.58 0-1.17.29-1.17.71s.58.71 1.17.71a2 2 0 0 0 1.08-.3zM23.26 33.83h3.22c.84 0 1.11.33 1.11.83s-.51.81-1 .84c.53 0 1.05.1 1.05.77 0 .44-.27.86-1.19.86h-3.19zm1.59 2.64h.83c.31 0 .42-.13.42-.32s-.11-.33-.41-.33h-.83zm0-1.24h.79c.31 0 .43-.12.43-.31s-.12-.33-.4-.33h-.82zM22.77 37a4.78 4.78 0 0 1-1.31.18c-1.58 0-2.73-.45-2.73-1.75s1.12-1.69 2.65-1.69a4.91 4.91 0 0 1 1.39.18v1.14a1.94 1.94 0 0 0-1.08-.31c-.58 0-1.17.29-1.17.71s.58.71 1.17.71a2 2 0 0 0 1.08-.3zM33.83 15h-17.21a1 1 0 0 0-1 1v12.61a1.3 1.3 0 0 0 1.3 1.3h16.62a1.3 1.3 0 0 0 1.3-1.3v-12.61a1 1 0 0 0-1.01-1zm.56 9.16a.07.07 0 0 1-.07.07h-4.58a.07.07 0 0 1-.07-.07v-3.48h4.72zm-17.77-8.72h17.21a.56.56 0 0 1 .56.56v.9h-18.32v-.9a.56.56 0 0 1 .55-.56zm16.92 14h-16.63a.85.85 0 0 1-.85-.85v-11.24h18.33v2.88h-4.73a.44.44 0 0 0-.44.44v3.48a.52.52 0 0 0 .52.52h4.65v3.95a.85.85 0 0 1-.85.83z"/><circle class="cls-2" cx="31.21" cy="22.45" r=".78"/>
        </symbol>
        <symbol id="wallet">
            <path class="cls-1" d="M33.27 39.88h-.17a3.14 3.14 0 0 1-3-3.31 18.55 18.55 0 0 0-8.63-16.8 3.16 3.16 0 0 1-1.24-4.28 3.12 3.12 0 0 1 4.25-1.25 24.77 24.77 0 0 1 11.91 22.65 3.14 3.14 0 0 1-3.12 2.99z"/><path class="cls-2" d="M22.58 36.17a2.9 2.9 0 0 1-3-2.91c0-6.71-6.9-10.5-7-10.54a3 3 0 0 1-1.21-4.08 3 3 0 0 1 4.11-1.19c.42.23 10.2 5.54 10.13 15.84a2.92 2.92 0 0 1-3.03 2.88z"/><path class="cls-3" d="M33.22 39.88a3.18 3.18 0 0 1-2.88-4.5 25 25 0 0 0 .19-20.61 3.17 3.17 0 1 1 5.63-2.93 31.33 31.33 0 0 1-.05 26.16 3.18 3.18 0 0 1-2.89 1.88z"/><path class="cls-4" d="M22.58 36.45a3 3 0 0 1-2.48-4.77c3.81-5.42.05-13.43 0-13.51a3 3 0 0 1 5.44-2.67c.22.46 5.41 11.26-.49 19.67a3 3 0 0 1-2.47 1.28z"/>
        </symbol>
        <symbol id="sofort">
            <path lass="cls-1" d="M13.86 17.46h-5a4.85 4.85 0 0 0-2.25.35 3.87 3.87 0 0 0-1.77 2.45 2.82 2.82 0 0 0-.16.79 1.18 1.18 0 0 0 .12.59 1.7 1.7 0 0 0 .49.56 2.42 2.42 0 0 0 .75.38l.33.09.51.15a1.07 1.07 0 0 1 .23.1.48.48 0 0 1 .19.19.42.42 0 0 1 0 .18.58.58 0 0 1 0 .21.57.57 0 0 1-.35.39 2.56 2.56 0 0 1-.87.1h-5.19l-.82 2.23h5.53a6 6 0 0 0 2.4-.39 3.67 3.67 0 0 0 2.16-2.72 1.85 1.85 0 0 0-.16-1.43 2 2 0 0 0-1.25-.82l-.29-.08-.46-.13a.58.58 0 0 1-.34-.25.49.49 0 0 1-.01-.4.57.57 0 0 1 .29-.34 1.16 1.16 0 0 1 .56-.12h3.22l.07-.1a7.1 7.1 0 0 1 2.08-2"/>
            <path class="cls-1" d="M13.86 17.45h-5a4.85 4.85 0 0 0-2.25.35 3.87 3.87 0 0 0-1.77 2.45 2.78 2.78 0 0 0-.16.79 1.18 1.18 0 0 0 .12.58 1.69 1.69 0 0 0 .49.56 2.42 2.42 0 0 0 .75.38l.33.09.51.15a1.14 1.14 0 0 1 .23.1.48.48 0 0 1 .19.19.42.42 0 0 1 0 .18.58.58 0 0 1 0 .21.57.57 0 0 1-.35.39 2.55 2.55 0 0 1-.87.1h-5.19l-.82 2.24h5.54a6 6 0 0 0 2.39-.39 3.67 3.67 0 0 0 2.16-2.72 1.85 1.85 0 0 0-.16-1.43 2 2 0 0 0-1.25-.82l-.29-.09-.46-.12a.58.58 0 0 1-.34-.25.49.49 0 0 1-.01-.39.57.57 0 0 1 .29-.34 1.16 1.16 0 0 1 .56-.12h3.22l.07-.1a7.1 7.1 0 0 1 2.08-2"/>
            <path class="cls-1" d="M41.21 17.46a2.18 2.18 0 0 1 .44.47 2.27 2.27 0 0 1 .35 1.61h1.61l-2.41 6.69h2.43l2.43-6.68h3.12l.76-2.08z"/>
            <path id="_Samengesteld_pad_" class="cls-1" d="M41.09 18.32a2.86 2.86 0 0 0-2.49-.86h-3l-3.19 8.76h2.71l1.16-3.08c.06.13.74 3.08.74 3.08h2.85a27.3 27.3 0 0 0-.9-3.05 4.74 4.74 0 0 0-.34-.69 4 4 0 0 0 2.45-2.24 2 2 0 0 0 0-1.92m-2.36 1.94a1.56 1.56 0 0 1-1.62 1.13h-.46l.79-2.12h.45c.82 0 1.12.24.85 1"/>
            <path class="cls-1" d="M18.79 18.28a2.54 2.54 0 0 0-2.23-.95 4.58 4.58 0 0 0-2 .45 6.14 6.14 0 0 0-2.35 2.05 8.91 8.91 0 0 0-1.08 2.09c-.54 1.48-.53 2.68 0 3.46a2.58 2.58 0 0 0 2.28 1c2.41 0 4.2-1.58 5.34-4.69.3-.82.7-2.36 0-3.4m-2.53 3.51c-.75 2.06-1.3 2.57-2.12 2.57-.8 0-1.08-.51-.33-2.55.56-1.53 1.28-2.5 2.16-2.5.83 0 1 .48.29 2.48"/>
            <path id="_Pad_4" class="cls-1" d="M28.41 17.46h-5.12a3 3 0 0 0-3 2.08l-2.43 6.68h2.66l1.25-3.43h2.35l.67-1.84h-2.34l.38-1.07a.56.56 0 0 1 .54-.34h2.78l.07-.1a7.49 7.49 0 0 1 2.2-2"/>
            <path class="cls-1" d="M33.32 18.28a2.54 2.54 0 0 0-2.23-.95 4.58 4.58 0 0 0-2 .45 6.14 6.14 0 0 0-2.35 2.05 8.89 8.89 0 0 0-1.08 2.09c-.54 1.48-.53 2.68 0 3.46a2.58 2.58 0 0 0 2.28 1c2.41 0 4.2-1.58 5.34-4.69.3-.82.7-2.36 0-3.4m-2.54 3.51c-.75 2.06-1.3 2.57-2.12 2.57-.8 0-1.08-.51-.33-2.55.56-1.53 1.28-2.5 2.16-2.5.83 0 1 .48.29 2.48"/>
            <path class="cls-1" d="M41.21 17.45a2.18 2.18 0 0 1 .44.47 2.28 2.28 0 0 1 .35 1.61h1.61l-2.41 6.69h2.43l2.43-6.68h3.12l.76-2.08z"/>
            <path class="cls-1" d="M41.09 18.31a2.86 2.86 0 0 0-2.49-.86h-3l-3.19 8.76h2.71l1.16-3.08c.06.13.74 3.08.74 3.08h2.85a27.45 27.45 0 0 0-.9-3.05 4.79 4.79 0 0 0-.34-.69 4 4 0 0 0 2.45-2.24 2 2 0 0 0 0-1.92m-2.36 1.94a1.56 1.56 0 0 1-1.62 1.13h-.46l.79-2.12h.45c.82 0 1.12.24.85 1"/>
            <path class="cls-1" d="M18.79 18.27a2.54 2.54 0 0 0-2.23-.95 4.59 4.59 0 0 0-2 .45 6.14 6.14 0 0 0-2.35 2.05 8.91 8.91 0 0 0-1.08 2.09c-.54 1.48-.53 2.68 0 3.46a2.59 2.59 0 0 0 2.28 1c2.41 0 4.2-1.58 5.34-4.69.3-.82.7-2.36 0-3.4m-2.58 3.52c-.75 2.06-1.3 2.57-2.12 2.57-.8 0-1.08-.51-.33-2.55.56-1.53 1.28-2.5 2.16-2.5.83 0 1 .48.29 2.48"/>
            <path class="cls-1" d="M28.41 17.45h-5.12a3 3 0 0 0-3 2.08l-2.43 6.68h2.66l1.25-3.43h2.35l.67-1.84h-2.34l.38-1.07a.56.56 0 0 1 .54-.34h2.78l.07-.1a7.49 7.49 0 0 1 2.2-2"/>
            <path class="cls-1" d="M33.32 18.27a2.54 2.54 0 0 0-2.23-.95 4.58 4.58 0 0 0-2 .45 6.14 6.14 0 0 0-2.35 2.05 8.91 8.91 0 0 0-1.08 2.09c-.54 1.48-.53 2.68 0 3.46a2.58 2.58 0 0 0 2.28 1c2.41 0 4.2-1.58 5.34-4.69.3-.82.7-2.36 0-3.4m-2.58 3.52c-.75 2.06-1.3 2.57-2.12 2.57-.8 0-1.08-.51-.33-2.55.56-1.53 1.28-2.5 2.16-2.5.83 0 1 .48.29 2.48"/>
            <path class="cls-2" d="M.32 30.88l1-2.59h.94l-.94 2.56a.85.85 0 0 0-.06.21c-.06.43.21.8.83.8a1.32 1.32 0 0 0 1.27-1l1-2.56h.95l-1 2.58a2.36 2.36 0 0 1-2.33 1.8c-1.26 0-1.81-.61-1.68-1.5a2 2 0 0 1 .02-.3zm2-3.25a.61.61 0 0 1 .57-.48.32.32 0 0 1 .34.39.61.61 0 0 1-.57.48.32.32 0 0 1-.3-.39zm1.38 0a.61.61 0 0 1 .57-.48.32.32 0 0 1 .34.39.61.61 0 0 1-.57.48.32.32 0 0 1-.3-.39zM6.07 28.29h2.12c.76 0 1.11.48 1 1a1.38 1.38 0 0 1-1.16 1.12.74.74 0 0 1 .5.87 1.58 1.58 0 0 1-1.67 1.32h-2.38zm1.16 2.51h-1.16l-.37 1h1.2a.7.7 0 0 0 .74-.56c.05-.24-.11-.44-.41-.44zm.59-1.72h-1.11l-.34.92h1.17a.62.62 0 0 0 .67-.54.35.35 0 0 0-.39-.38zM10.41 28.29h3.09l-.3.81h-2.2l-.34.91h2.11l-.3.81h-2.06l-.36 1h2.15l-.29.81h-3.09zM14.85 31.07h-.72l-.56 1.53h-.93l1.59-4.31h1.87a1.06 1.06 0 0 1 1.17 1.21 1.8 1.8 0 0 1-1.47 1.5l.37 1.6h-1zm1.43-1.47a.44.44 0 0 0-.48-.5h-.94l-.43 1.16h1a.81.81 0 0 0 .84-.66zM20.51 29.64l-1.85 3h-1l.34-4.35h1l-.39 3.11 2-3.11h.73l-.34 3.12 1.91-3.11h1.09l-2.83 4.3h-1zM24.45 28.29h3.09l-.3.81h-2.16l-.34.91h2.11l-.3.81h-2.11l-.36 1h2.15l-.29.81h-3.08zM28.26 28.29h.93l-1.59 4.31h-.93zM29.16 31.2a1.6 1.6 0 0 0 1.37.67.66.66 0 0 0 .73-.49c0-.25-.29-.38-.68-.53-.57-.21-1.29-.48-1.18-1.23a1.83 1.83 0 0 1 1.91-1.4 2 2 0 0 1 1.63.7l-.67.65a1.53 1.53 0 0 0-1.22-.57.63.63 0 0 0-.65.44c0 .23.29.35.68.5.58.22 1.31.5 1.2 1.25a1.84 1.84 0 0 1-1.94 1.47 2.18 2.18 0 0 1-1.86-.8zM33 30.88l1-2.59h.94l-.94 2.57a.85.85 0 0 0-.06.21c-.06.43.21.8.83.8a1.32 1.32 0 0 0 1.27-1l1-2.56h.95l-1 2.58a2.36 2.36 0 0 1-2.33 1.8c-1.26 0-1.81-.61-1.68-1.5a2 2 0 0 1 .02-.31zM39.2 29.69l-1.08 2.91h-.93l1.59-4.31h1l1 2.8 1-2.8h.93l-1.61 4.31h-.9zM45.44 28.22a1.61 1.61 0 0 1 1.64 1.07l-.91.36a1 1 0 0 0-1-.61 1.91 1.91 0 0 0-1.77 1.65 1 1 0 0 0 1.06 1.18 1.53 1.53 0 0 0 .92-.33l.19-.52h-1.13l.3-.81h2.09l-.62 1.68a2.67 2.67 0 0 1-1.89.79c-1.19 0-2-.74-1.87-1.93a3 3 0 0 1 2.99-2.53z"/>
        </symbol>
        <symbol id="belfius">
            <rect class="cls-1" x="10.17" y="10.17" width="29.67" height="29.67" rx="7.52" ry="7.52"/>
            <path class="cls-2" d="M17.89 26.86a2.5 2.5 0 0 0 2.5 2.5h10.94v-10.94a2.5 2.5 0 0 0-2.5-2.5h-8.44a2.5 2.5 0 0 0-2.5 2.5z"/>
            <path class="cls-1" d="M21 20.76a.93.93 0 0 1 1-1h5.36a1 1 0 1 1 0 1.91h-5.43a.94.94 0 0 1-.93-.91zM21 24.52a.94.94 0 0 1 1-1h5.36a1 1 0 0 1 0 1.91h-5.43a.94.94 0 0 1-.93-.91z"/>
            <path class="cls-2" d="M19.14 34.3h-1a.27.27 0 0 1-.27-.27v-3.32a.27.27 0 0 1 .27-.27h1a1.06 1.06 0 0 1 .72 1.85 1.13 1.13 0 0 1-.72 2zm-.69-.53h.69a.6.6 0 1 0 0-1.19h-.69zm0-1.73h.69a.53.53 0 0 0 .52-.53v-.07a.53.53 0 0 0-.52-.46h-.69zM21.66 34.34a1.07 1.07 0 0 1-1.07-1v-.85a1 1 0 0 1 2.05 0v.32a.27.27 0 0 1-.27.27h-1.25v.26a.54.54 0 0 0 .54.49.55.55 0 0 0 .42-.16.26.26 0 0 1 .21-.12.28.28 0 0 1 .28.27.26.26 0 0 1-.05.15.43.43 0 0 1-.06.08 1.08 1.08 0 0 1-.8.29zm-.54-1.82h1v-.06a.49.49 0 0 0-1 0zM23.32 34.3a.26.26 0 0 1-.27-.27v-3.32a.27.27 0 1 1 .53 0v3.29a.26.26 0 0 1-.26.3zM24.62 34.3a.26.26 0 0 1-.27-.27v-2.03h-.2a.27.27 0 0 1 0-.53h.2v-.3a.79.79 0 0 1 .83-.78c.41 0 .59.19.59.39a.24.24 0 0 1-.23.25.29.29 0 0 1-.16 0 .43.43 0 0 0-.21-.06c-.22 0-.29.13-.29.24v.3h.56a.27.27 0 1 1 0 .53h-.56v2a.26.26 0 0 1-.26.26zM26.32 34.3a.26.26 0 0 1-.27-.27v-2.28a.27.27 0 1 1 .53 0v2.25a.26.26 0 0 1-.26.3zm0-3.12a.26.26 0 0 1-.27-.27v-.19a.27.27 0 1 1 .53 0v.19a.26.26 0 0 1-.26.26zM28.11 34.34a1 1 0 0 1-1-1v-1.59a.27.27 0 1 1 .53 0v1.57a.49.49 0 0 0 1 0v-1.57a.27.27 0 1 1 .53 0v1.57a1 1 0 0 1-1.06 1.02zM30.35 34.34a1 1 0 0 1-.81-.37.27.27 0 0 1-.05-.16.28.28 0 0 1 .28-.27.27.27 0 0 1 .21.12.49.49 0 0 0 .36.13c.3 0 .45-.16.45-.32s-.24-.32-.51-.42-.78-.31-.78-.84a.81.81 0 0 1 .88-.79 1 1 0 0 1 .81.42.26.26 0 0 1 0 .15.28.28 0 0 1-.28.27.24.24 0 0 1-.21-.13.46.46 0 0 0-.36-.18c-.21 0-.34.1-.34.25s.21.26.46.35.84.33.84.91a.91.91 0 0 1-.95.88z"/>
        </symbol>
        <symbol id="giropay">
            <rect class="cls-1" x="1.54" y="14.92" width="46.92" height="20.17" rx="3.11" ry="3.11"/><path class="cls-2" d="M5.71 16.5h20.4v17h-20.4a2.72 2.72 0 0 1-2.71-2.72v-11.56a2.72 2.72 0 0 1 2.71-2.72z"/>
            <path class="cls-3" d="M6.58 28a2.18 2.18 0 0 0 1.62.6 1.19 1.19 0 0 0 1.35-1.19v-.41a2 2 0 0 1-1.55.78 2.32 2.32 0 0 1-2.34-2.62 2.32 2.32 0 0 1 2.34-2.61 2 2 0 0 1 1.57.74v-.61h1.68v4.73c0 2.12-1.72 2.57-3 2.57a3.57 3.57 0 0 1-2.36-.77zm3-3.55a1.38 1.38 0 0 0-1-.46 1.16 1.16 0 1 0 0 2.31 1.38 1.38 0 0 0 1-.46zM12.35 21.08a1 1 0 1 1 1 .95 1 1 0 0 1-1-.95zm.12 1.6h1.69v5.19h-1.69zM15.4 22.68h1.7v.66a2.34 2.34 0 0 1 1.66-.78v1.6a1.4 1.4 0 0 0-.42-.05 1.71 1.71 0 0 0-1.24.48v3.29h-1.7zM19.18 25.27a2.71 2.71 0 0 1 2.89-2.72 2.73 2.73 0 1 1 0 5.45 2.72 2.72 0 0 1-2.89-2.73zm4.06 0a1.16 1.16 0 1 0-1.17 1.27 1.16 1.16 0 0 0 1.17-1.27z"/>
            <path class="cls-2" d="M27.59 29.84v-7.17h1.71v.6a2 2 0 0 1 1.59-.73c1.34 0 2.35 1 2.35 2.72s-1.01 2.74-2.35 2.74a2 2 0 0 1-1.59-.74v2.59zm2.73-5.84a1.38 1.38 0 0 0-1 .47v1.58a1.42 1.42 0 0 0 1 .47 1.27 1.27 0 0 0 0-2.53zM37.3 27.35a2.25 2.25 0 0 1-1.67.64 1.75 1.75 0 0 1-1.84-1.71 1.64 1.64 0 0 1 1.84-1.63 2.18 2.18 0 0 1 1.67.6v-.65c0-.45-.4-.75-1.09-.75a2.44 2.44 0 0 0-1.52.55l-.61-1a3.86 3.86 0 0 1 2.43-.81c1.29 0 2.5.46 2.5 2.07v3.25h-1.71zm0-1.28a1.24 1.24 0 0 0-1-.37c-.46 0-.85.19-.85.6s.4.6.85.6a1.21 1.21 0 0 0 1-.38zM40.81 28.51c.39 0 .63-.08.72-.29l.12-.28-2.13-5.27h1.8l1.21 3.33 1.22-3.29h1.81l-2.42 5.89a2.13 2.13 0 0 1-2.26 1.4 3.58 3.58 0 0 1-.73-.09l.24-1.47a1 1 0 0 0 .42.07z"/>
        </symbol>
        <symbol id="ing-homepay">
            <rect class="cls-1" x=".2" y="18.17" width="49.6" height="14.08" rx="2.06" ry="2.06"/>
            <path class="cls-2" d="M20.92 26.05v1.55a5.51 5.51 0 0 1-2.49.64c-2.25 0-3.61-1.33-3.61-3a3.41 3.41 0 0 1 3.52-3.31 3.68 3.68 0 0 1 1.25.21 2.76 2.76 0 0 0 .62.19c.15 0 .19-.26.21-.41h.21l.2 2.08h-.26a2 2 0 0 0-.57-1 2.22 2.22 0 0 0-1.61-.62c-1.35 0-2.15 1.07-2.15 2.68a2.41 2.41 0 0 0 2.25 2.68 2.69 2.69 0 0 0 1.16-.28v-1.56c0-.52-.09-.71-.82-.71v-.19h2.73v.24c-.69 0-.67.21-.67.86zm-7.49-2.53v4.62h-.36l-4.62-4.77a2 2 0 0 1 0 .36v2.9c0 .9 0 1.22.82 1.22v.24h-2.16v-.24c.82 0 .82-.39.82-1.22v-3.3c0-.49 0-1-.86-1v-.24h2l3.84 3.91a1.44 1.44 0 0 1 0-.32v-2.16c0-.86 0-1.22-.79-1.22v-.24h2.17v.24c-.79 0-.84.34-.84 1.22zm-10.5 4.57v-.24c.52 0 .88 0 .88-.79v-4c0-.77-.28-.79-.88-.79v-.24h3.07v.24c-.62 0-.88 0-.88.79v4c0 .75.32.79.88.79v.24zM24.76 20.05h23v8a2.06 2.06 0 0 1-2.06 2.06h-23v-8a2.06 2.06 0 0 1 2.06-2.06z"/>
            <path class="cls-3" d="M23.67 26.48v-3.7h.33v1.59h2.19v-1.59h.35v3.71h-.35v-1.82h-2.19v1.82zM28.41 26.56a1.39 1.39 0 0 1-.48-.09 1.08 1.08 0 0 1-.39-.26 1.25 1.25 0 0 1-.26-.44 1.75 1.75 0 0 1-.1-.61 1.87 1.87 0 0 1 .08-.55 1.28 1.28 0 0 1 .23-.45 1.1 1.1 0 0 1 .39-.3 1.39 1.39 0 0 1 1.09 0 1.12 1.12 0 0 1 .39.3 1.24 1.24 0 0 1 .23.45 2 2 0 0 1 .08.55 1.78 1.78 0 0 1-.09.58 1.3 1.3 0 0 1-.25.44 1.09 1.09 0 0 1-.39.29 1.26 1.26 0 0 1-.53.09zm.91-1.41a1.83 1.83 0 0 0-.05-.44 1.06 1.06 0 0 0-.16-.36.77.77 0 0 0-.28-.24.91.91 0 0 0-.42-.09.84.84 0 0 0-.41.1.81.81 0 0 0-.28.25 1.11 1.11 0 0 0-.16.36 1.67 1.67 0 0 0-.05.42 1.64 1.64 0 0 0 .06.46 1.07 1.07 0 0 0 .17.36.78.78 0 0 0 .28.23.88.88 0 0 0 .39.08.85.85 0 0 0 .42-.1.81.81 0 0 0 .28-.25 1.16 1.16 0 0 0 .16-.36 1.68 1.68 0 0 0 .05-.42zM30.48 26.48h-.31v-2.66h.31v.4a.81.81 0 0 1 .34-.35 1 1 0 0 1 .48-.12 1 1 0 0 1 .31 0 .7.7 0 0 1 .22.11.62.62 0 0 1 .15.16 1.06 1.06 0 0 1 .1.2.9.9 0 0 1 .36-.39 1 1 0 0 1 .51-.13.9.9 0 0 1 .44.09.65.65 0 0 1 .25.24.92.92 0 0 1 .12.34 2.58 2.58 0 0 1 0 .39v1.68h-.31v-1.8a.75.75 0 0 0-.12-.45.53.53 0 0 0-.45-.17.75.75 0 0 0-.33.07.74.74 0 0 0-.28.23.58.58 0 0 0-.09.16 1.44 1.44 0 0 0-.05.19 1.5 1.5 0 0 0 0 .2v1.6199999999999999h-.31v-1.85a.76.76 0 0 0-.12-.45.53.53 0 0 0-.45-.17.75.75 0 0 0-.6.3.61.61 0 0 0-.08.16 1.3 1.3 0 0 0-.05.19 1.5 1.5 0 0 0 0 .2v.18zM34.69 25.22a1.43 1.43 0 0 0 .06.41 1 1 0 0 0 .17.33.82.82 0 0 0 .28.23.86.86 0 0 0 .39.08.85.85 0 0 0 .52-.16.77.77 0 0 0 .29-.45h.34a1.69 1.69 0 0 1-.15.35 1.08 1.08 0 0 1-.23.28 1 1 0 0 1-.33.19 1.34 1.34 0 0 1-.44.07 1.29 1.29 0 0 1-.55-.11 1 1 0 0 1-.38-.3 1.25 1.25 0 0 1-.22-.44 2 2 0 0 1-.07-.55 1.74 1.74 0 0 1 .08-.55 1.4 1.4 0 0 1 .24-.45 1.12 1.12 0 0 1 .38-.3 1.16 1.16 0 0 1 .52-.11 1.06 1.06 0 0 1 .87.38 1.67 1.67 0 0 1 .31 1.1zm1.75-.22a1.22 1.22 0 0 0-.05-.37.87.87 0 0 0-.16-.3.77.77 0 0 0-.27-.2.85.85 0 0 0-.37-.07.82.82 0 0 0-.36.08.84.84 0 0 0-.27.21 1 1 0 0 0-.18.3 1.37 1.37 0 0 0-.09.36zM39.88 24.88a1.41 1.41 0 0 1-.93.27h-.77v1.33h-.77v-3.7h1.59a1.28 1.28 0 0 1 .88.29 1.12 1.12 0 0 1 .33.89 1.15 1.15 0 0 1-.33.92zm-.59-1.34a.63.63 0 0 0-.41-.12h-.7v1.09h.7a.59.59 0 0 0 .41-.13.55.55 0 0 0 .15-.42.51.51 0 0 0-.15-.42zM41.85 24.82a1.13 1.13 0 0 0 .29-.06.22.22 0 0 0 .16-.2.24.24 0 0 0-.12-.23.74.74 0 0 0-.35-.06.46.46 0 0 0-.36.13.52.52 0 0 0-.1.25h-.69a1.06 1.06 0 0 1 .2-.59 1.18 1.18 0 0 1 1-.36 1.75 1.75 0 0 1 .8.18.68.68 0 0 1 .35.67v1.58a.4.4 0 0 0 0 .19.26.26 0 0 0 .11.08v.11h-.78a.78.78 0 0 1 0-.16v-.17a1.47 1.47 0 0 1-.34.27 1 1 0 0 1-.53.13.91.91 0 0 1-.62-.21.75.75 0 0 1-.24-.6.78.78 0 0 1 .37-.77 1.74 1.74 0 0 1 .63-.18zm.44.33l-.14.07h-.35a1.08 1.08 0 0 0-.33.1.33.33 0 0 0-.17.3.32.32 0 0 0 .1.27.39.39 0 0 0 .25.08.75.75 0 0 0 .43-.14.58.58 0 0 0 .21-.5zM43.74 27h.26a.36.36 0 0 0 .16-.06.39.39 0 0 0 .12-.18.44.44 0 0 0 0-.17l-1-2.86h.8l.6 2 .57-2h.76l-.94 2.7a3.81 3.81 0 0 1-.43 1 .82.82 0 0 1-.63.19h-.33z"/>
        </symbol>
        <symbol id="ing-homepay-alt">
            <path class="cls-1" d="M9.13 12.07h31.75v25.86h-31.75z"/>
            <path class="cls-2" d="M37.43 20.5v2.22a7.91 7.91 0 0 1-3.57.92c-3.23 0-5.17-1.91-5.17-4.31a4.9 4.9 0 0 1 5.05-4.74 5.29 5.29 0 0 1 1.79.31 4 4 0 0 0 .89.28c.22 0 .28-.37.31-.59h.27l.28 3h-.37a2.91 2.91 0 0 0-.8-1.42 3.18 3.18 0 0 0-2.31-.89c-1.94 0-3.08 1.54-3.08 3.85s1.41 3.87 3.28 3.87a3.86 3.86 0 0 0 1.66-.4v-2.32c0-.74-.12-1-1.17-1v-.34h3.91v.34c-1 0-1 .31-1 1.23zm-10.75-3.64v6.62h-.52l-6.62-6.84a2.9 2.9 0 0 1 0 .52v4.16c0 1.29 0 1.76 1.17 1.76v.34h-3.09v-.34c1.17 0 1.17-.55 1.17-1.76v-4.73c0-.71 0-1.48-1.23-1.48v-.34h2.93l5.45 5.61a2.06 2.06 0 0 1 0-.46v-3c0-1.23 0-1.76-1.14-1.76v-.34h3.11v.34c-1.14 0-1.2.49-1.2 1.76zm-15.07 6.56v-.34c.74 0 1.26-.06 1.26-1.14v-5.7c0-1.11-.4-1.14-1.26-1.14v-.34h4.39v.34c-.89 0-1.26 0-1.26 1.14v5.7c0 1.08.46 1.14 1.26 1.14v.34zM11.53 24.6h26.94v10.82h-26.94z"/>
            <path class="cls-3" d="M12.94 31.53v-4h.38v1.71h2.36v-1.71h.38v4h-.38v-2h-2.36v2zM18 31.61a1.5 1.5 0 0 1-.52-.1 1.16 1.16 0 0 1-.42-.28 1.35 1.35 0 0 1-.29-.47 1.88 1.88 0 0 1-.11-.66 2 2 0 0 1 .08-.59 1.38 1.38 0 0 1 .26-.51 1.19 1.19 0 0 1 .42-.32 1.49 1.49 0 0 1 1.17 0 1.21 1.21 0 0 1 .41.32 1.34 1.34 0 0 1 .25.48 2.12 2.12 0 0 1 .08.59 1.91 1.91 0 0 1-.09.62 1.4 1.4 0 0 1-.27.48 1.18 1.18 0 0 1-.42.31 1.35 1.35 0 0 1-.55.13zm1-1.51a2 2 0 0 0-.05-.48 1.14 1.14 0 0 0-.17-.39.83.83 0 0 0-.3-.26 1 1 0 0 0-.45-.09.91.91 0 0 0-.45.1.88.88 0 0 0-.3.27 1.19 1.19 0 0 0-.17.39 1.8 1.8 0 0 0-.06.45 1.77 1.77 0 0 0 .06.49 1.15 1.15 0 0 0 .19.39.84.84 0 0 0 .3.25 1 1 0 0 0 .42.09.91.91 0 0 0 .45-.1.87.87 0 0 0 .3-.27 1.25 1.25 0 0 0 .17-.39 1.81 1.81 0 0 0 .06-.46zM20.27 31.53h-.33v-2.88h.33v.43a.87.87 0 0 1 .37-.38 1.07 1.07 0 0 1 .52-.13 1.12 1.12 0 0 1 .34 0 .75.75 0 0 1 .24.12.67.67 0 0 1 .16.17 1.14 1.14 0 0 1 .11.22 1 1 0 0 1 .39-.42 1.1 1.1 0 0 1 .55-.14 1 1 0 0 1 .47.1.7.7 0 0 1 .27.26 1 1 0 0 1 .12.36 2.77 2.77 0 0 1 0 .42v1.81h-.33v-2a.81.81 0 0 0-.13-.49.57.57 0 0 0-.48-.18.81.81 0 0 0-.35.08.8.8 0 0 0-.3.25.63.63 0 0 0-.09.17 1.55 1.55 0 0 0-.06.2 1.62 1.62 0 0 0 0 .21v1.74h-.33v-2a.81.81 0 0 0-.13-.49.57.57 0 0 0-.49-.18.8.8 0 0 0-.65.33.66.66 0 0 0-.09.17 1.4 1.4 0 0 0-.06.2 1.62 1.62 0 0 0 0 .21v.19zM24.81 30.17a1.54 1.54 0 0 0 .06.44 1.08 1.08 0 0 0 .13.39.88.88 0 0 0 .3.24.93.93 0 0 0 .42.09.91.91 0 0 0 .56-.17.83.83 0 0 0 .31-.49h.41a1.82 1.82 0 0 1-.16.38 1.17 1.17 0 0 1-.25.31 1.09 1.09 0 0 1-.36.2 1.44 1.44 0 0 1-.48.07 1.39 1.39 0 0 1-.59-.12 1.13 1.13 0 0 1-.41-.32 1.34 1.34 0 0 1-.24-.48 2.18 2.18 0 0 1-.08-.59 1.88 1.88 0 0 1 .09-.59 1.51 1.51 0 0 1 .26-.49 1.21 1.21 0 0 1 .41-.33 1.25 1.25 0 0 1 .56-.12 1.15 1.15 0 0 1 .93.41 1.8 1.8 0 0 1 .32 1.17zm1.87-.28a1.32 1.32 0 0 0-.06-.4.94.94 0 0 0-.17-.32.83.83 0 0 0-.29-.22.92.92 0 0 0-.39-.08.88.88 0 0 0-.39.08.91.91 0 0 0-.29.22 1.11 1.11 0 0 0-.19.32 1.48 1.48 0 0 0-.09.39zM30.39 29.8a1.52 1.52 0 0 1-1 .29h-.83v1.44h-.83v-4h1.71a1.38 1.38 0 0 1 .94.31 1.2 1.2 0 0 1 .35 1 1.24 1.24 0 0 1-.34.96zm-.64-1.44a.67.67 0 0 0-.44-.13h-.75v1.17h.75a.64.64 0 0 0 .44-.14.59.59 0 0 0 .16-.45.55.55 0 0 0-.16-.45zM32.52 29.73a1.21 1.21 0 0 0 .31-.07.23.23 0 0 0 .17-.22.26.26 0 0 0-.13-.25.8.8 0 0 0-.37-.07.49.49 0 0 0-.39.14.56.56 0 0 0-.11.27h-.74a1.14 1.14 0 0 1 .22-.64 1.27 1.27 0 0 1 1.05-.39 1.88 1.88 0 0 1 .87.19.74.74 0 0 1 .38.73v1.6900000000000002a.43.43 0 0 0 0 .21.28.28 0 0 0 .11.09v.11h-.84a.84.84 0 0 1 0-.17v-.18a1.58 1.58 0 0 1-.37.29 1.12 1.12 0 0 1-.57.14 1 1 0 0 1-.67-.23.81.81 0 0 1-.26-.65.84.84 0 0 1 .42-.79 1.88 1.88 0 0 1 .68-.19zm.47.36l-.15.07-.21.05h-.18a1.16 1.16 0 0 0-.36.11.35.35 0 0 0-.18.33.34.34 0 0 0 .09.35.42.42 0 0 0 .27.09.81.81 0 0 0 .47-.15.62.62 0 0 0 .22-.53zM34.55 32.09h.31a.39.39 0 0 0 .14-.09.42.42 0 0 0 .13-.19.48.48 0 0 0 0-.18l-1.08-3.08h.95l.64 2.18.61-2.18h.82l-1 2.9a4.1 4.1 0 0 1-.46 1 .88.88 0 0 1-.68.2h-.35z"/>
        </symbol>
        <symbol id="klarna-now">
            <path class="cls-3" d="M2.54 10.05h44.92v29.94h-44.92z"/>
            <path class="cls-1" d="M16.67 30.64h-1.33a3.4 3.4 0 0 1-1.34 2.74l-.53.39 2 2.78h1.68l-1.87-2.55a4.69 4.69 0 0 0 1.39-3.36zM11.9 30.64h1.37v5.92h-1.37zM17.56 30.64h1.29v5.92h-1.29zM30.15 32.35a1.49 1.49 0 0 0-1.27.57v-.46h-1.23v4.09h1.24v-2.15a.86.86 0 0 1 .92-.92.8.8 0 0 1 .85.92v2.16h1.24v-2.56a1.63 1.63 0 0 0-1.75-1.65zm-7.4.11v.26a2.16 2.16 0 1 0 0 3.57v.26h1.25v-4.09zm-1.12 3.09a1.05 1.05 0 1 1 1.11-1 1.08 1.08 0 0 1-1.12 1.01zm4.25-2.55v-.53h-1.26v4.09h1.26v-1.92c0-.64.7-1 1.19-1v-1.18a1.55 1.55 0 0 0-1.19.54zm9.84-.53v.26a2.16 2.16 0 1 0 0 3.57v.26h1.23v-4.1zm-1.12 3.09a1.05 1.05 0 1 1 1.11-1 1.08 1.08 0 0 1-1.11 1zm3.66-.45a.77.77 0 1 0 .77.77.77.77 0 0 0-.77-.78zM23.39 24a.81.81 0 0 1 0 1.14l-.06.07a.81.81 0 0 1-1.14 0l-1.8-1.78c-.49-.5-.57-1.11-.25-1.43l.06-.07a.73.73 0 0 1 1-.06.32.32 0 1 0 .4-.51 1.38 1.38 0 0 0-1.84.12l-.06.07a1.67 1.67 0 0 0 .26 2.34l1.8 1.78a1.46 1.46 0 0 0 2.06 0l.06-.07a1.46 1.46 0 0 0 0-2 .32.32 0 1 0-.45.46zm-1.08-9.65l.74 6a.32.32 0 0 0 .64-.08l-.69-6.05a1 1 0 0 1 .6-1.16.89.89 0 0 1 1.06.7l1.28 5.47a.32.32 0 0 0 .63-.15l-1.28-5.46a1.54 1.54 0 0 0-1.83-1.19 1.6 1.6 0 0 0-1.15 1.89zM29.07 21.42l1.45-7.25a1.53 1.53 0 0 0-1.07-1.79 1.6 1.6 0 0 0-2 1.14l-1.56 5.48a.32.32 0 0 0 .62.18l1.61-5.52a1 1 0 0 1 1.17-.66.89.89 0 0 1 .6 1l-1.45 7.25a.32.32 0 0 0 .63.13zm-3.66 7a4.09 4.09 0 0 1-4.23-4.09.32.32 0 0 0-.65 0 4.74 4.74 0 0 0 4.88 4.74.32.32 0 1 0 0-.65zm-1.14-5.65a.8.8 0 0 1-.32.44h-.07a.81.81 0 0 1-1.13-.21l-1.41-2.1c-.39-.59-.34-1.2 0-1.46h.07c.48-.28.88-.07 1.3.54l1.18 1.76a.32.32 0 0 0 .54-.36l-1.15-1.78c-.58-.85-1.31-1.23-2.17-.72l-.09.06a1.67 1.67 0 0 0-.21 2.35l1.42 2.11a1.46 1.46 0 0 0 2 .39h.07a1.45 1.45 0 0 0 .58-.81.32.32 0 0 0-.62-.17zM26.41 23.82a2.41 2.41 0 0 0-1.14 2.18.32.32 0 0 0 .65 0 1.69 1.69 0 0 1 1-1.72 2.2 2.2 0 0 1 1-.11h.08a.32.32 0 0 0 .13-.63l-2.47-.54c-1.16-.32-1.34-.75-1.12-1.47a.71.71 0 0 1 .57-.54 1.59 1.59 0 0 1 .61 0h.12l3.77.88h.07a.61.61 0 0 1 .19.14 2.1 2.1 0 0 1 .32 1.62c-.25 2.93-1.61 4.75-4.86 4.73a.32.32 0 1 0 0 .65c3.64 0 5.23-2.09 5.51-5.32a2.68 2.68 0 0 0-.49-2.11 1.09 1.09 0 0 0-.62-.36l-3.73-.83h-.17a2.21 2.21 0 0 0-.86 0 1.35 1.35 0 0 0-1.05 1c-.31 1 0 1.85 1.59 2.28z"/>
        </symbol>
        <symbol id="klarna-paylater">
            <path class="cls-3" d="M2.54 10.05h44.92v29.94h-44.92z"/>
            <path class="cls-1" d="M16.67 30.64h-1.33a3.4 3.4 0 0 1-1.34 2.74l-.53.39 2 2.78h1.68l-1.87-2.55a4.69 4.69 0 0 0 1.39-3.36zM11.9 30.64h1.37v5.92h-1.37zM17.56 30.64h1.29v5.92h-1.29zM30.15 32.35a1.49 1.49 0 0 0-1.27.57v-.46h-1.23v4.09h1.24v-2.15a.86.86 0 0 1 .92-.92.8.8 0 0 1 .85.92v2.16h1.24v-2.56a1.63 1.63 0 0 0-1.75-1.65zm-7.4.11v.26a2.16 2.16 0 1 0 0 3.57v.26h1.25v-4.09zm-1.12 3.09a1.05 1.05 0 1 1 1.11-1 1.08 1.08 0 0 1-1.12 1.01zm4.25-2.55v-.53h-1.26v4.09h1.26v-1.92c0-.64.7-1 1.19-1v-1.18a1.55 1.55 0 0 0-1.19.54zm9.84-.53v.26a2.16 2.16 0 1 0 0 3.57v.26h1.23v-4.1zm-1.12 3.09a1.05 1.05 0 1 1 1.11-1 1.08 1.08 0 0 1-1.11 1zm3.66-.45a.77.77 0 1 0 .77.77.77.77 0 0 0-.77-.78zM13.25 17.68a53.08 53.08 0 0 1 5.39-.3c1.26 0 2.18 0 3.43.13h1.1400000000000001l1.51.05a.32.32 0 1 0 0-.63c-.48 0-.93 0-1.47-.05h-1.1400000000000001c-1.26-.09-2.2-.14-3.48-.14a53.74 53.74 0 0 0-5.74.33.32.32 0 0 0-.29.31v1a.31.31 0 0 0 0 .15 4.15 4.15 0 0 1 .48 1.51 8.65 8.65 0 0 0 .77 3.68 4.22 4.22 0 0 0 4.15 2.34c3.54 0 4.59-.79 5.35-3.13l.12-.37.12-.37c0 .12.53-1.58.66-1.88s.32-.59.46-.59a.32.32 0 1 0 0-.63c-.48 0-.78.33-1.05 1-.14.33-.73 2.07-.67 1.92l-.13.38-.12.37a3.35 3.35 0 0 1-1.12 1.92 6.08 6.08 0 0 1-3.62.78 3.58 3.58 0 0 1-3.54-2 8.19 8.19 0 0 1-.7-3.46 4.79 4.79 0 0 0-.51-1.69zM18.1 24.34a2.83 2.83 0 0 1-2.07-.8 4.65 4.65 0 0 1-1.1-3v-.86a1 1 0 0 1 .23-.75 1 1 0 0 1 .71-.36c.78-.09 2-.13 2.76-.14 2 0 3.11.1 3.56.39.6.38.53 1 0 2.6l-.14.36c-.61 1.63-.91 2.56-3.95 2.56zm1.14-5.34l-3.06 3.7a.31.31 0 0 0 .05.44.33.33 0 0 0 .45 0l3.05-3.75a.31.31 0 0 0-.05-.44.33.33 0 0 0-.44.05zm-2-.13l-1.78 2.13a.31.31 0 0 0 .05.44.33.33 0 0 0 .45 0l1.75-2.15a.31.31 0 0 0-.05-.44.33.33 0 0 0-.45-.03zm19-1.14v.63a4.77 4.77 0 0 0-.57 1.64 8.24 8.24 0 0 1-.67 3.46 3.58 3.58 0 0 1-3.54 2 6.07 6.07 0 0 1-3.62-.78 3.37 3.37 0 0 1-1.12-1.92l-.12-.36-.16-.4c.05.15-.54-1.59-.67-1.92-.28-.66-.57-1-1.05-1a.32.32 0 1 0 0 .63c.14 0 .27.15.46.59l.66 1.88.12.37.12.36c.76 2.35 1.81 3.14 5.35 3.14a4.22 4.22 0 0 0 4.11-2.33 8.7 8.7 0 0 0 .77-3.7 4.14 4.14 0 0 1 .48-1.49.31.31 0 0 0 0-.15v-1a.32.32 0 0 0-.29-.31 53.73 53.73 0 0 0-5.74-.33c-1.28 0-2.22 0-3.48.14h-1.1400000000000001l-1.47.05a.32.32 0 1 0 0 .63c.49 0 1 0 1.51-.05h1.1400000000000001c1.25-.09 2.17-.13 3.43-.13a53.07 53.07 0 0 1 5.43.3zM31.32 24.34c-3 0-3.34-.93-3.88-2.62l-.12-.37c-.53-1.64-.6-2.21 0-2.6.45-.3 1.55-.41 3.56-.39.79 0 2 .05 2.76.14a1 1 0 0 1 .71.37 1 1 0 0 1 .23.76 6.25 6.25 0 0 1 0 .89 4.65 4.65 0 0 1-1.1 3 2.83 2.83 0 0 1-2.08.8zm-1.77-5.52l-1.76 2.18a.31.31 0 0 0 .05.44.33.33 0 0 0 .45 0l1.71-2.22a.31.31 0 0 0-.05-.44.33.33 0 0 0-.41.04zm2 .13l-3.03 3.75a.31.31 0 0 0 .05.44.33.33 0 0 0 .45 0l3.05-3.75a.31.31 0 0 0-.07-.49.33.33 0 0 0-.43.1z"/>
        </symbol>
        <symbol id="klarna-sliceit">
            <path class="cls-3" d="M2.54 10.05h44.92v29.94h-44.92z"/>
            <path class="cls-1" d="M16.67 30.64h-1.33a3.4 3.4 0 0 1-1.34 2.74l-.53.39 2 2.78h1.68l-1.87-2.55a4.69 4.69 0 0 0 1.39-3.36zM11.9 30.64h1.37v5.92h-1.37zM17.56 30.64h1.29v5.92h-1.29zM30.15 32.35a1.49 1.49 0 0 0-1.27.57v-.46h-1.23v4.09h1.24v-2.15a.86.86 0 0 1 .92-.92.8.8 0 0 1 .85.92v2.16h1.24v-2.56a1.63 1.63 0 0 0-1.75-1.65zm-7.4.11v.26a2.16 2.16 0 1 0 0 3.57v.26h1.25v-4.09zm-1.12 3.09a1.05 1.05 0 1 1 1.11-1 1.08 1.08 0 0 1-1.12 1.01zm4.25-2.55v-.53h-1.26v4.09h1.26v-1.92c0-.64.7-1 1.19-1v-1.18a1.55 1.55 0 0 0-1.19.54zm9.84-.53v.26a2.16 2.16 0 1 0 0 3.57v.26h1.23v-4.1zm-1.12 3.09a1.05 1.05 0 1 1 1.11-1 1.08 1.08 0 0 1-1.11 1zm3.66-.45a.77.77 0 1 0 .77.77.77.77 0 0 0-.77-.78zM33.12 27.48l-9.66-13.48a17.2 17.2 0 0 0-6.84 10.7zm-17.2-2.58a17.85 17.85 0 0 1 7.43-11.62.33.33 0 0 1 .46.08l10.3 14.38a.32.32 0 0 1-.32.5l-17.6-3a.32.32 0 0 1-.27-.34zM24.5 15.48l-.29.31-.15.17-.15.17c-.53.58-.91.84-1.27.85a2.22 2.22 0 0 0-2.4 2.45v.3a2.34 2.34 0 0 1 0 .31c0 .34-.27.75-1.26 1.8a2.89 2.89 0 0 0-.53 3.74.33.33 0 0 0 .46.07.32.32 0 0 0 .07-.45 2.26 2.26 0 0 1 .49-2.92c1.1-1.17 1.42-1.67 1.43-2.23a2.72 2.72 0 0 0 0-.38v-.26a1.58 1.58 0 0 1 1.75-1.79c.6 0 1.09-.36 1.74-1.06l.16-.17.15-.16.27-.28a.32.32 0 0 0 0-.46.33.33 0 0 0-.47-.01zm-.73 10.79a2.6 2.6 0 0 1 4.93.54 2.55 2.55 0 0 1 0 .3.33.33 0 0 0 .65 0 3.18 3.18 0 0 0 0-.38 3.26 3.26 0 0 0-6.18-.73.32.32 0 0 0 .17.42.33.33 0 0 0 .43-.15zm-1.11-2.91a3 3 0 0 0-2.58.74.32.32 0 0 0 0 .46.33.33 0 0 0 .46 0 2.31 2.31 0 0 1 2-.57.33.33 0 0 0 .38-.26.32.32 0 0 0-.26-.37zm4.49-1.09a2.92 2.92 0 0 0 1.93 1.84.33.33 0 0 0 .41-.21.32.32 0 0 0-.22-.4 2.27 2.27 0 0 1-1.5-1.43.33.33 0 0 0-.41-.2.32.32 0 0 0-.21.4zM24.28 22.91a2.34 2.34 0 1 1 2.37-2.34 2.35 2.35 0 0 1-2.37 2.34zm0-.64a1.69 1.69 0 1 0-1.72-1.69 1.71 1.71 0 0 0 1.72 1.68z"/>
        </symbol>
        <symbol id="afterpay">
            <path class="cls-1" d="M3.54 20.09a2.94 2.94 0 0 0-1.16 0 2.77 2.77 0 0 0-2.3 2.8v4.46a.86.86 0 0 0 .08.42.51.51 0 0 0 .33.23.5.5 0 0 0 .41-.08.69.69 0 0 0 .26-.61v-1.8h3.61v1.81a.91.91 0 0 0 .1.42.51.51 0 0 0 .32.25h.11a.47.47 0 0 0 .29-.09.66.66 0 0 0 .24-.61v-4.4a2.77 2.77 0 0 0-2.29-2.8zm1.22 2.81v1.64h-3.6v-1.64a1.69 1.69 0 0 1 .84-1.55 1.82 1.82 0 0 1 1.38-.28 1.51 1.51 0 0 1 .63.27h-.01a1.72 1.72 0 0 1 .79 1.55zm11.75 2.7a.5.5 0 0 0-.3-.25.53.53 0 0 0-.4 0 .62.62 0 0 0-.31.48v.30000000000000004a1.22 1.22 0 0 1-1.45 1c-.47-.07-1.09-.32-1.09-1.6v-.08h1.41c.17 0 .68 0 .68-.51a.47.47 0 0 0-.42-.48h-1.71v-2a.86.86 0 0 0-.08-.42.51.51 0 0 0-.32-.25.5.5 0 0 0-.41.08.66.66 0 0 0-.24.61v2.91c0 1.66.6 2.49 1.95 2.71a2.6 2.6 0 0 0 .47 0 2.26 2.26 0 0 0 2.23-1.7v-.24a1 1 0 0 0-.06-.63zm6.89-1.39a3.23 3.23 0 1 0-6.18 1.87 3.1 3.1 0 0 0 3 2.12 3.55 3.55 0 0 0 .76-.08 3.4 3.4 0 0 0 1.11-.47 2.72 2.72 0 0 0 .58-.49.79.79 0 0 0 .26-.58.49.49 0 0 0-.59-.43.77.77 0 0 0-.32.18l-.09.11-.13.12a2.06 2.06 0 0 1-1 .58 2.12 2.12 0 0 1-2.47-1.32l-.07-.23h4.74a.49.49 0 0 0 .38-.2c.16-.22.15-.54 0-1.18zm-5.16.18a2.12 2.12 0 0 1 2.66-1.39 2.15 2.15 0 0 1 1.47 1.54 1.44 1.44 0 0 1 0 .17h-4.25a1.79 1.79 0 0 1 .07-.26zm10.6-.63c0-.09 0-.17-.07-.24v-.06a2.32 2.32 0 0 0-2.26-1.61 2.28 2.28 0 0 0-.5 0 2.31 2.31 0 0 0-1.82 2.6v2.86a.86.86 0 0 0 .1.42.51.51 0 0 0 .32.25h.12a.47.47 0 0 0 .29-.09.66.66 0 0 0 .22-.61v-2.79c0-1 .3-1.42 1-1.57a1.26 1.26 0 0 1 1.49.87 2.13 2.13 0 0 0 .23.76.55.55 0 0 0 .66.11c.32-.18.29-.59.22-.94z"/>
            <path class="cls-2" d="M35 21a2.72 2.72 0 0 0-2.15-1 2.64 2.64 0 0 0-2.66 2.86v4.46a.86.86 0 0 0 .1.42.51.51 0 0 0 .32.25h.12a.47.47 0 0 0 .29-.09.68.68 0 0 0 .25-.61v-2h1.54a2.55 2.55 0 0 0 2.73-2.09 2.64 2.64 0 0 0-.54-2.2zm-.49 1.69a1.61 1.61 0 0 1-1.71 1.61h-1.5v-1.51a1.62 1.62 0 1 1 3.23-.11zm7.73 2a2.83 2.83 0 0 0-.11-.68 3 3 0 0 0-1.45-1.79 3.28 3.28 0 0 0-2.55-.22 3.17 3.17 0 0 0 0 6.09 3.54 3.54 0 0 0 .9.11 3.15 3.15 0 0 0 1.28-.27 2.67 2.67 0 0 0 .84-.59.89.89 0 0 0 .06.42.51.51 0 0 0 .32.25.5.5 0 0 0 .41-.08.68.68 0 0 0 .25-.61v-2.6zm-2.65 2.4a2.09 2.09 0 0 1-2.59-1.48 2 2 0 0 1-.08-.44 2.14 2.14 0 0 1 1.48-2.17 2.3 2.3 0 0 1 .68-.11 2.08 2.08 0 0 1 1.21.38 2.13 2.13 0 0 1 .89 1.7 2.08 2.08 0 0 1-1.63 2.15zm8.25-4.84l-.22.11.22-.11a.51.51 0 0 0-.32-.25.5.5 0 0 0-.41.08.67.67 0 0 0-.23.61v2.84a1.66 1.66 0 0 1-.47 1.28 1.34 1.34 0 0 1-2.16-1.18v-2.94a1 1 0 0 0-.07-.42.51.51 0 0 0-.32-.25.5.5 0 0 0-.41.08.68.68 0 0 0-.25.61v2.95a2.27 2.27 0 0 0 1.47 2.34 2.36 2.36 0 0 0 2.15-.29 1.25 1.25 0 0 1-1 1.14 1.21 1.21 0 0 1-.85-.06 1.12 1.12 0 0 1-.42-.33l-.16-.2-.1-.11a.72.72 0 0 0-.14-.15.5.5 0 0 0-.47 0 .51.51 0 0 0-.3.37.93.93 0 0 0 .22.66 2.44 2.44 0 0 0 .46.48 2.26 2.26 0 0 0 1.41.46 2.78 2.78 0 0 0 .68-.08 2.37 2.37 0 0 0 1.76-2.56v-4.64a.82.82 0 0 0-.11-.41z"/>
            <path class="cls-1" d="M11.25 23.75a1.63 1.63 0 0 0-.07-.24v-.06a2.32 2.32 0 0 0-2.28-1.61 2.23 2.23 0 0 0-.5 0 2.31 2.31 0 0 0-1.82 2.6v2.86a.85.85 0 0 0 .1.42.51.51 0 0 0 .32.28h.12a.47.47 0 0 0 .29-.09.67.67 0 0 0 .24-.61v-1.87h1.5c.49 0 .61-.25.63-.47a.49.49 0 0 0-.12-.36.67.67 0 0 0-.51-.17h-1.54c0-.93.31-1.39 1-1.54a1.23 1.23 0 0 1 1.23.39 1.28 1.28 0 0 1 .26.47 2.13 2.13 0 0 0 .23.76.55.55 0 0 0 .66.11c.33-.18.3-.59.23-.94z"/>
            <path class="cls-2" d="M49.68 21.59a.75.75 0 0 1-.55.23.73.73 0 0 1-.55-.23.78.78 0 0 1 0-1.1.78.78 0 0 1 1.1 0 .72.72 0 0 1 .23.55.77.77 0 0 1-.23.55m-1-1a.67.67 0 0 0-.2.47.65.65 0 0 0 .2.48.64.64 0 0 0 .47.2.63.63 0 0 0 .47-.2.67.67 0 0 0 .2-.48.63.63 0 0 0-.2-.47.64.64 0 0 0-.47-.2.67.67 0 0 0-.47.2m.46 0a.65.65 0 0 1 .23 0 .21.21 0 0 1 .13.22.18.18 0 0 1-.08.17.27.27 0 0 1-.13 0 .23.23 0 0 1 .2.22v.13h-.13v-.11a.23.23 0 0 0-.08-.2.33.33 0 0 0-.17 0h-.11v.34h-.16v-.85zm.16.14a.38.38 0 0 0-.18 0h-.12v.27h.27a.14.14 0 0 0 .09-.13.12.12 0 0 0-.06-.12"/>
        </symbol>
    </defs>
</svg>