<svg width="430" height="121" viewBox="0 0 430 121" fill="none" xmlns="http://www.w3.org/2000/svg">
<path d="M14.12 58.37C13.87 65.44 15.23 72.32 17.92 78.57C19.38 81.95 23.65 83.03 26.53 80.74L41.65 68.69C45.15 65.9 44.1 60.32 39.82 59L21.34 53.29C17.84 52.2 14.25 54.72 14.12 58.37Z" fill="#EC673B"/>
<path d="M28.99 25.63C24.02 30.27 20.02 36.03 17.41 42.61C16.06 46.01 18.35 49.76 21.99 50.17L41.21 52.34C45.66 52.84 48.86 48.16 46.77 44.19L37.75 27.09C36.02 23.84 31.68 23.12 28.99 25.63Z" fill="#FFCC07"/>
<path d="M108.17 61.6C108.42 54.53 107.06 47.65 104.37 41.41C102.91 38.03 98.64 36.95 95.76 39.24L80.64 51.29C77.14 54.08 78.19 59.66 82.47 60.98L100.95 66.69C104.44 67.77 108.04 65.25 108.17 61.6Z" fill="#62398E"/>
<path d="M95.49 27.83C90.85 22.86 85.09 18.86 78.51 16.25C75.11 14.9 71.36 17.19 70.95 20.82L68.78 40.04C68.28 44.49 72.96 47.69 76.93 45.6L94.03 36.58C97.29 34.86 98.01 30.52 95.49 27.83Z" fill="#35398E"/>
<path d="M93.3 94.33C98.27 89.69 102.27 83.93 104.88 77.35C106.23 73.95 103.94 70.2 100.31 69.79L81.09 67.62C76.64 67.12 73.44 71.8 75.53 75.77L84.55 92.87C86.27 96.13 90.61 96.85 93.3 94.33Z" fill="#913B8E"/>
<path d="M59.57 107.04C66.64 107.27 73.52 105.9 79.76 103.19C83.14 101.72 84.2 97.45 81.9 94.58L69.81 79.49C67.01 75.99 61.44 77.06 60.12 81.34L54.46 99.83C53.38 103.33 55.91 106.92 59.57 107.04Z" fill="#B9338A"/>
<path d="M62.14 38.66L67.85 20.18C68.93 16.69 66.41 13.09 62.76 12.96C55.69 12.71 48.81 14.07 42.57 16.76C39.19 18.22 38.11 22.49 40.4 25.37L52.45 40.49C55.24 43.99 60.81 42.94 62.14 38.66Z" fill="#9AC43B"/>
<path d="M26.79 92.14C31.43 97.11 37.19 101.11 43.77 103.72C47.17 105.07 50.92 102.78 51.33 99.14L53.5 79.92C54 75.47 49.32 72.27 45.35 74.36L28.25 83.38C25 85.11 24.28 89.45 26.79 92.14Z" fill="#CD3433"/>
<path d="M166.43 58.49C166.68 59.27 166.72 60.54 166.55 62.31L166.49 62.86C166.45 63.31 166.43 63.66 166.43 63.91L166.37 70.01V70.44V70.75C166.37 72.23 166.27 73.38 166.06 74.2C165.98 74.49 165.9 74.75 165.81 75C164.95 77.3 163.1 78.99 160.26 80.05C157.8 81.04 154.86 81.53 151.45 81.53C151.2 81.53 150.92 81.53 150.59 81.53H150.47L149.73 81.47C148.95 81.43 148.17 81.37 147.39 81.29L146.65 81.23H146.53C146.12 81.15 145.77 81.09 145.48 81.05L144.99 80.99C143.8 80.78 142.65 80.52 141.54 80.19C141.05 80.03 140.57 79.86 140.12 79.7L139.69 79.58C137.43 78.76 135.39 77.27 133.56 75.11C131.73 72.95 130.32 70.7 129.34 68.36C128.19 65.69 127.55 62.88 127.43 59.92C127.31 56.96 127.7 54.13 128.6 51.42C128.85 50.68 129.13 49.96 129.46 49.26C130.45 47.04 131.79 45.08 133.5 43.37C135.2 41.67 137.17 40.34 139.39 39.4L139.51 39.28L140.13 39.1L140.19 39.04C141.05 38.71 142.04 38.4 143.15 38.12L143.7 38L143.88 37.94H143.94C148.29 36.95 152.71 37.02 157.19 38.13C157.35 38.17 157.5 38.21 157.62 38.25C160.82 39.11 163.13 40.72 164.52 43.06C164.93 43.76 165.14 44.4 165.14 44.97C165.14 45.46 164.89 46.1 164.4 46.88C163.62 48.2 162.8 48.89 161.94 48.98C161.69 49.02 161.45 49 161.2 48.92H161.14H161.02L160.16 48.61L160.34 48.55C160.3 48.55 160.26 48.53 160.22 48.49C160.06 48.41 159.93 48.35 159.85 48.31C159.36 48.06 158.68 47.82 157.82 47.57C157.66 47.53 157.43 47.47 157.14 47.39C155.17 46.86 153.26 46.61 151.41 46.65C148.16 46.77 145.43 47.74 143.21 49.55C140.83 51.44 139.41 54.21 138.96 57.87C138.67 60.13 138.84 62.27 139.45 64.28C139.7 64.94 139.96 65.55 140.25 66.13C141.4 68.35 143.04 69.98 145.18 71.03C147.32 72.08 149.58 72.38 151.96 71.92C153.4 71.63 154.42 71.08 155.04 70.26C155.45 69.64 155.62 68.88 155.56 67.98C155.5 67.08 155.22 66.3 154.73 65.64C154.03 64.78 152.8 64.35 151.03 64.35C150.87 64.35 150.56 64.37 150.11 64.41C149.82 64.45 149.51 64.46 149.19 64.44C148.86 64.42 148.56 64.38 148.3 64.32C148.03 64.26 147.8 64.09 147.59 63.83C147.38 63.56 147.22 63.22 147.1 62.81C146.73 61.17 146.59 59.91 146.67 59.05C146.71 58.93 146.73 58.76 146.73 58.56L146.79 58.5C147.08 57.19 147.73 56.28 148.76 55.79C149.29 55.54 150.07 55.42 151.1 55.42C151.63 55.42 152.41 55.4 153.44 55.36H153.5L154.12 55.3H154.18H154.3C155.49 55.26 156.48 55.26 157.26 55.3C157.67 55.3 158.29 55.28 159.11 55.24C160.67 55.16 161.84 55.2 162.62 55.36C163.44 55.57 164.22 55.94 164.96 56.47C165.69 56.93 166.19 57.63 166.43 58.49Z" fill="#020203"/>
<path d="M201.87 76.86L201.44 77.48L201.38 77.6H201.32C200.66 78.42 199.78 79.12 198.67 79.7C197.56 80.28 196.49 80.69 195.47 80.93C193.58 81.34 191.69 81.55 189.8 81.55C185.36 81.55 181.52 80.52 178.28 78.47C176.43 77.32 174.91 75.9 173.72 74.22C172.53 72.54 171.71 70.65 171.26 68.55C171.14 67.93 171.01 67.19 170.89 66.33L170.83 65.84V65.59C170.71 64.23 170.69 62.9 170.77 61.58L170.83 61.33V60.84H170.89C171.1 58.95 171.51 57.29 172.12 55.85C173.19 53.34 174.83 51.27 177.05 49.63L177.17 49.57L177.79 49.08V49.14C179.31 48.15 180.97 47.41 182.78 46.92V46.86L183.52 46.74L183.64 46.68C186.88 45.98 190.07 46.13 193.19 47.11C196.35 48.1 198.66 49.69 200.12 51.89C201.58 54.09 202.1 56.81 201.69 60.06C201.28 63.72 197.73 66 191.03 66.9C190.62 66.98 189.98 67.06 189.12 67.15C186.9 67.36 185.28 67.64 184.25 68.01C183.63 68.26 183.22 68.61 183.02 69.06C182.86 69.47 182.88 69.94 183.08 70.48C183.2 70.85 183.43 71.18 183.76 71.47C184.33 72.05 185.05 72.48 185.92 72.76C187.69 73.25 189.49 73.37 191.34 73.1C193.19 72.83 194.89 72.33 196.45 71.59C196.61 71.55 196.82 71.49 197.07 71.41L197.13 71.35H197.25L197.99 71.1L197.93 71.16C199.82 70.83 201.11 71.32 201.81 72.64C202.63 74.08 202.65 75.5 201.87 76.86ZM191.88 55.35C190.89 54.82 189.7 54.55 188.31 54.55C186.21 54.59 184.47 55.21 183.07 56.4C182.29 57.06 181.96 57.82 182.08 58.68C182.2 59.5 182.7 60.12 183.56 60.53C184.26 60.86 185.12 60.99 186.15 60.93C187.18 60.87 188.13 60.74 189.02 60.53C189.9 60.32 190.69 60.06 191.39 59.73C191.8 59.53 192.19 59.28 192.56 58.99C193.18 58.46 193.48 57.92 193.48 57.39C193.52 56.98 193.36 56.59 192.99 56.22C192.71 55.88 192.34 55.59 191.88 55.35Z" fill="#020203"/>
<path d="M226.52 73.1C227.22 73.72 227.63 74.56 227.75 75.63V76V76.31H227.69C227.65 77.34 227.34 78.2 226.77 78.9C225.54 80.46 223.36 81.32 220.24 81.49C219.83 81.53 219.42 81.55 219.01 81.55C215.15 81.55 212.15 80.63 210.01 78.78L209.27 78.1H209.33C209 77.73 208.71 77.36 208.47 76.99C208.39 76.83 208.29 76.64 208.16 76.44V76.5L207.79 75.58H207.73V75.46C207.11 73.94 206.81 71.56 206.81 68.31C206.81 66.5 206.81 64.26 206.81 61.59V57.89C206.81 57.32 206.81 56.41 206.81 55.18C206.85 53.37 206.85 51.98 206.81 50.99C206.81 49.63 206.81 48.4 206.81 47.29L206.75 46.55C206.75 45.44 206.77 44.53 206.81 43.81C206.85 43.09 207.07 42.27 207.46 41.34C207.85 40.42 208.44 39.71 209.22 39.21C210.45 38.43 211.79 38.2 213.23 38.53H213.35L214.52 38.78L214.34 38.84C214.63 38.96 214.85 39.09 215.02 39.21C215.47 39.5 215.86 39.85 216.19 40.26V39.95L216.81 41.12V41.24C217.14 41.9 217.38 42.99 217.55 44.51L217.61 44.69C217.69 45.35 217.85 45.88 218.07 46.29C218.29 46.7 218.66 47.02 219.15 47.25C219.64 47.48 220.06 47.62 220.41 47.68C220.76 47.74 221.3 47.81 222.04 47.9C223.64 48.11 224.79 48.39 225.49 48.76C226.27 49.17 226.88 49.86 227.31 50.82C227.74 51.79 227.9 52.74 227.77 53.69C227.65 54.35 227.43 54.88 227.12 55.29C226.81 55.7 226.41 56 225.92 56.18C225.43 56.37 224.97 56.5 224.56 56.58C224.15 56.66 223.66 56.7 223.08 56.7H222.59C221.56 56.74 220.82 56.82 220.37 56.95C219.1 57.24 218.21 58.08 217.72 59.48C217.27 60.8 217.21 63.14 217.54 66.51C217.62 67.54 217.68 68.26 217.72 68.67C217.76 69.99 218.19 70.97 219.01 71.63C219.91 72.41 221.21 72.74 222.89 72.62C223.22 72.58 223.53 72.54 223.81 72.5C224.92 72.28 225.82 72.48 226.52 73.1Z" fill="#020203"/>
<path d="M263.43 71.19C264.33 71.44 265.03 71.95 265.53 72.73C266.02 73.51 266.19 74.39 266.02 75.38C265.81 77.07 264.83 78.44 263.06 79.51C260.76 80.87 257.45 81.54 253.14 81.54C247.55 81.54 243.05 80.29 239.64 77.78C237.26 76.05 235.26 73.53 233.66 70.2C233.04 68.89 232.51 67.49 232.06 66.01L232 65.89L231.75 64.97L231.81 65.03C231.69 64.54 231.56 64.04 231.44 63.55V63.61L231.25 62.62V62.5C230.96 60.57 230.88 58.7 231 56.89C231.25 53.65 232.16 50.66 233.74 47.92C235.32 45.19 237.41 42.94 239.99 41.17C240.2 41.05 240.42 40.9 240.67 40.74C241.78 40.04 242.97 39.45 244.24 38.95C246.83 38.01 249.58 37.53 252.5 37.53C256.65 37.53 259.9 38.19 262.24 39.5C262.61 39.75 263 40.03 263.41 40.36V40.42L263.53 40.48L264.33 41.16H264.21C265.36 42.43 265.89 43.65 265.81 44.8C265.77 45.5 265.46 46.14 264.89 46.71C264.03 47.57 262.86 48 261.38 48C261.34 48 261.24 48 261.07 48L261.13 48.06L260.02 47.87H259.96C259.38 47.79 258.62 47.6 257.68 47.32C257.35 47.24 257.08 47.18 256.88 47.14C255.11 46.69 253.35 46.64 251.58 46.99C249.81 47.34 248.25 48.05 246.9 49.12L246.72 49.24C245.9 49.94 245.18 50.84 244.56 51.95C243.53 53.72 242.94 55.76 242.77 58.08C242.61 60.4 242.89 62.51 243.63 64.4C244.25 66 245.17 67.42 246.4 68.65C247.63 69.88 249.05 70.83 250.65 71.48C252.25 72.1 254.14 72.24 256.32 71.91C256.69 71.83 257.28 71.73 258.11 71.6C259.84 71.23 261.17 71.03 262.12 70.98C262.16 70.98 262.26 70.98 262.43 70.98L262.37 70.86L263.29 71.11L263.43 71.19Z" fill="#020203"/>
<path d="M300.78 67.86C300.82 69.26 300.84 70.37 300.84 71.19V71.44L300.78 71.93C300.7 73.45 300.47 74.74 300.1 75.81L299.92 76.3L299.8 76.48C299.35 77.47 298.75 78.27 298.01 78.88C296.9 79.83 294.93 80.5 292.09 80.91C289.09 81.32 286.54 81.53 284.45 81.53C281.61 81.53 279.09 81.16 276.87 80.42C273.83 79.39 271.65 77.69 270.34 75.31L270.22 75.06L270.04 74.69C269.46 73.33 269.18 71.9 269.18 70.38C269.18 68.49 269.53 66.85 270.23 65.45L270.42 65.08L270.54 64.83C270.99 64.13 271.51 63.54 272.08 63.04C274.05 61.27 277.01 60.31 280.95 60.14C281.11 60.14 281.34 60.14 281.63 60.14C282.7 60.1 283.53 60.05 284.13 59.99C284.72 59.93 285.43 59.73 286.26 59.4C287.08 59.07 287.68 58.62 288.05 58.04C288.42 57.42 288.54 56.89 288.42 56.44C288.3 55.99 287.95 55.62 287.37 55.33C286.71 55 285.89 54.82 284.9 54.78C284.2 54.7 283.44 54.74 282.62 54.9C281.88 55.02 280.77 55.31 279.29 55.76C277.52 56.34 276.15 56.68 275.16 56.81C273.85 56.93 272.76 56.54 271.89 55.64C270.94 54.65 270.62 53.38 270.9 51.82C271.27 49.93 272.28 48.47 273.92 47.44C275.56 46.41 277.68 45.9 280.27 45.9H280.33C281.77 45.9 283.12 45.94 284.4 46.02C289.54 46.47 293.4 47.87 295.99 50.21L296.17 50.33L296.54 50.64L296.48 50.7C297.3 51.48 297.98 52.34 298.51 53.29C299.37 54.93 299.99 56.86 300.36 59.08H300.42L300.48 59.51V59.76C300.73 61.45 300.83 63.21 300.79 65.06C300.73 65.66 300.73 66.59 300.78 67.86ZM280.99 68.04C280.21 68.49 279.84 69.17 279.88 70.07C279.88 71.02 280.23 71.77 280.93 72.35C281.59 72.84 282.63 73.13 284.07 73.21C284.28 73.21 284.48 73.21 284.69 73.21H284.75H284.81C285.96 73.5 287.04 73.23 288.05 72.41C289.06 71.59 289.56 70.6 289.56 69.45C289.56 69.29 289.54 69.12 289.5 68.96C289.38 68.63 289.19 68.34 288.95 68.1C288.7 67.85 288.47 67.66 288.24 67.51C288.01 67.37 287.71 67.26 287.32 67.2C286.93 67.14 286.62 67.1 286.4 67.08C286.17 67.06 285.83 67.03 285.38 66.99H285.2L284.34 67.05C282.97 67.22 281.86 67.55 280.99 68.04Z" fill="#020203"/>
<path d="M338.18 73.52C338.22 74.55 338.26 75.55 338.3 76.54C338.34 77.53 338.08 78.45 337.53 79.31C336.98 80.17 336.12 80.79 334.97 81.16C334.19 81.41 333.37 81.53 332.51 81.53C330.78 81.53 329.39 81.06 328.32 80.11C327.5 79.33 327.09 77.81 327.09 75.55V60.64C327.09 59.04 326.58 57.72 325.55 56.7C325.39 56.54 325.18 56.35 324.93 56.15C323.86 55.41 322.61 55.12 321.17 55.29C321.09 55.29 320.94 55.31 320.74 55.35H320.68C320.02 55.47 319.47 55.71 319.02 56.06C318.57 56.41 318.22 56.8 317.97 57.23C317.72 57.66 317.53 58.23 317.39 58.92C317.25 59.62 317.15 60.26 317.11 60.83C317.07 61.41 317.05 62.12 317.05 62.99V63.98C317.05 67.06 317.05 69.36 317.05 70.88C317.09 71.25 317.13 71.8 317.17 72.54V72.79L317.23 72.85V73.22C317.31 74.33 317.35 75.23 317.35 75.93L317.29 76.67V76.79C317.13 78.35 316.63 79.54 315.81 80.36C314.86 81.22 313.46 81.61 311.59 81.53C309.72 81.45 308.31 80.98 307.37 80.11C306.71 79.58 306.26 78.82 306.01 77.83C305.76 76.84 305.65 76 305.67 75.3C305.69 74.6 305.76 73.64 305.89 72.4C305.97 71.5 306.03 70.86 306.07 70.49C306.11 68.85 306.11 66.36 306.07 63.03C306.07 61.39 306.07 60.15 306.07 59.33C306.07 59.04 306.05 58.57 306.01 57.91C306.01 57.58 306.01 57.27 306.01 56.99V56.87V56.01V56.07C306.05 54.51 306.32 53.24 306.81 52.25C307.14 51.55 307.59 50.92 308.17 50.34L308.85 49.79L308.91 49.67C309.48 49.22 310.1 48.85 310.76 48.56C313.39 47.25 317.02 46.59 321.67 46.59C328.37 46.51 332.99 48.17 335.54 51.58C336.98 53.51 337.82 56.53 338.07 60.64C338.11 61.91 338.11 63.64 338.07 65.82V66.5C338.03 69.38 338.07 71.53 338.19 72.97V73.52H338.18Z" fill="#020203"/>
<path d="M376.82 39.33C377.23 40.81 377.41 42.72 377.37 45.06C377.29 47.2 377.25 49.48 377.25 51.9C377.21 54.57 377.19 57.1 377.19 59.48V59.66C377.19 61.02 377.19 62.04 377.19 62.74C377.27 68.86 376 73.5 373.37 76.67C373 77.08 372.53 77.53 371.95 78.03L371.89 78.09L371.09 78.77V78.7C370.68 78.99 370.25 79.25 369.8 79.5L369.86 79.56L368.94 79.93L368.81 80C366.55 81.03 363.98 81.54 361.11 81.54C358.65 81.54 356.2 81.15 353.78 80.37C351.56 79.67 349.57 78.48 347.8 76.8C346.03 75.12 344.68 73.06 343.73 70.64C342.21 66.86 342 62.92 343.11 58.81C343.36 57.82 343.73 56.84 344.22 55.85L344.28 55.67L344.53 55.12H344.59C345.62 53.15 346.97 51.44 348.66 50L349.15 49.63L349.27 49.51C352.1 47.37 355.23 46.27 358.64 46.18C359.87 46.14 361.1 46.24 362.34 46.49C363.08 46.65 363.92 46.86 364.87 47.11C364.83 46.58 364.81 45.75 364.81 44.64L364.87 44.15C364.87 43.9 364.87 43.49 364.87 42.92C364.83 41.93 364.83 41.16 364.87 40.61C364.91 40.06 365.05 39.38 365.3 38.58C365.55 37.78 365.92 37.11 366.41 36.58C367.81 35.14 369.82 34.63 372.45 35.04C372.7 35.08 372.96 35.14 373.25 35.22H373.31L373.43 35.28L374.11 35.53H374.05C375.16 36.15 376 37.17 376.58 38.61L376.76 39.16L376.82 39.33ZM361.97 71.68C364.27 71.23 365.48 69.44 365.61 66.32C365.61 66.16 365.63 65.83 365.67 65.33C365.71 64.47 365.73 63.79 365.73 63.3C365.73 62.81 365.7 62.19 365.64 61.45C365.58 60.71 365.44 60.05 365.24 59.48C365.03 58.91 364.75 58.39 364.38 57.94C364.13 57.65 363.89 57.43 363.64 57.26C362.9 56.6 362 56.25 360.93 56.21L360.81 56.15C360.73 56.15 360.65 56.15 360.56 56.15C359.29 56.15 358.18 56.52 357.23 57.26C355.83 58.33 354.97 59.99 354.64 62.25C354.31 64.51 354.54 66.52 355.32 68.29C355.48 68.74 355.67 69.13 355.87 69.46C356.32 70.32 356.85 70.91 357.44 71.22C358.04 71.53 358.83 71.72 359.81 71.81C360.59 71.84 361.31 71.8 361.97 71.68Z" fill="#020203"/>
<path d="M414.04 51.22C414.2 52.54 413.92 54.55 413.18 57.26C413.06 57.84 412.95 58.25 412.87 58.49C412.87 58.61 412.83 58.76 412.75 58.92L412.56 59.91H412.5C412.34 60.65 412.13 61.41 411.88 62.19L411.63 62.87V63.05H411.57C410.99 64.9 410.19 67.12 409.17 69.71C407.9 72.91 406.58 75.81 405.23 78.4H405.29L404.98 78.89L404.92 79.07C404.26 80.26 403.6 81.39 402.95 82.46L402.89 82.64L402.58 83.07C400.85 85.78 399.05 88.1 397.16 90.03C396.58 90.69 395.93 91.24 395.19 91.69C394.45 92.14 393.67 92.5 392.85 92.77C392.03 93.04 391.23 93.17 390.45 93.17C389.26 93.17 388.23 92.84 387.37 92.18H387.31L387 91.93L386.82 91.75V91.7C386.24 91.08 385.79 90.32 385.46 89.42C385.34 89.05 385.25 88.68 385.21 88.31H385.15V87.63H385.21C385.29 87.01 385.52 86.49 385.89 86.06C386.26 85.63 386.79 85.15 387.49 84.61C388.15 84.12 388.62 83.73 388.91 83.44C389.28 83.07 389.73 82.45 390.27 81.59C390.64 80.97 390.93 80.52 391.13 80.23C391.34 79.66 391.31 79.02 391.07 78.32C390.82 77.5 390.23 76.35 389.28 74.87C388.5 73.72 387.99 72.84 387.74 72.22C386.67 69.96 385.48 67 384.17 63.35C384.01 62.94 383.76 62.28 383.43 61.38C381.91 57.44 381.07 54.42 380.9 52.32C380.74 50.72 381.04 49.38 381.82 48.31C382.11 47.9 382.44 47.57 382.81 47.32C383.8 46.66 385.09 46.44 386.69 46.64C386.9 46.68 387.18 46.74 387.55 46.82L387.3 46.57L388.78 47.25C389.31 47.5 389.74 47.78 390.07 48.11C390.65 48.69 391.16 49.71 391.61 51.19C392.47 53.82 393.38 56.65 394.32 59.69L394.63 60.68C394.75 61.09 394.94 61.75 395.18 62.65C395.71 64.83 396.29 66.37 396.91 67.27L396.97 67.33C397.09 67.54 397.2 67.68 397.28 67.76C397.65 68.13 397.92 68.23 398.08 68.07C398.12 68.03 398.18 67.93 398.27 67.76C399.21 65.5 400.3 61.93 401.54 57.04C401.7 56.34 401.87 55.73 402.03 55.19L402.15 54.64C402.4 53.61 402.6 52.83 402.77 52.3C402.93 51.77 403.22 51.07 403.63 50.2C404.04 49.34 404.47 48.68 404.92 48.23C405.37 47.78 406 47.4 406.8 47.09C407.6 46.78 408.49 46.65 409.48 46.69C409.85 46.73 410.24 46.81 410.65 46.94L410.9 47L411.27 47.18C412.13 47.59 412.79 48.13 413.24 48.78C413.53 49.27 413.75 49.85 413.92 50.51L413.98 50.88L414.04 51.22Z" fill="#020203"/>
</svg>
