<?xml version="1.0" encoding="utf-8"?>
<!-- Generator: Adobe Illustrator 24.0.3, SVG Export Plug-In . SVG Version: 6.00 Build 0)  -->
<svg version="1.1" id="Layer_1" xmlns="http://www.w3.org/2000/svg" xmlns:xlink="http://www.w3.org/1999/xlink" x="0px" y="0px"
	 viewBox="0 0 429.02 120.17" style="enable-background:new 0 0 429.02 120.17;" xml:space="preserve">
<style type="text/css">
	.st0{fill:#EC673B;}
	.st1{fill:#FFCC07;}
	.st2{fill:#62398E;}
	.st3{fill:#35398E;}
	.st4{fill:#913B8E;}
	.st5{fill:#B9338A;}
	.st6{fill:#9AC43B;}
	.st7{fill:#CD3433;}
	.st8{fill:#020203;}
</style>
<g>
	<g>
		<g>
			<path class="st0" d="M14.12,58.37c-0.25,7.07,1.11,13.95,3.8,20.2c1.46,3.38,5.73,4.46,8.61,2.17l15.12-12.05
				c3.5-2.79,2.45-8.37-1.83-9.69l-18.48-5.71C17.84,52.2,14.25,54.72,14.12,58.37z"/>
		</g>
	</g>
	<g>
		<g>
			<path class="st1" d="M28.99,25.63c-4.97,4.64-8.97,10.4-11.58,16.98c-1.35,3.4,0.94,7.15,4.58,7.56l19.22,2.17
				c4.45,0.5,7.65-4.18,5.56-8.15l-9.02-17.1C36.02,23.84,31.68,23.12,28.99,25.63z"/>
		</g>
	</g>
	<g>
		<g>
			<path class="st2" d="M108.17,61.6c0.25-7.07-1.11-13.95-3.8-20.19c-1.46-3.38-5.73-4.46-8.61-2.17L80.64,51.29
				c-3.5,2.79-2.45,8.37,1.83,9.69l18.48,5.71C104.44,67.77,108.04,65.25,108.17,61.6z"/>
		</g>
	</g>
	<g>
		<g>
			<path class="st3" d="M95.49,27.83c-4.64-4.97-10.4-8.97-16.98-11.58c-3.4-1.35-7.15,0.94-7.56,4.57l-2.17,19.22
				c-0.5,4.45,4.18,7.65,8.15,5.56l17.1-9.02C97.29,34.86,98.01,30.52,95.49,27.83z"/>
		</g>
	</g>
	<g>
		<g>
			<path class="st4" d="M93.3,94.33c4.97-4.64,8.97-10.4,11.58-16.98c1.35-3.4-0.94-7.15-4.57-7.56l-19.22-2.17
				c-4.45-0.5-7.65,4.18-5.56,8.15l9.02,17.1C86.27,96.13,90.61,96.85,93.3,94.33z"/>
		</g>
	</g>
	<g>
		<g>
			<path class="st5" d="M59.57,107.04c7.07,0.23,13.95-1.14,20.19-3.85c3.38-1.47,4.44-5.74,2.14-8.61L69.81,79.49
				c-2.8-3.5-8.37-2.43-9.69,1.85l-5.66,18.49C53.38,103.33,55.91,106.92,59.57,107.04z"/>
		</g>
	</g>
	<g>
		<g>
			<path class="st6" d="M62.14,38.66l5.71-18.48c1.08-3.49-1.44-7.09-5.09-7.22c-7.07-0.25-13.95,1.11-20.19,3.8
				c-3.38,1.46-4.46,5.73-2.17,8.61l12.05,15.12C55.24,43.99,60.81,42.94,62.14,38.66z"/>
		</g>
	</g>
	<g>
		<g>
			<path class="st7" d="M26.79,92.14c4.64,4.97,10.4,8.97,16.98,11.58c3.4,1.35,7.15-0.94,7.56-4.58l2.17-19.22
				c0.5-4.45-4.18-7.65-8.15-5.56l-17.1,9.02C25,85.11,24.28,89.45,26.79,92.14z"/>
		</g>
	</g>
</g>
<g>
	<path class="st8" d="M166.43,58.49c0.25,0.78,0.29,2.05,0.12,3.82l-0.06,0.55c-0.04,0.45-0.06,0.8-0.06,1.05l-0.06,6.1v0.43v0.31
		c0,1.48-0.1,2.63-0.31,3.45c-0.08,0.29-0.16,0.55-0.25,0.8c-0.86,2.3-2.71,3.99-5.55,5.05c-2.46,0.99-5.4,1.48-8.81,1.48
		c-0.25,0-0.53,0-0.86,0h-0.12l-0.74-0.06c-0.78-0.04-1.56-0.1-2.34-0.18l-0.74-0.06h-0.12c-0.41-0.08-0.76-0.14-1.05-0.18
		l-0.49-0.06c-1.19-0.21-2.34-0.47-3.45-0.8c-0.49-0.16-0.97-0.33-1.42-0.49l-0.43-0.12c-2.26-0.82-4.3-2.31-6.13-4.47
		c-1.83-2.16-3.24-4.41-4.22-6.75c-1.15-2.67-1.79-5.48-1.91-8.44c-0.12-2.96,0.27-5.79,1.17-8.5c0.25-0.74,0.53-1.46,0.86-2.16
		c0.99-2.22,2.33-4.18,4.04-5.89c1.7-1.7,3.67-3.03,5.89-3.97l0.12-0.12l0.62-0.18l0.06-0.06c0.86-0.33,1.85-0.64,2.96-0.92
		l0.55-0.12l0.18-0.06h0.06c4.35-0.99,8.77-0.92,13.25,0.19c0.16,0.04,0.31,0.08,0.43,0.12c3.2,0.86,5.51,2.47,6.9,4.81
		c0.41,0.7,0.62,1.34,0.62,1.91c0,0.49-0.25,1.13-0.74,1.91c-0.78,1.32-1.6,2.01-2.46,2.1c-0.25,0.04-0.49,0.02-0.74-0.06h-0.06
		h-0.12l-0.86-0.31l0.18-0.06c-0.04,0-0.08-0.02-0.12-0.06c-0.16-0.08-0.29-0.14-0.37-0.18c-0.49-0.25-1.17-0.49-2.03-0.74
		c-0.16-0.04-0.39-0.1-0.68-0.18c-1.97-0.53-3.88-0.78-5.73-0.74c-3.25,0.12-5.98,1.09-8.2,2.9c-2.38,1.89-3.8,4.66-4.25,8.32
		c-0.29,2.26-0.12,4.4,0.49,6.41c0.25,0.66,0.51,1.27,0.8,1.85c1.15,2.22,2.79,3.85,4.93,4.9c2.14,1.05,4.4,1.35,6.78,0.89
		c1.44-0.29,2.46-0.84,3.08-1.66c0.41-0.62,0.58-1.38,0.52-2.28c-0.06-0.9-0.34-1.68-0.83-2.34c-0.7-0.86-1.93-1.29-3.7-1.29
		c-0.16,0-0.47,0.02-0.92,0.06c-0.29,0.04-0.6,0.05-0.92,0.03c-0.33-0.02-0.63-0.06-0.89-0.12c-0.27-0.06-0.5-0.23-0.71-0.49
		c-0.21-0.27-0.37-0.61-0.49-1.02c-0.37-1.64-0.51-2.9-0.43-3.76c0.04-0.12,0.06-0.29,0.06-0.49l0.06-0.06
		c0.29-1.31,0.94-2.22,1.97-2.71c0.53-0.25,1.31-0.37,2.34-0.37c0.53,0,1.31-0.02,2.34-0.06h0.06l0.62-0.06h0.06h0.12
		c1.19-0.04,2.18-0.04,2.96,0c0.41,0,1.03-0.02,1.85-0.06c1.56-0.08,2.73-0.04,3.51,0.12c0.82,0.21,1.6,0.58,2.34,1.11
		C165.69,56.93,166.19,57.63,166.43,58.49z"/>
</g>
<g>
	<path class="st8" d="M201.87,76.86l-0.43,0.62l-0.06,0.12h-0.06c-0.66,0.82-1.54,1.52-2.65,2.1c-1.11,0.58-2.18,0.99-3.2,1.23
		c-1.89,0.41-3.78,0.62-5.67,0.62c-4.44,0-8.28-1.03-11.52-3.08c-1.85-1.15-3.37-2.57-4.56-4.25c-1.19-1.68-2.01-3.57-2.46-5.67
		c-0.12-0.62-0.25-1.36-0.37-2.22l-0.06-0.49v-0.25c-0.12-1.36-0.14-2.69-0.06-4.01l0.06-0.25v-0.49h0.06
		c0.21-1.89,0.62-3.55,1.23-4.99c1.07-2.51,2.71-4.58,4.93-6.22l0.12-0.06l0.62-0.49v0.06c1.52-0.99,3.18-1.73,4.99-2.22v-0.06
		l0.74-0.12l0.12-0.06c3.24-0.7,6.43-0.55,9.55,0.43c3.16,0.99,5.47,2.58,6.93,4.78c1.46,2.2,1.98,4.92,1.57,8.17
		c-0.41,3.66-3.96,5.94-10.66,6.84c-0.41,0.08-1.05,0.16-1.91,0.25c-2.22,0.21-3.84,0.49-4.87,0.86c-0.62,0.25-1.03,0.6-1.23,1.05
		c-0.16,0.41-0.14,0.88,0.06,1.42c0.12,0.37,0.35,0.7,0.68,0.99c0.57,0.58,1.29,1.01,2.16,1.29c1.77,0.49,3.57,0.61,5.42,0.34
		c1.85-0.27,3.55-0.77,5.11-1.51c0.16-0.04,0.37-0.1,0.62-0.18l0.06-0.06h0.12l0.74-0.25l-0.06,0.06c1.89-0.33,3.18,0.16,3.88,1.48
		C202.63,74.08,202.65,75.5,201.87,76.86z M191.88,55.35c-0.99-0.53-2.18-0.8-3.57-0.8c-2.1,0.04-3.84,0.66-5.24,1.85
		c-0.78,0.66-1.11,1.42-0.99,2.28c0.12,0.82,0.62,1.44,1.48,1.85c0.7,0.33,1.56,0.46,2.59,0.4c1.03-0.06,1.98-0.19,2.87-0.4
		c0.88-0.21,1.67-0.47,2.37-0.8c0.41-0.2,0.8-0.45,1.17-0.74c0.62-0.53,0.92-1.07,0.92-1.6c0.04-0.41-0.12-0.8-0.49-1.17
		C192.71,55.88,192.34,55.59,191.88,55.35z"/>
</g>
<g>
	<path class="st8" d="M226.52,73.1c0.7,0.62,1.11,1.46,1.23,2.53v0.37v0.31h-0.06c-0.04,1.03-0.35,1.89-0.92,2.59
		c-1.23,1.56-3.41,2.42-6.53,2.59c-0.41,0.04-0.82,0.06-1.23,0.06c-3.86,0-6.86-0.92-9-2.77l-0.74-0.68h0.06
		c-0.33-0.37-0.62-0.74-0.86-1.11c-0.08-0.16-0.18-0.35-0.31-0.55v0.06l-0.37-0.92h-0.06v-0.12c-0.62-1.52-0.92-3.9-0.92-7.15
		c0-1.81,0-4.05,0-6.72v-3.7c0-0.57,0-1.48,0-2.71c0.04-1.81,0.04-3.2,0-4.19c0-1.36,0-2.59,0-3.7l-0.06-0.74
		c0-1.11,0.02-2.02,0.06-2.74c0.04-0.72,0.26-1.54,0.65-2.47c0.39-0.92,0.98-1.63,1.76-2.13c1.23-0.78,2.57-1.01,4.01-0.68h0.12
		l1.17,0.25l-0.18,0.06c0.29,0.12,0.51,0.25,0.68,0.37c0.45,0.29,0.84,0.64,1.17,1.05v-0.31l0.62,1.17v0.12
		c0.33,0.66,0.57,1.75,0.74,3.27l0.06,0.18c0.08,0.66,0.24,1.19,0.46,1.6c0.22,0.41,0.59,0.73,1.08,0.96
		c0.49,0.23,0.91,0.37,1.26,0.43c0.35,0.06,0.89,0.13,1.63,0.22c1.6,0.21,2.75,0.49,3.45,0.86c0.78,0.41,1.39,1.1,1.82,2.06
		c0.43,0.97,0.59,1.92,0.46,2.87c-0.12,0.66-0.34,1.19-0.65,1.6c-0.31,0.41-0.71,0.71-1.2,0.89c-0.49,0.19-0.95,0.32-1.36,0.4
		c-0.41,0.08-0.9,0.12-1.48,0.12h-0.49c-1.03,0.04-1.77,0.12-2.22,0.25c-1.27,0.29-2.16,1.13-2.65,2.53
		c-0.45,1.32-0.51,3.66-0.18,7.03c0.08,1.03,0.14,1.75,0.18,2.16c0.04,1.32,0.47,2.3,1.29,2.96c0.9,0.78,2.2,1.11,3.88,0.99
		c0.33-0.04,0.64-0.08,0.92-0.12C224.92,72.28,225.82,72.48,226.52,73.1z"/>
</g>
<g>
	<path class="st8" d="M263.43,71.19c0.9,0.25,1.6,0.76,2.1,1.54c0.49,0.78,0.66,1.66,0.49,2.65c-0.21,1.69-1.19,3.06-2.96,4.13
		c-2.3,1.36-5.61,2.03-9.92,2.03c-5.59,0-10.09-1.25-13.5-3.76c-2.38-1.73-4.38-4.25-5.98-7.58c-0.62-1.31-1.15-2.71-1.6-4.19
		L232,65.89l-0.25-0.92l0.06,0.06c-0.12-0.49-0.25-0.99-0.37-1.48v0.06l-0.19-0.99V62.5c-0.29-1.93-0.37-3.8-0.25-5.61
		c0.25-3.24,1.16-6.23,2.74-8.97c1.58-2.73,3.67-4.98,6.25-6.75c0.21-0.12,0.43-0.27,0.68-0.43c1.11-0.7,2.3-1.29,3.57-1.79
		c2.59-0.94,5.34-1.42,8.26-1.42c4.15,0,7.4,0.66,9.74,1.97c0.37,0.25,0.76,0.53,1.17,0.86v0.06l0.12,0.06l0.8,0.68h-0.12
		c1.15,1.27,1.68,2.49,1.6,3.64c-0.04,0.7-0.35,1.34-0.92,1.91c-0.86,0.86-2.03,1.29-3.51,1.29c-0.04,0-0.14,0-0.31,0l0.06,0.06
		l-1.11-0.19h-0.06c-0.58-0.08-1.34-0.27-2.28-0.55c-0.33-0.08-0.6-0.14-0.8-0.18c-1.77-0.45-3.53-0.5-5.3-0.15
		c-1.77,0.35-3.33,1.06-4.68,2.13l-0.18,0.12c-0.82,0.7-1.54,1.6-2.16,2.71c-1.03,1.77-1.62,3.81-1.79,6.13
		c-0.16,2.32,0.12,4.43,0.86,6.32c0.62,1.6,1.54,3.02,2.77,4.25s2.65,2.18,4.25,2.83c1.6,0.62,3.49,0.76,5.67,0.43
		c0.37-0.08,0.96-0.18,1.79-0.31c1.73-0.37,3.06-0.57,4.01-0.62c0.04,0,0.14,0,0.31,0l-0.06-0.12l0.92,0.25L263.43,71.19z"/>
</g>
<g>
	<path class="st8" d="M300.78,67.86c0.04,1.4,0.06,2.51,0.06,3.33v0.25l-0.06,0.49c-0.08,1.52-0.31,2.81-0.68,3.88l-0.18,0.49
		l-0.12,0.18c-0.45,0.99-1.05,1.79-1.79,2.4c-1.11,0.95-3.08,1.62-5.92,2.03c-3,0.41-5.55,0.62-7.64,0.62
		c-2.84,0-5.36-0.37-7.58-1.11c-3.04-1.03-5.22-2.73-6.53-5.11l-0.12-0.25l-0.18-0.37c-0.58-1.36-0.86-2.79-0.86-4.31
		c0-1.89,0.35-3.53,1.05-4.93l0.19-0.37l0.12-0.25c0.45-0.7,0.97-1.29,1.54-1.79c1.97-1.77,4.93-2.73,8.87-2.9c0.16,0,0.39,0,0.68,0
		c1.07-0.04,1.9-0.09,2.5-0.15c0.59-0.06,1.3-0.26,2.13-0.59c0.82-0.33,1.42-0.78,1.79-1.36c0.37-0.62,0.49-1.15,0.37-1.6
		c-0.12-0.45-0.47-0.82-1.05-1.11c-0.66-0.33-1.48-0.51-2.47-0.55c-0.7-0.08-1.46-0.04-2.28,0.12c-0.74,0.12-1.85,0.41-3.33,0.86
		c-1.77,0.58-3.14,0.92-4.13,1.05c-1.31,0.12-2.4-0.27-3.27-1.17c-0.95-0.99-1.27-2.26-0.99-3.82c0.37-1.89,1.38-3.35,3.02-4.38
		c1.64-1.03,3.76-1.54,6.35-1.54h0.06c1.44,0,2.79,0.04,4.07,0.12c5.14,0.45,9,1.85,11.59,4.19l0.18,0.12l0.37,0.31l-0.06,0.06
		c0.82,0.78,1.5,1.64,2.03,2.59c0.86,1.64,1.48,3.57,1.85,5.79h0.06l0.06,0.43v0.25c0.25,1.69,0.35,3.45,0.31,5.3
		C300.73,65.66,300.73,66.59,300.78,67.86z M280.99,68.04c-0.78,0.45-1.15,1.13-1.11,2.03c0,0.95,0.35,1.7,1.05,2.28
		c0.66,0.49,1.7,0.78,3.14,0.86c0.21,0,0.41,0,0.62,0h0.06h0.06c1.15,0.29,2.23,0.02,3.24-0.8c1.01-0.82,1.51-1.81,1.51-2.96
		c0-0.16-0.02-0.33-0.06-0.49c-0.12-0.33-0.31-0.62-0.55-0.86c-0.25-0.25-0.48-0.44-0.71-0.59c-0.23-0.14-0.53-0.25-0.92-0.31
		c-0.39-0.06-0.7-0.1-0.92-0.12c-0.23-0.02-0.57-0.05-1.02-0.09h-0.18l-0.86,0.06C282.97,67.22,281.86,67.55,280.99,68.04z"/>
</g>
<g>
	<path class="st8" d="M338.18,73.52c0.04,1.03,0.08,2.03,0.12,3.02c0.04,0.99-0.22,1.91-0.77,2.77c-0.55,0.86-1.41,1.48-2.56,1.85
		c-0.78,0.25-1.6,0.37-2.46,0.37c-1.73,0-3.12-0.47-4.19-1.42c-0.82-0.78-1.23-2.3-1.23-4.56V60.64c0-1.6-0.51-2.92-1.54-3.94
		c-0.16-0.16-0.37-0.35-0.62-0.55c-1.07-0.74-2.32-1.03-3.76-0.86c-0.08,0-0.23,0.02-0.43,0.06h-0.06
		c-0.66,0.12-1.21,0.36-1.66,0.71c-0.45,0.35-0.8,0.74-1.05,1.17c-0.25,0.43-0.44,1-0.58,1.69c-0.14,0.7-0.24,1.34-0.28,1.91
		c-0.04,0.58-0.06,1.29-0.06,2.16v0.99c0,3.08,0,5.38,0,6.9c0.04,0.37,0.08,0.92,0.12,1.66v0.25l0.06,0.06v0.37
		c0.08,1.11,0.12,2.01,0.12,2.71l-0.06,0.74v0.12c-0.16,1.56-0.66,2.75-1.48,3.57c-0.95,0.86-2.35,1.25-4.22,1.17
		c-1.87-0.08-3.28-0.55-4.22-1.42c-0.66-0.53-1.11-1.29-1.36-2.28c-0.25-0.99-0.36-1.83-0.34-2.53c0.02-0.7,0.09-1.66,0.22-2.9
		c0.08-0.9,0.14-1.54,0.18-1.91c0.04-1.64,0.04-4.13,0-7.46c0-1.64,0-2.88,0-3.7c0-0.29-0.02-0.76-0.06-1.42c0-0.33,0-0.64,0-0.92
		v-0.12v-0.86v0.06c0.04-1.56,0.31-2.83,0.8-3.82c0.33-0.7,0.78-1.33,1.36-1.91l0.68-0.55l0.06-0.12c0.57-0.45,1.19-0.82,1.85-1.11
		c2.63-1.31,6.26-1.97,10.91-1.97c6.7-0.08,11.32,1.58,13.87,4.99c1.44,1.93,2.28,4.95,2.53,9.06c0.04,1.27,0.04,3,0,5.18v0.68
		c-0.04,2.88,0,5.03,0.12,6.47V73.52z"/>
</g>
<g>
	<path class="st8" d="M376.82,39.33c0.41,1.48,0.59,3.39,0.55,5.73c-0.08,2.14-0.12,4.42-0.12,6.84c-0.04,2.67-0.06,5.2-0.06,7.58
		v0.18c0,1.36,0,2.38,0,3.08c0.08,6.12-1.19,10.76-3.82,13.93c-0.37,0.41-0.84,0.86-1.42,1.36l-0.06,0.06l-0.8,0.68V78.7
		c-0.41,0.29-0.84,0.55-1.29,0.8l0.06,0.06l-0.92,0.37L368.81,80c-2.26,1.03-4.83,1.54-7.7,1.54c-2.46,0-4.91-0.39-7.33-1.17
		c-2.22-0.7-4.21-1.89-5.98-3.57c-1.77-1.68-3.12-3.74-4.07-6.16c-1.52-3.78-1.73-7.72-0.62-11.83c0.25-0.99,0.62-1.97,1.11-2.96
		l0.06-0.18l0.25-0.55h0.06c1.03-1.97,2.38-3.68,4.07-5.12l0.49-0.37l0.12-0.12c2.83-2.14,5.96-3.24,9.37-3.33
		c1.23-0.04,2.46,0.06,3.7,0.31c0.74,0.16,1.58,0.37,2.53,0.62c-0.04-0.53-0.06-1.36-0.06-2.47l0.06-0.49c0-0.25,0-0.66,0-1.23
		c-0.04-0.99-0.04-1.76,0-2.31c0.04-0.55,0.18-1.23,0.43-2.03c0.25-0.8,0.62-1.47,1.11-2c1.4-1.44,3.41-1.95,6.04-1.54
		c0.25,0.04,0.51,0.1,0.8,0.18h0.06l0.12,0.06l0.68,0.25h-0.06c1.11,0.62,1.95,1.64,2.53,3.08l0.18,0.55L376.82,39.33z
		 M361.97,71.68c2.3-0.45,3.51-2.24,3.64-5.36c0-0.16,0.02-0.49,0.06-0.99c0.04-0.86,0.06-1.54,0.06-2.03
		c0-0.49-0.03-1.11-0.09-1.85c-0.06-0.74-0.2-1.4-0.4-1.97c-0.21-0.57-0.49-1.09-0.86-1.54c-0.25-0.29-0.49-0.51-0.74-0.68
		c-0.74-0.66-1.64-1.01-2.71-1.05l-0.12-0.06c-0.08,0-0.16,0-0.25,0c-1.27,0-2.38,0.37-3.33,1.11c-1.4,1.07-2.26,2.73-2.59,4.99
		c-0.33,2.26-0.1,4.27,0.68,6.04c0.16,0.45,0.35,0.84,0.55,1.17c0.45,0.86,0.98,1.45,1.57,1.76c0.6,0.31,1.39,0.5,2.37,0.59
		C360.59,71.84,361.31,71.8,361.97,71.68z"/>
</g>
<g>
	<path class="st8" d="M414.04,51.22c0.16,1.32-0.12,3.33-0.86,6.04c-0.12,0.58-0.23,0.99-0.31,1.23c0,0.12-0.04,0.27-0.12,0.43
		l-0.19,0.99h-0.06c-0.16,0.74-0.37,1.5-0.62,2.28l-0.25,0.68v0.18h-0.06c-0.58,1.85-1.38,4.07-2.4,6.66
		c-1.27,3.2-2.59,6.1-3.94,8.69h0.06l-0.31,0.49l-0.06,0.18c-0.66,1.19-1.32,2.32-1.97,3.39l-0.06,0.18l-0.31,0.43
		c-1.73,2.71-3.53,5.03-5.42,6.96c-0.58,0.66-1.23,1.21-1.97,1.66c-0.74,0.45-1.52,0.81-2.34,1.08c-0.82,0.27-1.62,0.4-2.4,0.4
		c-1.19,0-2.22-0.33-3.08-0.99h-0.06l-0.31-0.25l-0.18-0.18V91.7c-0.58-0.62-1.03-1.38-1.36-2.28c-0.12-0.37-0.21-0.74-0.25-1.11
		h-0.06v-0.68h0.06c0.08-0.62,0.31-1.14,0.68-1.57c0.37-0.43,0.9-0.91,1.6-1.45c0.66-0.49,1.13-0.88,1.42-1.17
		c0.37-0.37,0.82-0.99,1.36-1.85c0.37-0.62,0.66-1.07,0.86-1.36c0.21-0.57,0.18-1.21-0.06-1.91c-0.25-0.82-0.84-1.97-1.79-3.45
		c-0.78-1.15-1.29-2.03-1.54-2.65c-1.07-2.26-2.26-5.22-3.57-8.87c-0.16-0.41-0.41-1.07-0.74-1.97c-1.52-3.94-2.36-6.96-2.53-9.06
		c-0.16-1.6,0.14-2.94,0.92-4.01c0.29-0.41,0.62-0.74,0.99-0.99c0.99-0.66,2.28-0.88,3.88-0.68c0.21,0.04,0.49,0.1,0.86,0.18
		l-0.25-0.25l1.48,0.68c0.53,0.25,0.96,0.53,1.29,0.86c0.58,0.58,1.09,1.6,1.54,3.08c0.86,2.63,1.77,5.46,2.71,8.5l0.31,0.99
		c0.12,0.41,0.31,1.07,0.55,1.97c0.53,2.18,1.11,3.72,1.73,4.62l0.06,0.06c0.12,0.21,0.23,0.35,0.31,0.43
		c0.37,0.37,0.64,0.47,0.8,0.31c0.04-0.04,0.1-0.14,0.19-0.31c0.94-2.26,2.03-5.83,3.27-10.72c0.16-0.7,0.33-1.31,0.49-1.85
		l0.12-0.55c0.25-1.03,0.45-1.81,0.62-2.34c0.16-0.53,0.45-1.23,0.86-2.1c0.41-0.86,0.84-1.52,1.29-1.97
		c0.45-0.45,1.08-0.83,1.88-1.14c0.8-0.31,1.69-0.44,2.68-0.4c0.37,0.04,0.76,0.12,1.17,0.25l0.25,0.06l0.37,0.18
		c0.86,0.41,1.52,0.95,1.97,1.6c0.29,0.49,0.51,1.07,0.68,1.73l0.06,0.37L414.04,51.22z"/>
</g>
</svg>
