<?xml version="1.0" encoding="utf-8"?>
<!-- Generator: Adobe Illustrator 24.0.3, SVG Export Plug-In . SVG Version: 6.00 Build 0)  -->
<svg version="1.1" id="Layer_1" xmlns="http://www.w3.org/2000/svg" xmlns:xlink="http://www.w3.org/1999/xlink" x="0px" y="0px"
	 viewBox="0 0 572.29 572.42" style="enable-background:new 0 0 572.29 572.42;" xml:space="preserve">
<style type="text/css">
	.st0{fill:#EC673B;}
	.st1{fill:#FFCC07;}
	.st2{fill:#62398E;}
	.st3{fill:#35398E;}
	.st4{fill:#913B8E;}
	.st5{fill:#B9338A;}
	.st6{fill:#9AC43B;}
	.st7{fill:#CD3433;}
</style>
<g>
	<g>
		<g>
			<path class="st0" d="M2.49,276.56c-1.52,42.69,6.69,84.18,22.93,121.88c8.79,20.41,34.55,26.92,51.93,13.07l91.26-72.72
				c21.15-16.85,14.8-50.5-11.04-58.49L46.07,245.83C24.98,239.31,3.27,254.51,2.49,276.56z"/>
		</g>
	</g>
	<g>
		<g>
			<path class="st1" d="M92.24,78.99c-29.99,28.03-54.14,62.75-69.86,102.47c-8.12,20.52,5.68,43.14,27.61,45.62l115.97,13.11
				c26.87,3.04,46.18-25.25,33.55-49.16l-54.46-103.2C134.68,68.18,108.48,63.82,92.24,78.99z"/>
		</g>
	</g>
	<g>
		<g>
			<path class="st2" d="M570.11,296.03c1.52-42.69-6.69-84.18-22.93-121.88c-8.79-20.41-34.55-26.92-51.93-13.07l-91.26,72.72
				c-21.15,16.85-14.8,50.5,11.04,58.49l111.51,34.47C547.62,333.28,569.33,318.09,570.11,296.03z"/>
		</g>
	</g>
	<g>
		<g>
			<path class="st3" d="M493.6,92.24c-28.03-29.99-62.75-54.14-102.47-69.86c-20.52-8.12-43.14,5.68-45.62,27.61L332.4,165.96
				c-3.04,26.87,25.25,46.18,49.16,33.55l103.2-54.46C504.41,134.68,508.77,108.47,493.6,92.24z"/>
		</g>
	</g>
	<g>
		<g>
			<path class="st4" d="M480.36,493.6c29.99-28.03,54.14-62.75,69.86-102.47c8.12-20.52-5.68-43.14-27.61-45.62l-115.97-13.11
				c-26.87-3.04-46.18,25.25-33.55,49.16l54.46,103.2C437.91,504.41,464.12,508.77,480.36,493.6z"/>
		</g>
	</g>
	<g>
		<g>
			<path class="st5" d="M276.78,570.27c42.7,1.4,84.16-6.91,121.82-23.25c20.39-8.85,26.83-34.62,12.93-51.97l-72.96-91.07
				c-16.91-21.11-50.54-14.67-58.46,11.19l-34.18,111.6C239.47,547.87,254.72,569.54,276.78,570.27z"/>
		</g>
	</g>
	<g>
		<g>
			<path class="st6" d="M292.3,157.57l34.47-111.51c6.52-21.09-8.67-42.8-30.73-43.58c-42.69-1.52-84.18,6.69-121.88,22.93
				c-20.41,8.79-26.92,34.55-13.07,51.93l72.72,91.26C250.66,189.76,284.31,183.41,292.3,157.57z"/>
		</g>
	</g>
	<g>
		<g>
			<path class="st7" d="M79,480.35c28.03,29.99,62.75,54.14,102.47,69.86c20.52,8.12,43.14-5.68,45.62-27.61l13.11-115.97
				c3.04-26.87-25.25-46.18-49.16-33.55l-103.2,54.46C68.19,437.91,63.83,464.12,79,480.35z"/>
		</g>
	</g>
</g>
</svg>
