<?xml version="1.0" standalone="no"?>
<!DOCTYPE svg PUBLIC "-//W3C//DTD SVG 20010904//EN"
 "http://www.w3.org/TR/2001/REC-SVG-20010904/DTD/svg10.dtd">
<svg version="1.0" xmlns="http://www.w3.org/2000/svg"
 width="700.000000pt" height="700.000000pt" viewBox="0 0 700.000000 700.000000"
 preserveAspectRatio="xMidYMid meet">
<metadata>
Created by potrace 1.14, written by Peter Selinger 2001-2017
</metadata>
<g transform="translate(0.000000,700.000000) scale(0.100000,-0.100000)"
fill="#000000" stroke="none">
<path d="M3247 6964 c-1 -1 -36 -5 -77 -8 -65 -6 -114 -12 -290 -40 -19 -3
-46 -8 -60 -11 -14 -3 -36 -8 -50 -11 -236 -48 -634 -187 -719 -251 -116 -89
-171 -204 -166 -349 4 -119 34 -176 202 -386 76 -95 143 -179 150 -188 6 -8
27 -33 45 -56 18 -23 47 -58 63 -79 285 -364 554 -691 591 -719 195 -149 491
-84 607 133 19 36 202 608 308 966 10 33 43 141 74 240 74 235 84 273 88 331
13 196 -123 376 -318 423 -41 10 -438 15 -448 5z"/>
<path d="M4547 6743 c-44 -9 -88 -27 -125 -50 -131 -84 -187 -189 -207 -393
-3 -36 -8 -81 -10 -100 -2 -19 -7 -60 -10 -90 -3 -30 -8 -66 -10 -80 -2 -14
-7 -54 -10 -90 -3 -36 -8 -81 -10 -100 -7 -50 -13 -107 -20 -170 -3 -30 -8
-72 -10 -92 -3 -21 -7 -55 -10 -75 -2 -21 -7 -63 -10 -93 -3 -30 -8 -71 -10
-90 -2 -19 -7 -57 -10 -85 -10 -98 -14 -131 -22 -190 -27 -217 25 -359 171
-458 140 -96 297 -97 466 -4 25 13 104 55 175 92 72 37 157 82 190 100 33 18
103 55 155 82 52 28 142 76 200 106 124 66 233 123 385 202 177 93 230 135
280 227 39 71 53 128 50 209 -4 143 -42 209 -219 383 -256 251 -548 459 -866
617 -296 147 -377 169 -513 142z"/>
<path d="M1325 6135 c-103 -22 -156 -57 -297 -201 -271 -276 -447 -522 -623
-869 -122 -240 -157 -337 -157 -435 0 -130 58 -245 163 -324 81 -61 156 -82
354 -101 91 -8 218 -22 270 -30 17 -2 57 -7 90 -10 33 -3 74 -8 90 -10 44 -6
110 -13 190 -20 39 -4 77 -8 85 -10 14 -4 54 -8 165 -20 53 -5 129 -14 180
-20 124 -16 181 -20 255 -20 74 1 94 5 152 32 87 41 160 110 198 187 37 75 42
93 45 180 3 102 -7 131 -135 371 -38 71 -64 121 -232 440 -104 196 -139 263
-273 518 -49 92 -106 188 -127 211 -97 111 -247 160 -393 131z"/>
<path d="M6210 5106 c-57 -16 -104 -41 -155 -80 -22 -17 -184 -145 -360 -285
-875 -696 -818 -647 -867 -746 -65 -129 -48 -303 40 -420 70 -92 146 -134 342
-190 25 -7 155 -47 290 -90 135 -42 385 -119 555 -171 171 -52 315 -96 320
-98 6 -2 13 -4 17 -5 4 -1 27 -9 50 -17 44 -16 147 -21 206 -10 139 26 273
155 312 300 19 70 16 458 -4 576 -2 14 -7 50 -10 80 -8 73 -22 154 -47 270
-11 52 -22 103 -24 113 -22 106 -130 420 -187 544 -32 71 -114 160 -174 191
-94 48 -216 63 -304 38z"/>
<path d="M329 3997 c-134 -37 -244 -149 -284 -291 -15 -51 -17 -91 -12 -285 3
-124 8 -244 11 -266 3 -22 8 -64 12 -94 7 -62 10 -81 41 -251 20 -113 97 -381
152 -528 83 -224 144 -307 270 -365 60 -28 75 -31 171 -31 96 -1 110 2 165 28
45 22 311 219 345 256 3 3 36 30 75 60 38 30 79 62 90 72 11 9 81 64 155 123
74 59 151 119 170 135 19 15 107 85 195 155 88 70 176 141 195 159 95 86 139
191 134 321 -5 150 -96 292 -226 352 -38 18 -189 67 -583 187 -5 2 -17 5 -25
8 -8 3 -60 19 -115 36 -55 17 -161 49 -235 72 -138 43 -294 90 -434 133 -89
27 -196 33 -267 14z"/>
<path d="M4840 2929 c-176 -33 -324 -214 -323 -399 1 -110 2 -112 191 -470 24
-47 61 -116 82 -155 21 -38 66 -124 100 -190 34 -66 75 -142 90 -170 15 -27
56 -104 90 -170 204 -391 205 -392 303 -456 135 -88 315 -85 452 7 61 41 257
240 350 355 11 13 37 46 59 72 180 223 372 555 486 842 87 217 6 441 -195 540
-53 25 -150 45 -305 60 -36 3 -76 8 -90 10 -14 2 -52 6 -85 9 -33 4 -76 8 -95
11 -19 3 -57 7 -85 10 -178 19 -247 27 -269 30 -11 2 -52 6 -89 10 -37 3 -78
8 -89 10 -12 3 -51 7 -87 10 -36 3 -73 7 -81 10 -8 2 -46 6 -85 9 -38 4 -81 8
-95 11 -52 9 -186 12 -230 4z"/>
<path d="M2437 2474 c-51 -12 -184 -79 -712 -359 -44 -23 -125 -66 -180 -95
-55 -29 -136 -72 -180 -95 -44 -23 -125 -66 -180 -95 -143 -75 -166 -90 -206
-129 -81 -81 -123 -183 -121 -301 1 -138 47 -218 221 -388 315 -307 717 -570
1108 -726 182 -72 335 -48 468 75 74 68 116 169 130 314 4 33 8 74 10 90 2 17
7 57 10 90 3 33 8 71 10 85 2 14 7 48 9 75 3 28 8 73 11 100 3 28 8 70 10 95
3 25 7 64 10 88 3 23 7 63 10 90 3 26 8 63 10 82 3 19 7 60 10 90 3 30 8 71
10 90 26 205 46 426 41 473 -20 233 -264 405 -499 351z"/>
<path d="M3780 2213 c-170 -21 -313 -142 -358 -303 -5 -19 -69 -228 -142 -465
-73 -236 -140 -457 -150 -490 -10 -33 -44 -143 -76 -245 -68 -221 -76 -287
-46 -387 39 -128 131 -225 257 -273 53 -20 79 -23 225 -23 149 0 323 8 390 18
14 2 63 9 110 15 240 32 515 105 765 202 136 53 191 83 238 127 97 89 150 253
122 381 -20 92 -58 146 -527 732 -262 328 -492 607 -510 621 -89 68 -203 102
-298 90z"/>
</g>
</svg>
