<?xml version="1.0" standalone="no"?>
<!DOCTYPE svg PUBLIC "-//W3C//DTD SVG 20010904//EN"
 "http://www.w3.org/TR/2001/REC-SVG-20010904/DTD/svg10.dtd">
<svg version="1.0" xmlns="http://www.w3.org/2000/svg"
 width="624.000000pt" height="624.000000pt" viewBox="0 0 624.000000 624.000000"
 preserveAspectRatio="xMidYMid meet">
<metadata>
Created by potrace 1.11, written by Peter Selinger 2001-2013
</metadata>
<g transform="translate(0.000000,624.000000) scale(0.100000,-0.100000)"
fill="#000000" stroke="none">
<path d="M2995 5942 c-2 -2 -36 -5 -77 -8 -112 -6 -186 -15 -288 -34 -36 -6
-76 -13 -90 -15 -14 -2 -25 -4 -25 -5 0 -1 -7 -3 -15 -5 -8 -1 -42 -10 -75
-19 -33 -9 -69 -19 -81 -21 -30 -7 -145 -43 -169 -54 -11 -5 -58 -24 -105 -42
-92 -35 -141 -63 -180 -103 -39 -39 -47 -51 -55 -77 -4 -13 -11 -26 -15 -29
-21 -14 -30 -131 -15 -210 6 -36 61 -140 74 -140 3 0 14 -12 23 -27 10 -16 28
-41 42 -58 14 -16 29 -35 33 -40 10 -13 124 -156 140 -175 7 -8 43 -53 80
-100 37 -47 72 -90 78 -97 5 -6 21 -26 35 -44 90 -119 308 -388 329 -406 117
-102 326 -105 433 -4 18 17 36 31 41 31 4 0 7 7 7 15 0 8 4 15 8 15 9 0 24 26
43 75 14 35 12 29 28 85 6 25 15 52 18 60 4 8 7 17 8 20 11 42 37 129 42 140
3 8 8 21 10 28 1 6 5 18 6 25 2 6 7 19 10 27 3 8 20 62 37 120 47 153 62 202
137 440 62 196 68 223 68 300 0 73 -4 93 -28 140 -50 98 -140 167 -240 185
-38 7 -266 13 -272 7z"/>
<path d="M3960 5753 c-30 -8 -57 -18 -58 -23 -2 -6 -7 -8 -11 -5 -4 2 -32 -18
-62 -44 -63 -56 -106 -135 -114 -208 -3 -26 -8 -64 -10 -83 -5 -33 -13 -108
-20 -175 -1 -16 -6 -50 -9 -75 -4 -25 -8 -67 -11 -95 -2 -27 -6 -66 -9 -85 -3
-19 -8 -62 -11 -95 -5 -59 -12 -121 -20 -181 -3 -17 -7 -55 -10 -85 -9 -88
-13 -120 -22 -194 -16 -133 -10 -214 19 -276 69 -150 238 -229 391 -185 31 9
60 16 63 15 4 0 10 3 13 8 7 10 14 13 171 96 69 35 154 80 190 99 36 20 119
64 185 98 66 34 143 75 170 90 28 15 113 60 190 100 77 40 159 88 181 106 75
61 122 165 118 264 -3 71 -7 87 -38 148 -32 64 -253 285 -349 351 -12 8 -24
17 -27 21 -23 26 -262 190 -278 190 -6 0 -12 3 -14 8 -1 4 -16 15 -33 24 -36
21 -267 135 -310 153 -16 7 -41 17 -55 24 -59 27 -147 33 -220 14z"/>
<path d="M1322 5254 c-83 -22 -149 -74 -302 -240 -90 -97 -208 -251 -291 -379
-96 -147 -214 -382 -254 -505 -43 -132 0 -277 107 -362 73 -57 116 -72 243
-83 35 -2 78 -7 96 -9 19 -3 54 -7 79 -10 25 -3 65 -8 90 -12 25 -3 63 -7 85
-8 22 -2 60 -6 85 -10 25 -3 65 -8 90 -11 25 -2 63 -6 85 -9 22 -2 67 -7 100
-11 112 -12 208 -24 260 -31 53 -8 225 -9 250 -3 83 22 178 103 216 185 18 38
24 69 25 136 l2 88 -57 112 c-79 156 -189 365 -216 413 -12 22 -53 99 -90 170
-37 72 -80 153 -95 180 -15 28 -51 97 -81 154 -68 131 -113 182 -193 221 -74
37 -153 45 -234 24z"/>
<path d="M5321 4410 c-49 -16 -132 -67 -176 -107 -24 -22 -119 -98 -165 -133
-18 -14 -38 -30 -44 -35 -6 -6 -54 -44 -106 -85 -52 -41 -97 -77 -100 -80 -3
-3 -48 -39 -100 -80 -52 -41 -100 -79 -106 -85 -16 -14 -41 -34 -94 -75 -25
-19 -47 -37 -50 -40 -3 -3 -25 -21 -50 -40 -141 -107 -190 -252 -136 -404 25
-71 108 -162 171 -188 34 -14 258 -87 290 -94 6 -1 55 -17 110 -34 55 -18 116
-36 135 -42 19 -5 53 -15 75 -23 22 -7 81 -25 130 -40 50 -15 101 -31 115 -36
14 -5 34 -11 45 -14 11 -2 72 -21 135 -40 63 -20 124 -39 135 -42 11 -3 54 -6
95 -7 66 -1 84 3 141 31 100 50 168 139 184 243 12 70 5 369 -9 460 -2 14 -7
48 -11 75 -3 28 -15 95 -26 150 -26 127 -25 122 -40 175 -7 25 -13 51 -15 57
-4 22 -44 146 -58 183 -78 197 -83 208 -122 251 -86 99 -232 140 -353 99z"/>
<path d="M545 3514 c-27 -7 -97 -36 -113 -49 -91 -68 -148 -166 -150 -260 -4
-123 2 -304 12 -403 14 -122 18 -148 27 -184 5 -20 9 -40 7 -45 -1 -4 3 -26 9
-48 5 -22 18 -74 28 -115 10 -41 29 -109 43 -150 13 -41 25 -79 27 -85 2 -12
7 -23 48 -130 51 -134 103 -196 201 -241 76 -35 160 -39 242 -12 46 15 95 48
229 154 94 74 179 142 190 152 11 10 63 51 115 92 52 41 100 79 106 85 7 5 24
19 40 30 15 11 32 25 38 30 9 8 200 160 264 210 106 82 156 172 157 280 0 87
-6 118 -36 174 -47 86 -124 142 -244 175 -33 9 -69 21 -80 25 -11 5 -42 15
-70 22 -27 6 -54 16 -60 20 -5 4 -12 7 -15 7 -6 -1 -147 41 -280 83 -52 17
-102 32 -110 34 -8 2 -28 9 -45 15 -16 6 -37 13 -46 15 -9 2 -76 22 -150 45
-74 23 -141 43 -149 45 -8 2 -28 8 -45 15 -32 12 -156 21 -190 14z"/>
<path d="M4204 2629 c-3 -5 -9 -7 -13 -5 -9 6 -92 -37 -122 -62 -35 -30 -86
-105 -101 -152 -39 -120 -22 -188 106 -425 40 -74 141 -266 214 -405 30 -58
69 -132 87 -165 18 -33 63 -118 100 -190 37 -71 83 -149 102 -172 101 -126
294 -155 435 -67 36 23 156 139 232 225 85 96 256 320 256 336 0 3 6 14 14 22
27 30 198 346 201 371 1 3 10 26 22 51 33 73 45 117 47 172 6 166 -124 320
-289 342 -11 2 -45 6 -75 9 -30 4 -71 9 -90 11 -19 3 -55 7 -80 9 -25 2 -65 7
-90 10 -25 3 -67 8 -95 11 -27 2 -61 6 -75 9 -14 2 -59 8 -100 12 -93 9 -111
10 -180 18 -30 4 -71 9 -90 11 -125 13 -149 16 -180 21 -63 10 -230 12 -236 3z"/>
<path d="M2257 2264 c-2 -3 -13 -6 -24 -8 -20 -4 -77 -29 -103 -45 -8 -5 -26
-14 -40 -20 -14 -6 -47 -24 -75 -40 -27 -15 -117 -63 -200 -106 -82 -43 -173
-91 -202 -106 -28 -16 -103 -55 -165 -88 -369 -193 -354 -184 -411 -245 -84
-91 -105 -253 -46 -369 25 -47 36 -61 131 -155 231 -230 494 -416 783 -551 50
-23 98 -46 107 -51 10 -6 22 -10 27 -10 5 0 26 -7 47 -17 74 -31 200 -19 275
26 121 74 164 169 184 401 3 41 8 89 11 105 3 17 7 46 9 65 3 37 13 121 20
180 5 43 14 119 20 180 6 58 15 138 20 170 2 14 7 57 10 95 3 39 10 97 14 130
5 33 8 96 7 140 -1 66 -7 90 -30 137 -27 54 -93 128 -115 128 -5 0 -11 4 -13
8 -8 20 -108 49 -171 50 -36 0 -68 -2 -70 -4z"/>
<path d="M3272 2027 c-120 -42 -180 -112 -227 -263 -15 -49 -33 -109 -41 -134
-48 -156 -206 -667 -208 -675 -1 -5 -11 -37 -21 -70 -10 -33 -19 -64 -20 -70
-2 -5 -14 -47 -28 -93 -47 -151 -18 -278 84 -374 76 -71 136 -90 289 -91 110
-1 236 5 365 18 43 5 58 7 178 31 42 8 90 17 105 20 15 3 50 11 78 19 28 8 59
16 70 18 10 2 28 8 39 14 11 6 23 11 28 11 31 1 232 78 315 120 134 68 201
246 151 395 -16 48 -86 158 -119 187 -3 3 -76 94 -164 204 -87 109 -164 206
-171 215 -37 44 -163 203 -185 232 -14 18 -29 37 -35 43 -5 6 -28 34 -50 61
-101 128 -138 159 -230 190 -51 17 -141 14 -203 -8z"/>
</g>
</svg>
