<svg width="1005" height="295" viewBox="0 0 1005 295" fill="none" xmlns="http://www.w3.org/2000/svg">
<path d="M71.2116 190.27C70.5288 189.149 69.8949 188.075 69.2608 186.954C66.9684 182.857 63.2127 180.32 58.5304 179.686C53.848 179.052 49.5558 180.515 46.2391 183.832L36.3869 193.685C29.656 200.415 18.779 200.415 12.0482 193.685C5.31728 186.954 5.31728 176.028 12.0482 169.346L45.7515 135.643C50.824 130.57 53.5553 124.669 54.1894 117.548C56.5306 90.3801 68.09 63.8956 88.868 43.1177C112.28 19.7059 143.008 8 173.736 8C204.464 8 235.143 19.7059 258.555 43.1177C281.966 66.5294 293.672 97.2574 293.672 127.937C293.672 158.616 281.966 189.344 258.555 212.755C237.777 233.533 211.243 245.093 184.125 247.434C177.004 248.068 171.053 250.799 166.029 255.872L138.764 283.137C132.034 289.868 121.157 289.868 114.426 283.137C107.695 276.406 107.695 265.529 114.426 258.798L117.791 255.433C121.108 252.116 122.571 247.824 121.937 243.142C121.303 238.459 118.767 234.753 114.67 232.411C113.548 231.777 112.426 231.143 111.353 230.46C105.549 226.9 98.2815 227.778 93.4528 232.607L54.3844 271.675C47.6535 278.406 36.7281 278.406 30.046 271.675C23.3151 264.944 23.3151 254.018 30.046 247.336L69.1144 208.268C73.943 203.439 74.821 196.172 71.2605 190.368L71.2116 190.27ZM88.1854 127.888C88.1854 149.787 96.5256 171.687 113.255 188.368C129.936 205.049 151.836 213.438 173.736 213.438C195.635 213.438 217.535 205.098 234.216 188.368C250.946 171.687 259.286 149.787 259.286 127.888C259.286 105.988 250.946 84.0882 234.216 67.4074C217.535 50.7265 195.635 42.3373 173.736 42.3373C151.836 42.3373 129.936 50.6777 113.255 67.4074C96.5743 84.0882 88.1854 105.988 88.1854 127.888Z" fill="#4BC7F8"/>
<path d="M173.736 104.232C168.468 104.232 163.688 102.086 160.225 98.6231C156.762 95.1601 154.665 90.429 154.665 85.1126C154.665 79.8449 156.811 75.065 160.274 71.602C163.737 68.139 168.517 65.9929 173.784 65.9929C182.125 65.9929 190.124 67.6513 197.44 70.6753C205 73.7969 211.828 78.3817 217.535 84.0883C223.242 89.7949 227.826 96.6233 230.948 104.183C233.972 111.5 235.63 119.499 235.63 127.839V128.229C235.143 133.692 233.24 138.618 229.826 142.179C226.607 145.544 222.169 147.544 216.462 147.495C211.975 147.495 208.024 146.032 204.903 143.593C201.635 141.057 199.293 137.448 198.172 133.302C197.586 131.156 197.489 129.107 197.343 127.059C197.245 125.595 197.147 124.132 196.855 122.766C196.367 120.523 195.587 118.426 194.514 116.475C193.441 114.524 192.075 112.719 190.465 111.109C188.27 108.914 185.685 107.159 182.808 105.988C180.027 104.817 176.955 104.183 173.736 104.183V104.232Z" fill="#122036"/>
<path d="M398.098 227.437H459.652C466.968 227.437 471.065 223.339 471.065 216.023V207.341C471.065 200.025 466.968 195.928 459.652 195.928H406.634C396.342 195.928 394.635 191.343 394.635 185.539V77.7476C394.635 70.4314 390.538 66.3344 383.222 66.3344H371.077C363.761 66.3344 359.664 70.4314 359.664 77.7476V191.831C359.664 217.584 371.418 227.388 398.049 227.388L398.098 227.437ZM577.101 116.962V172.76C577.101 194.611 569.15 200.659 550.567 200.659C531.984 200.659 524.034 194.611 524.034 172.76V116.962C524.034 109.597 519.937 105.5 512.621 105.5H500.964C493.647 105.5 489.55 109.597 489.55 116.962V172.273C489.55 216.804 511.987 229.68 550.518 229.68C589.05 229.68 611.487 216.804 611.487 172.273V116.962C611.487 109.597 607.389 105.5 600.073 105.5H588.416C581.1 105.5 577.003 109.597 577.003 116.962H577.101ZM698.256 103.305C659.724 103.305 637.288 116.182 637.288 160.713V216.023C637.288 223.339 641.385 227.485 648.701 227.485H660.359C667.675 227.485 671.772 223.339 671.772 216.023V160.177C671.772 138.374 679.722 132.326 698.305 132.326C716.888 132.326 724.838 138.374 724.838 160.177V216.023C724.838 223.339 728.936 227.485 736.252 227.485H747.909C755.225 227.485 759.322 223.339 759.322 216.023V160.713C759.322 116.182 736.886 103.305 698.354 103.305H698.256ZM838.141 103.305C827.265 103.305 814.144 104.769 800.634 107.646C792.537 109.256 788.684 113.694 788.684 120.523V125.108C788.684 133.058 793.416 136.618 801.219 135.155C812.73 132.814 824.241 131.302 833.118 131.302C851.213 131.302 861.943 137.252 861.943 150.909V152.909H829.899C799.853 152.909 781.222 160.957 781.222 190.222C781.222 219.486 799.707 227.437 829.899 227.437H858.042C884.624 227.437 896.427 217.633 896.427 191.831V150.958C896.427 117.596 871.65 103.354 838.141 103.354V103.305ZM849.652 202.708H831.557C816.73 202.708 813.657 199.245 813.657 190.173C813.657 181.101 816.73 177.589 831.703 177.589H861.992V190.075C861.992 198.367 860.237 202.708 849.652 202.708V202.708ZM984.855 104.281C932.423 105.159 922.229 112.816 922.229 141.203V215.974C922.229 223.291 926.326 227.437 933.642 227.437H945.933C953.249 227.437 957.346 223.291 957.346 215.974V146.129C957.346 136.862 958.468 134.619 984.465 134.228C992.659 134.082 997 130.034 997 122.718V115.548C997 108.134 992.805 104.135 984.855 104.281V104.281Z" fill="#122036"/>
</svg>
